<svg xmlns="http://www.w3.org/2000/svg" width="64.837" height="63.783" viewBox="0 0 64.837 63.783"><g transform="translate(-31.861 -44.127)"><path d="M134.624,90.358h-2.57a.334.334,0,0,0-.332.335l.01,3.476a.333.333,0,0,0,.332.332h2.563a.329.329,0,0,0,.332-.332l0-3.479A.333.333,0,0,0,134.624,90.358Zm-2.231,3.479-.007-2.816h1.905l0,2.816Z" transform="translate(-73.52 -34.036)"/><path d="M149.489,90.358h-2.57a.334.334,0,0,0-.332.332v3.479a.333.333,0,0,0,.332.332h2.563a.333.333,0,0,0,.332-.332l.007-3.476a.328.328,0,0,0-.1-.236A.332.332,0,0,0,149.489,90.358Zm-.339,3.479h-1.9V91.022h1.906Z" transform="translate(-84.464 -34.036)"/><path d="M164.335,90.358h-2.57a.335.335,0,0,0-.332.332l-.007,3.479a.335.335,0,0,0,.1.236.343.343,0,0,0,.236.1h2.563a.333.333,0,0,0,.332-.332l.013-3.476a.334.334,0,0,0-.332-.335Zm-.346,3.479h-1.9l.007-2.816H164Z" transform="translate(-95.39 -34.036)"/><path d="M96.543,68.354A2.59,2.59,0,0,0,93.229,66.8l-.015.005-.006-.014a3.464,3.464,0,0,0-3.354-2.057A30.394,30.394,0,0,0,74.31,49.866a13.559,13.559,0,0,0-21.619-.709A30.325,30.325,0,0,0,39.122,58.7a2.772,2.772,0,0,0-4.509.765,2.081,2.081,0,1,0-.67,4.052h1.972a30.207,30.207,0,1,0,56.291,8.3h1.9a2.587,2.587,0,0,0,2.433-3.469ZM63.2,44.791a12.894,12.894,0,0,1,9.886,4.587q.2.23.381.47l.015.019q.186.24.362.489h0a14.278,14.278,0,0,1,2,4.129,96.062,96.062,0,0,0-25.338.126,14.339,14.339,0,0,1,2.617-4.936h0q.191-.235.393-.461l.018-.02q.2-.227.414-.444A12.876,12.876,0,0,1,63.2,44.791ZM64.344,71.4a.335.335,0,0,0-.415-.007c-5.076,3.874-4.6,12.091-4.422,13.971H44.639L46.4,58.871h6.992l.027,4.592a.333.333,0,0,0,.332.329H72.66a.331.331,0,0,0,.332-.329l.033-4.592h6.653l1.876,26.494H68.61C69.188,76.806,66.193,72.948,64.344,71.4Zm3.6,13.964H60.174c-.15-1.614-.628-9.538,3.947-13.277C65.884,73.665,68.494,77.38,67.946,85.365ZM72.7,58.207a.33.33,0,0,0-.332.329l-.033,4.592H54.081l-.03-4.592a.33.33,0,0,0-.332-.329H49.809a14.908,14.908,0,0,1,.458-2.879,94.072,94.072,0,0,1,25.727-.146,14.751,14.751,0,0,1,.428,3.025ZM33.414,62.9a1.554,1.554,0,1,1,1.059-2.922l.421.151.184-.41a2.246,2.246,0,0,1,3.71-.605l-.027.033a2.487,2.487,0,0,1,.356.571l.043-.054a2.25,2.25,0,0,1,.16.45l.129.548.522-.21a1.294,1.294,0,0,1,.488-.1,1.318,1.318,0,0,1,0,2.636H33.943A1.552,1.552,0,0,1,33.414,62.9Zm3.221.62H40.46a1.846,1.846,0,0,0,0-3.691,1.819,1.819,0,0,0-.638.116,2.765,2.765,0,0,0-.3-.728,29.7,29.7,0,0,1,12.464-9.127,15.627,15.627,0,0,0-2.23,4.726,13.335,13.335,0,0,0-.614,3.393H46.09a.331.331,0,0,0-.332.309L43.972,85.365H34.258a.329.329,0,0,0-.224.09,29.533,29.533,0,0,1,2.6-21.936Zm25.942,43.758A29.628,29.628,0,0,1,34.192,86.016a.323.323,0,0,0,.066.013H90.734A.326.326,0,0,0,91,85.886,29.629,29.629,0,0,1,62.577,107.277ZM91.061,85.671a.329.329,0,0,0-.327-.306H82.219l-1.9-26.849a.328.328,0,0,0-.329-.309h-2.9a15.593,15.593,0,0,0-.462-3.25.329.329,0,0,0-.017-.186,15.141,15.141,0,0,0-1.653-3.924,29.765,29.765,0,0,1,14.24,13.987,3.478,3.478,0,0,0-2.545,2.57l0,.019-.017-.007a2.249,2.249,0,0,0-.85-.166,2.286,2.286,0,1,0,0,4.573h5.782a29.512,29.512,0,0,1-.5,13.848Zm3.751-14.5a2.06,2.06,0,0,1-.7.123H85.777a1.759,1.759,0,1,1,0-3.518,1.726,1.726,0,0,1,.652.128l.588.237.145-.617a2.949,2.949,0,0,1,5.564-.518l.207.461.475-.171a2.061,2.061,0,0,1,1.4,3.875Z" transform="translate(0 0)"/><rect width="40.211" height="0.528" transform="translate(42.472 90.015)"/><rect width="29.66" height="0.528" transform="translate(47.747 93.972)"/><rect width="19.109" height="0.528" transform="translate(53.023 97.929)"/><rect width="8.558" height="0.528" transform="translate(58.298 101.885)"/></g></svg>