<svg xmlns="http://www.w3.org/2000/svg" width="162.751" height="45.632" viewBox="0 0 162.751 45.632"><defs><style>.a{fill:#3d1152;}</style></defs><g transform="translate(0.332 0)"><path class="a" d="M56.378,43.779v2.262a.232.232,0,0,1-.246.246H46.418v4.624h8.018a.233.233,0,0,1,.246.246V53.42a.232.232,0,0,1-.246.246H46.418V60.5a.232.232,0,0,1-.246.246H43.737a.232.232,0,0,1-.246-.246V43.779a.233.233,0,0,1,.246-.246h12.4A.233.233,0,0,1,56.378,43.779Z" transform="translate(-43.491 -43.214)"/><path class="a" d="M89.647,60.749H86.966a.268.268,0,0,1-.283-.221c-.357-1.414-.787-2.9-1.279-4.4H77.178c-.492,1.5-.922,2.988-1.267,4.4a.268.268,0,0,1-.283.221H73.046c-.172,0-.27-.1-.221-.271a114.477,114.477,0,0,1,6.3-16.625.47.47,0,0,1,.48-.32h3.492a.471.471,0,0,1,.48.32,112.579,112.579,0,0,1,6.3,16.625C89.917,60.65,89.819,60.749,89.647,60.749Zm-5.152-7.28c-.9-2.484-1.893-4.968-2.914-7.231H81c-1.021,2.263-2.029,4.747-2.927,7.231Z" transform="translate(-56.938 -43.214)"/><path class="a" d="M112.037,52.018c0-5.337,3.517-9.075,8.534-9.075h.369a7.658,7.658,0,0,1,6.874,3.91.217.217,0,0,1-.086.344l-2.164,1.07a.3.3,0,0,1-.43-.111,4.575,4.575,0,0,0-4.292-2.41h-.369c-3.16,0-5.337,2.509-5.337,6.149s2.14,6.1,5.337,6.1h.369a5.049,5.049,0,0,0,4.193-1.771.313.313,0,0,1,.406-.086l2.225,1.082a.2.2,0,0,1,.123.172.324.324,0,0,1-.074.184,8.036,8.036,0,0,1-6.824,3.222h-.369C115.419,60.8,112.037,57.293,112.037,52.018Z" transform="translate(-74.927 -42.943)"/><path class="a" d="M166.005,58.24V60.5a.232.232,0,0,1-.246.246H152.848a.232.232,0,0,1-.246-.246V43.779a.232.232,0,0,1,.246-.246h12.69a.233.233,0,0,1,.246.246v2.262a.232.232,0,0,1-.246.246h-10.01v4.476h8.14a.232.232,0,0,1,.246.246v2.238a.233.233,0,0,1-.246.246h-8.14v4.5H165.76A.232.232,0,0,1,166.005,58.24Z" transform="translate(-93.53 -43.214)"/><path class="a" d="M205.632,56.027c0,3.013-2.312,4.722-6.394,4.722h-8.46a.233.233,0,0,1-.246-.246V43.779a.233.233,0,0,1,.246-.246h7.71c3.972,0,6.136,1.574,6.136,4.452a3.6,3.6,0,0,1-2.9,3.713C204.451,52.276,205.632,53.912,205.632,56.027Zm-7.206-9.813h-4.968v4.624h4.968c2.226,0,3.246-.725,3.246-2.312S200.651,46.214,198.426,46.214Zm4.206,9.555c0-1.6-1.057-2.324-3.382-2.324h-5.792v4.624h5.792C201.611,58.068,202.631,57.379,202.631,55.769Z" transform="translate(-110.924 -43.214)"/><path class="a" d="M227.939,51.871c0-5.189,3.443-8.928,8.853-8.928h.369c5.411,0,8.854,3.738,8.854,8.928s-3.443,8.927-8.854,8.927h-.369C231.382,60.8,227.939,57.06,227.939,51.871Zm9.222,6.124c3.529,0,5.755-2.423,5.755-6.124s-2.226-6.124-5.755-6.124h-.369c-3.529,0-5.755,2.423-5.755,6.124s2.226,6.124,5.755,6.124Z" transform="translate(-128.08 -42.943)"/><path class="a" d="M270.547,51.871c0-5.189,3.443-8.928,8.853-8.928h.369c5.411,0,8.853,3.738,8.853,8.928S285.18,60.8,279.77,60.8H279.4C273.99,60.8,270.547,57.06,270.547,51.871Zm9.223,6.124c3.529,0,5.755-2.423,5.755-6.124s-2.226-6.124-5.755-6.124H279.4c-3.529,0-5.754,2.423-5.754,6.124s2.226,6.124,5.754,6.124Z" transform="translate(-147.62 -42.943)"/><path class="a" d="M330.364,60.749h-3.173a.467.467,0,0,1-.43-.209,67.266,67.266,0,0,0-7.1-7.145H318.24V60.5a.232.232,0,0,1-.246.246h-2.435a.232.232,0,0,1-.246-.246V43.779a.233.233,0,0,1,.246-.246h2.435a.233.233,0,0,1,.246.246v6.787h1.451a52.824,52.824,0,0,0,6.419-6.849.4.4,0,0,1,.369-.185h3c.147,0,.221.074.221.172a.3.3,0,0,1-.086.185,61.281,61.281,0,0,1-7.685,7.993,74.082,74.082,0,0,1,8.571,8.558C330.635,60.6,330.561,60.749,330.364,60.749Z" transform="translate(-168.15 -43.214)"/></g><g transform="translate(0 28.741)"><path class="a" d="M361.908,55.964V43.531h1.714l4.733,7.895,4.689-7.895h1.723V55.964h-1.439V45.6L369,52.864h-1.332l-4.334-7.22V55.964Z" transform="translate(-361.908 -42.998)"/><path class="a" d="M405.476,61.431a3.092,3.092,0,0,1-2.162-.7,2.615,2.615,0,0,1,.089-3.788,4.1,4.1,0,0,1,2.757-.759h2.576V56q0-2.478-2.265-2.478a3.232,3.232,0,0,0-1.549.338,2.628,2.628,0,0,0-1.008.959l-.986-.746a3.605,3.605,0,0,1,1.434-1.363,4.4,4.4,0,0,1,2.083-.475h.177a3.473,3.473,0,0,1,2.549.928,3.684,3.684,0,0,1,.941,2.74v5.364h-1.359V59.62a3.608,3.608,0,0,1-1.341,1.336A3.847,3.847,0,0,1,405.476,61.431Zm.267-1.252a3.065,3.065,0,0,0,1.882-.555,3.289,3.289,0,0,0,1.11-1.505V57.3h-2.513a2.944,2.944,0,0,0-1.745.391,1.269,1.269,0,0,0-.511,1.065,1.294,1.294,0,0,0,.444,1.048A2.032,2.032,0,0,0,405.742,60.179Z" transform="translate(-386.658 -48.297)"/><path class="a" d="M429.712,61.262V52.426h1.4v1.536a3.329,3.329,0,0,1,1.066-1.283,2.572,2.572,0,0,1,1.5-.448,3.728,3.728,0,0,1,.781.08v1.4q-.2-.026-.44-.044t-.457-.018a2.137,2.137,0,0,0-1.567.591,3.535,3.535,0,0,0-.884,1.576v5.444Z" transform="translate(-403.204 -48.297)"/><path class="a" d="M447.475,55.134V42.168h1.4V50.2q1.19-.968,2.3-1.958t2.038-1.949h1.759q-1.03,1.066-2.207,2.131t-2.4,2.051a50.848,50.848,0,0,1,5.008,4.653h-1.847q-1.057-1.11-2.273-2.242t-2.371-2.056v4.3Z" transform="translate(-414.023 -42.168)"/><path class="a" d="M474.34,61.457a4.176,4.176,0,0,1-2.211-.577,3.925,3.925,0,0,1-1.478-1.616,5.756,5.756,0,0,1,0-4.809,3.91,3.91,0,0,1,3.632-2.225h.169a3.588,3.588,0,0,1,2.042.582,3.776,3.776,0,0,1,1.346,1.638,6.027,6.027,0,0,1,.475,2.486v.479h-6.749a3.251,3.251,0,0,0,.892,2.016,2.646,2.646,0,0,0,1.949.746h.16a3.077,3.077,0,0,0,1.319-.284,2.949,2.949,0,0,0,1.025-.782l.9.915a4.069,4.069,0,0,1-1.43,1.048,4.49,4.49,0,0,1-1.856.382Zm-.088-7.957a2.423,2.423,0,0,0-1.821.746,3.334,3.334,0,0,0-.861,2.007H476.9a3.3,3.3,0,0,0-.706-1.963,2.172,2.172,0,0,0-1.781-.791Z" transform="translate(-427.816 -48.297)"/><path class="a" d="M500.1,57.481a3.232,3.232,0,0,1-2.274-.737,3.053,3.053,0,0,1-.8-2.344V49.756H495.29V48.539h1.741V45.848h1.4v2.691h3.126v1.217h-3.126V54.2a2.029,2.029,0,0,0,.484,1.549,1.983,1.983,0,0,0,1.381.44,5.685,5.685,0,0,0,.71-.04q.32-.039.666-.111v1.234q-.364.089-.773.147A5.735,5.735,0,0,1,500.1,57.481Z" transform="translate(-443.144 -44.409)"/><path class="a" d="M517.946,44.912a.956.956,0,0,1-.719-.275,1.081,1.081,0,0,1,0-1.421,1.078,1.078,0,0,1,1.439,0,1.081,1.081,0,0,1,0,1.421A.956.956,0,0,1,517.946,44.912Zm-.7,10.692V46.767h1.4V55.6Z" transform="translate(-456.342 -42.638)"/><path class="a" d="M529.452,61.262V52.426h1.4V54.1a3.842,3.842,0,0,1,1.261-1.372,3.207,3.207,0,0,1,1.785-.5h.177a2.849,2.849,0,0,1,2.327,1,4.369,4.369,0,0,1,.826,2.855v5.177h-1.4V56.289a3.478,3.478,0,0,0-.506-2.06,1.837,1.837,0,0,0-1.59-.693h-.169a2.4,2.4,0,0,0-1.683.639,3.8,3.8,0,0,0-1.026,1.608v5.479Z" transform="translate(-463.951 -48.297)"/><path class="a" d="M558.792,57.844a4.928,4.928,0,0,1-1.252-.151,1.354,1.354,0,0,0-.435.879q0,.764,1.092.764h2.1a3.968,3.968,0,0,1,2.372.581,1.961,1.961,0,0,1,.781,1.674,2.347,2.347,0,0,1-1.27,2.131,6.924,6.924,0,0,1-3.5.746,6.229,6.229,0,0,1-2.877-.559,1.791,1.791,0,0,1-1.066-1.67,1.824,1.824,0,0,1,.466-1.248,3.656,3.656,0,0,1,1.292-.893,1.4,1.4,0,0,1-.559-1.154,2.364,2.364,0,0,1,.755-1.607,2.779,2.779,0,0,1-1.092-1.124,3.251,3.251,0,0,1-.364-1.532,2.976,2.976,0,0,1,.95-2.291,3.7,3.7,0,0,1,2.61-.879h.16a4.094,4.094,0,0,1,2.1.515,1.86,1.86,0,0,1,1.812-.977,3.647,3.647,0,0,1,.675.071v1.163a2.44,2.44,0,0,0-.418-.075q-.177-.013-.311-.013a1.448,1.448,0,0,0-1.092.364,3.255,3.255,0,0,1-.159,4.4,3.677,3.677,0,0,1-2.611.879Zm-2.682,4.129q0,1.341,2.7,1.341a5.282,5.282,0,0,0,2.424-.444,1.339,1.339,0,0,0,.835-1.2q0-1.146-1.927-1.145h-2.469a2.771,2.771,0,0,0-1.141.573A1.143,1.143,0,0,0,556.111,61.973Zm2.691-5.284h.142a2.269,2.269,0,0,0,1.629-.546,2.15,2.15,0,0,0,0-2.922,2.269,2.269,0,0,0-1.629-.546H558.8a2.272,2.272,0,0,0-1.625.546,2.137,2.137,0,0,0,0,2.922A2.272,2.272,0,0,0,558.8,56.689Z" transform="translate(-479.349 -47.578)"/><path class="a" d="M594.554,55.964V43.531h5.062a4.712,4.712,0,0,1,3.406,1.092,4.418,4.418,0,0,1,0,5.888,4.714,4.714,0,0,1-3.406,1.092h-3.588v4.36Zm4.928-11.056h-3.454v5.31h3.454q3.153,0,3.153-2.646Q602.635,44.907,599.482,44.908Z" transform="translate(-503.601 -42.998)"/><path class="a" d="M626.6,61.431a3.092,3.092,0,0,1-2.162-.7,2.615,2.615,0,0,1,.089-3.788,4.1,4.1,0,0,1,2.757-.759h2.576V56q0-2.478-2.265-2.478a3.231,3.231,0,0,0-1.549.338,2.628,2.628,0,0,0-1.008.959l-.986-.746a3.609,3.609,0,0,1,1.434-1.363,4.4,4.4,0,0,1,2.083-.475h.177a3.473,3.473,0,0,1,2.549.928,3.685,3.685,0,0,1,.941,2.74v5.364h-1.359V59.62a3.607,3.607,0,0,1-1.341,1.336A3.847,3.847,0,0,1,626.6,61.431Zm.267-1.252a3.065,3.065,0,0,0,1.882-.555,3.288,3.288,0,0,0,1.11-1.505V57.3H627.35a2.943,2.943,0,0,0-1.745.391,1.269,1.269,0,0,0-.511,1.065,1.294,1.294,0,0,0,.444,1.048A2.032,2.032,0,0,0,626.871,60.179Z" transform="translate(-521.336 -48.297)"/><path class="a" d="M650.841,61.262V52.426h1.4v1.536a3.329,3.329,0,0,1,1.066-1.283,2.572,2.572,0,0,1,1.5-.448,3.734,3.734,0,0,1,.782.08v1.4q-.2-.026-.44-.044t-.457-.018a2.138,2.138,0,0,0-1.567.591,3.538,3.538,0,0,0-.884,1.576v5.444Z" transform="translate(-537.882 -48.297)"/><path class="a" d="M671.554,57.481a3.233,3.233,0,0,1-2.274-.737,3.053,3.053,0,0,1-.8-2.344V49.756h-1.741V48.539h1.741V45.848h1.4v2.691h3.126v1.217h-3.126V54.2a2.027,2.027,0,0,0,.484,1.549,1.982,1.982,0,0,0,1.38.44,5.685,5.685,0,0,0,.71-.04c.214-.026.435-.063.666-.111v1.234q-.364.089-.773.147A5.735,5.735,0,0,1,671.554,57.481Z" transform="translate(-547.566 -44.409)"/><path class="a" d="M689.138,61.262V52.426h1.4V54.1a3.846,3.846,0,0,1,1.261-1.372,3.206,3.206,0,0,1,1.785-.5h.177a2.851,2.851,0,0,1,2.327,1,4.372,4.372,0,0,1,.826,2.855v5.177h-1.4V56.289a3.476,3.476,0,0,0-.506-2.06,1.837,1.837,0,0,0-1.59-.693h-.169a2.4,2.4,0,0,0-1.682.639,3.782,3.782,0,0,0-1.026,1.608v5.479Z" transform="translate(-561.207 -48.297)"/><path class="a" d="M719.773,61.457a4.174,4.174,0,0,1-2.211-.577,3.924,3.924,0,0,1-1.479-1.616,5.758,5.758,0,0,1,0-4.809,3.911,3.911,0,0,1,3.632-2.225h.169a3.59,3.59,0,0,1,2.043.582,3.775,3.775,0,0,1,1.345,1.638,6.014,6.014,0,0,1,.475,2.486v.479h-6.749a3.25,3.25,0,0,0,.893,2.016,2.645,2.645,0,0,0,1.949.746H720a3.073,3.073,0,0,0,1.319-.284,2.949,2.949,0,0,0,1.026-.782l.9.915a4.057,4.057,0,0,1-1.43,1.048,4.488,4.488,0,0,1-1.856.382Zm-.089-7.957a2.421,2.421,0,0,0-1.82.746A3.333,3.333,0,0,0,717,56.254h5.329a3.3,3.3,0,0,0-.706-1.963,2.17,2.17,0,0,0-1.78-.791Z" transform="translate(-577.296 -48.297)"/><path class="a" d="M743.267,61.262V52.426h1.4v1.536a3.325,3.325,0,0,1,1.066-1.283,2.572,2.572,0,0,1,1.5-.448,3.733,3.733,0,0,1,.781.08v1.4q-.2-.026-.44-.044t-.457-.018a2.138,2.138,0,0,0-1.567.591,3.538,3.538,0,0,0-.884,1.576v5.444Z" transform="translate(-594.174 -48.297)"/><path class="a" d="M762.981,61.457a4.32,4.32,0,0,1-3.836-1.732l.977-.852a3.242,3.242,0,0,0,2.851,1.35h.16a2.866,2.866,0,0,0,1.523-.342,1.143,1.143,0,0,0,.177-1.816,2.773,2.773,0,0,0-1.247-.5l-1.6-.329q-2.54-.515-2.54-2.371a2.292,2.292,0,0,1,.946-1.914,3.99,3.99,0,0,1,2.491-.724h.178a3.808,3.808,0,0,1,3.374,1.643l-.977.791a2.71,2.71,0,0,0-1.039-.915,3.164,3.164,0,0,0-1.377-.284h-.16a2.826,2.826,0,0,0-1.479.342,1.057,1.057,0,0,0-.564.946.914.914,0,0,0,.347.75,2.792,2.792,0,0,0,1.154.448l1.75.364a3.808,3.808,0,0,1,1.843.861,2.164,2.164,0,0,1,.661,1.669,2.305,2.305,0,0,1-.9,1.887,3.936,3.936,0,0,1-2.526.724Z" transform="translate(-603.845 -48.297)"/></g></svg>