<svg xmlns="http://www.w3.org/2000/svg" width="200.074" height="48.159" viewBox="0 0 200.074 48.159"><defs><style>.a{fill:#3d1152;}</style></defs><g transform="translate(-167.702 -701.321)"><path class="a" d="M395.016,817.831l1.821-1.821,1.82,1.821-1.82,1.821Zm9.073-.014,1.82-1.82,1.821,1.82-1.821,1.821Zm-4.564-.007,1.821-1.82,1.82,1.82-1.82,1.82Zm-2.244-2.244,1.821-1.82,1.82,1.82-1.82,1.82Zm4.522-.035,1.821-1.821,1.82,1.821-1.82,1.82Zm-2.244-2.244,1.821-1.821,1.82,1.821-1.82,1.82Zm-4.557,0,1.821-1.821,1.82,1.821-1.82,1.82Zm9.052-.007,1.821-1.82,1.821,1.82-1.821,1.821Zm-2.243-2.244,1.82-1.82,1.821,1.82-1.821,1.82Zm-4.529-.028,1.821-1.82,1.82,1.82-1.82,1.821Zm2.251-2.251,1.821-1.82,1.82,1.82-1.82,1.821Zm4.564-.007,1.821-1.821,1.821,1.821-1.821,1.82Zm-9.107-.035,1.82-1.82,1.82,1.82-1.82,1.82Z" transform="translate(-151.067 -70.171)"/><g transform="translate(259.193 739.259)"><path class="a" d="M446.251,815.856h-2.085V821h-1.552v-5.142h-2.085v-1.4h5.722Z" transform="translate(-440.529 -814.454)"/></g><g transform="translate(265.708 738.979)"><path class="a" d="M464.726,817.666v2.777h-1.5v-2.478c0-.626-.261-1.038-.851-1.038s-.926.458-.926,1.187v2.328h-1.5v-6.825h1.5v2.552a1.83,1.83,0,0,1,1.412-.627C464.137,815.544,464.726,816.4,464.726,817.666Z" transform="translate(-459.958 -813.618)"/></g><g transform="translate(271.354 740.904)"><path class="a" d="M476.794,821.885a2.425,2.425,0,0,1,2.524-2.524,2.357,2.357,0,0,1,2.5,2.469,2.854,2.854,0,0,1-.038.5h-3.524c.094.449.421.823,1.187.823a.986.986,0,0,0,.953-.486l1.346.393a2.5,2.5,0,0,1-2.328,1.337A2.441,2.441,0,0,1,476.794,821.885Zm3.562-.458a.972.972,0,0,0-1.047-.813,1.02,1.02,0,0,0-1.056.813Z" transform="translate(-476.794 -819.36)"/></g><g transform="translate(279.383 739.128)"><path class="a" d="M500.738,817.467a3.34,3.34,0,0,1,3.431-3.4,3.151,3.151,0,0,1,3.207,2.2l-1.515.374a1.709,1.709,0,0,0-1.682-1.112,1.829,1.829,0,0,0-1.851,1.935,1.86,1.86,0,0,0,1.851,1.954,1.684,1.684,0,0,0,1.682-1.094l1.515.384a3.121,3.121,0,0,1-3.179,2.169A3.347,3.347,0,0,1,500.738,817.467Z" transform="translate(-500.738 -814.064)"/></g><g transform="translate(286.628 740.904)"><path class="a" d="M522.341,821.875a2.562,2.562,0,1,1,2.561,2.515A2.47,2.47,0,0,1,522.341,821.875Zm3.674,0a1.114,1.114,0,1,0-1.113,1.169A1.085,1.085,0,0,0,526.015,821.875Z" transform="translate(-522.341 -819.36)"/></g><g transform="translate(292.601 738.979)"><path class="a" d="M540.153,813.618h1.5v6.825h-1.5Z" transform="translate(-540.153 -813.618)"/></g><g transform="translate(295.302 738.979)"><path class="a" d="M548.209,813.618h1.5v6.825h-1.5Z" transform="translate(-548.209 -813.618)"/><path class="a" d="M555.289,821.885a2.425,2.425,0,0,1,2.524-2.524,2.357,2.357,0,0,1,2.5,2.469,2.891,2.891,0,0,1-.037.5h-3.524c.094.449.421.823,1.187.823a.986.986,0,0,0,.954-.486l1.346.393a2.5,2.5,0,0,1-2.328,1.337A2.441,2.441,0,0,1,555.289,821.885Zm3.562-.458a.972.972,0,0,0-1.047-.813,1.019,1.019,0,0,0-1.056.813Z" transform="translate(-552.915 -817.435)"/></g><g transform="translate(303.295 738.801)"><path class="a" d="M572.042,821.875a2.463,2.463,0,0,1,2.534-2.515,2.356,2.356,0,0,1,2.384,1.618l-1.384.392a.994.994,0,0,0-.991-.692,1.1,1.1,0,0,0-1.085,1.187,1.127,1.127,0,0,0,1.085,1.206.981.981,0,0,0,.991-.673l1.384.393a2.336,2.336,0,0,1-2.366,1.6A2.467,2.467,0,0,1,572.042,821.875Z" transform="translate(-572.042 -817.257)"/><path class="a" d="M591.52,821.4a3,3,0,0,1-1.169.233,1.569,1.569,0,0,1-1.683-1.795V818.1h-.738v-1.309h.738v-1.5h1.5v1.5h1.281V818.1h-1.281v1.739a.44.44,0,0,0,.5.5,1.008,1.008,0,0,0,.505-.121Z" transform="translate(-582.602 -814.552)"/><path class="a" d="M600.78,813.92a.86.86,0,1,1,.86.851A.846.846,0,0,1,600.78,813.92Zm.094,1.4h1.5v4.768h-1.5Z" transform="translate(-591.143 -813.088)"/></g><g transform="translate(315.194 741.035)"><path class="a" d="M613.06,819.751l-1.925,4.768h-1.683l-1.926-4.768h1.646l1.122,3.066,1.131-3.066Z" transform="translate(-607.526 -819.751)"/></g><g transform="translate(320.84 740.904)"><path class="a" d="M624.362,821.885a2.425,2.425,0,0,1,2.524-2.524,2.357,2.357,0,0,1,2.5,2.469,2.861,2.861,0,0,1-.038.5H625.82c.094.449.421.823,1.187.823a.986.986,0,0,0,.954-.486l1.346.393a2.494,2.494,0,0,1-2.327,1.337A2.44,2.44,0,0,1,624.362,821.885Zm3.562-.458a.972.972,0,0,0-1.047-.813,1.019,1.019,0,0,0-1.056.813Z" transform="translate(-624.362 -819.36)"/></g><g transform="translate(209.875 739.362)"><path class="a" d="M298.492,816.874a2.081,2.081,0,0,1-2.178,2.1H294.2V821.3h-.738v-6.544h2.889A2.1,2.1,0,0,1,298.492,816.874Zm-.72,0a1.42,1.42,0,0,0-1.44-1.431H294.2v2.86H296.3A1.417,1.417,0,0,0,297.773,816.874Z" transform="translate(-293.463 -814.761)"/></g><g transform="translate(215.315 741.129)"><path class="a" d="M309.686,822.47a2.338,2.338,0,0,1,2.356-2.44,2.108,2.108,0,0,1,1.842.953v-.841h.72v4.665h-.72v-.851a2.082,2.082,0,0,1-1.842.972A2.354,2.354,0,0,1,309.686,822.47Zm4.216.009a1.758,1.758,0,0,0-1.758-1.8,1.8,1.8,0,0,0,0,3.59A1.759,1.759,0,0,0,313.9,822.479Z" transform="translate(-309.686 -820.03)"/></g><g transform="translate(221.728 741.165)"><path class="a" d="M331.2,820.157v.673c-1.01-.131-1.673.4-1.673,1.87v2.178h-.72v-4.665h.72v.8A1.491,1.491,0,0,1,331.2,820.157Z" transform="translate(-328.808 -820.137)"/></g><g transform="translate(224.654 739.633)"><path class="a" d="M340.8,821.7a2.36,2.36,0,0,1-.972.206c-.935,0-1.365-.589-1.365-1.487v-2.59h-.925v-.654h.925v-1.608h.72v1.608h1.6v.654h-1.6v2.59c0,.524.243.823.757.823a1.335,1.335,0,0,0,.664-.159Z" transform="translate(-337.533 -815.569)"/></g><g transform="translate(231.29 741.129)"><path class="a" d="M357.324,822.47a2.463,2.463,0,1,1,2.468,2.459A2.4,2.4,0,0,1,357.324,822.47Zm4.216.009a1.758,1.758,0,1,0-1.748,1.785A1.733,1.733,0,0,0,361.54,822.479Z" transform="translate(-357.324 -820.03)"/></g><g transform="translate(236.973 738.96)"><path class="a" d="M375.963,815.844h1.673v.654h-1.673v4.011h-.711V816.5h-.982v-.654h.982v-.617c0-1.038.486-1.664,1.468-1.664a2.033,2.033,0,0,1,.944.2l-.187.608a1.421,1.421,0,0,0-.691-.159c-.552,0-.823.374-.823,1.038Z" transform="translate(-374.271 -813.563)"/></g><g transform="translate(167.702 705.359)"><path class="a" d="M184.568,717.5h-6.146v15.158h-4.575V717.5H167.7v-4.134h16.866Z" transform="translate(-167.702 -713.362)"/></g><g transform="translate(185.229 710.351)"><path class="a" d="M228.788,728.3v4.134c-2.977-.5-4.41.772-4.41,4.245v5.87h-4.409V728.493h4.409v1.9A4.09,4.09,0,0,1,228.788,728.3Z" transform="translate(-219.969 -728.248)"/></g><g transform="translate(194.737 710.209)"><path class="a" d="M248.321,735.24c0-4.272,3.031-7.414,6.835-7.414a5.3,5.3,0,0,1,4.051,1.682v-1.3h4.409v14.055h-4.409v-1.3a5.4,5.4,0,0,1-4.051,1.681C251.352,742.653,248.321,739.511,248.321,735.24Zm11-.028a3.286,3.286,0,0,0-3.362-3.473,3.508,3.508,0,0,0,0,7A3.317,3.317,0,0,0,259.317,735.212Z" transform="translate(-248.321 -727.826)"/></g><path class="a" d="M326.547,730.25h-4.409v-10.2h-4.961v10.2h-4.409v-10.2h-4.961v10.2H303.4v-10.2h-2.563v-3.858H303.4V715.2c0-3.307,1.874-5.457,5.484-5.457a7.79,7.79,0,0,1,3.307.606l-1.047,3.5a3.634,3.634,0,0,0-1.571-.3,1.682,1.682,0,0,0-1.764,1.654v.992h4.961V715.2c0-3.307,2.012-5.457,5.9-5.457a9.744,9.744,0,0,1,5.126,1.213l-1.047,3.5a7.12,7.12,0,0,0-3.555-.909,1.81,1.81,0,0,0-2.012,1.654v.992h9.37Zm2.4-7.028a7.26,7.26,0,0,1,7.469-7.414c4.023,0,6.5,2.563,7.027,4.768l-4.079,1.158a2.931,2.931,0,0,0-2.921-2.039,3.258,3.258,0,0,0-3.2,3.5,3.321,3.321,0,0,0,3.2,3.555,2.891,2.891,0,0,0,2.921-1.984l4.079,1.158c-.523,2.2-3,4.713-6.972,4.713A7.273,7.273,0,0,1,328.944,723.223Z" transform="translate(-88.487 -5.6)"/><g transform="translate(264.433 705.359)"><path class="a" d="M474.181,723.008c0,5.595-3.61,9.646-9.122,9.646h-8.9V713.362h8.9C470.488,713.362,474.181,717.275,474.181,723.008Zm-4.63-.082c0-3.39-2.012-5.457-4.6-5.457h-4.272v11.079h4.272C467.539,728.548,469.551,726.315,469.551,722.925Z" transform="translate(-456.157 -713.362)"/></g><g transform="translate(284.937 704.008)"><path class="a" d="M517.3,711.788a2.536,2.536,0,1,1,2.536,2.508A2.495,2.495,0,0,1,517.3,711.788Zm.276,4.134h4.41v14.056h-4.41Z" transform="translate(-517.299 -709.335)"/></g><g transform="translate(292.378 704.008)"><path class="a" d="M554.646,728.212v13.532c0,3.941-2.866,6.7-7.386,6.7-3.5,0-5.65-1.571-6.807-3.666l3.8-1.378a3.4,3.4,0,0,0,3.114,1.461c1.957,0,2.866-1.323,2.866-3.087v-1.35a5.128,5.128,0,0,1-3.886,1.681,6.843,6.843,0,0,1-6.862-7.138c0-4.272,2.866-7.138,6.862-7.138a5.127,5.127,0,0,1,3.886,1.682v-1.3Zm-4.3,6.752a3.252,3.252,0,1,0-3.224,3.2A3.031,3.031,0,0,0,550.346,734.964Z" transform="translate(-539.488 -721.625)"/><path class="a" d="M594.3,711.788a2.536,2.536,0,1,1,2.535,2.508A2.494,2.494,0,0,1,594.3,711.788Zm.276,4.134h4.409v14.056h-4.409Z" transform="translate(-575.921 -709.335)"/></g><g transform="translate(317.677 706.185)"><path class="a" d="M625.513,733.824a8.834,8.834,0,0,1-3.445.689c-3.418,0-4.961-2.094-4.961-5.291v-5.126H614.93v-3.858h2.177v-4.41h4.409v4.41h3.776v3.858h-3.776v5.126a1.3,1.3,0,0,0,1.461,1.461,2.977,2.977,0,0,0,1.488-.358Z" transform="translate(-614.93 -715.827)"/></g><g transform="translate(329.362 710.209)"><path class="a" d="M649.775,735.24c0-4.272,3.032-7.414,6.835-7.414a5.3,5.3,0,0,1,4.051,1.682v-1.3h4.409v14.055h-4.409v-1.3a5.4,5.4,0,0,1-4.051,1.681C652.807,742.653,649.775,739.511,649.775,735.24Zm11-.028a3.286,3.286,0,0,0-3.362-3.473,3.508,3.508,0,0,0,0,7A3.317,3.317,0,0,0,660.771,735.212Z" transform="translate(-649.775 -727.826)"/></g><g transform="translate(348.24 704.532)"><path class="a" d="M706.069,710.9h4.41v20.119h-4.41Z" transform="translate(-706.069 -710.896)"/></g><g transform="translate(361.333 701.321)"><path class="a" d="M750.614,702.264a3.221,3.221,0,1,1-4.556,0,3.221,3.221,0,0,1,4.556,0" transform="translate(-745.115 -701.321)"/><path class="a" d="M750.614,727.622a3.221,3.221,0,1,1-4.556,0,3.222,3.222,0,0,1,4.556,0" transform="translate(-745.115 -718.175)"/><path class="a" d="M750.614,752.98a3.221,3.221,0,1,1-4.556,0,3.221,3.221,0,0,1,4.556,0" transform="translate(-745.115 -735.029)"/></g></g></svg>