<svg xmlns="http://www.w3.org/2000/svg" width="21.553" height="32.937" viewBox="0 0 21.553 32.937"><defs><style>.a{fill:#3d1152;}</style></defs><g transform="translate(-79 -16.5)"><path class="a" d="M89.777,49.437A10.789,10.789,0,0,1,79,38.66V27.277a10.777,10.777,0,1,1,21.553,0V38.66A10.789,10.789,0,0,1,89.777,49.437Zm0-31.305a9.155,9.155,0,0,0-9.145,9.145V38.66a9.145,9.145,0,1,0,18.29,0V27.277A9.155,9.155,0,0,0,89.777,18.132Z"/><path class="a" d="M145.441,72.6a.817.817,0,0,1-.816-.816V64.191a.816.816,0,0,1,1.632,0V71.78A.817.817,0,0,1,145.441,72.6Z" transform="translate(-55.664 -39.76)"/></g></svg>