<svg xmlns="http://www.w3.org/2000/svg" width="162.346" height="17.847" viewBox="0 0 162.346 17.847"><defs><style>.a{fill:#3d1152;}</style></defs><path class="a" d="M212.711,386.083v2.262a.232.232,0,0,1-.246.246h-9.71v4.622h8.014a.232.232,0,0,1,.246.246v2.262a.232.232,0,0,1-.246.246h-8.014V402.8a.232.232,0,0,1-.246.246h-2.434a.232.232,0,0,1-.246-.246V386.083a.232.232,0,0,1,.246-.246h12.39A.232.232,0,0,1,212.711,386.083Z" transform="translate(-199.83 -385.517)"/><path class="a" d="M333.94,403.045h-2.679a.268.268,0,0,1-.283-.221c-.357-1.413-.787-2.9-1.278-4.4h-8.223c-.491,1.5-.922,2.987-1.266,4.4a.268.268,0,0,1-.283.221h-2.581c-.172,0-.271-.1-.221-.27a114.452,114.452,0,0,1,6.293-16.618.47.47,0,0,1,.479-.32h3.491a.47.47,0,0,1,.479.32,112.529,112.529,0,0,1,6.293,16.618C334.211,402.946,334.112,403.045,333.94,403.045Zm-5.15-7.277c-.9-2.483-1.893-4.966-2.913-7.227H325.3c-1.02,2.262-2.028,4.744-2.925,7.227Z" transform="translate(-301.246 -385.517)"/><path class="a" d="M474.014,392.546c0-5.335,3.515-9.071,8.53-9.071h.369a7.654,7.654,0,0,1,6.871,3.908.217.217,0,0,1-.086.344l-2.163,1.069a.3.3,0,0,1-.43-.111,4.572,4.572,0,0,0-4.289-2.409h-.369c-3.159,0-5.335,2.507-5.335,6.146s2.139,6.1,5.335,6.1h.369a5.047,5.047,0,0,0,4.191-1.77.312.312,0,0,1,.406-.086l2.225,1.082a.2.2,0,0,1,.123.172.324.324,0,0,1-.074.184,8.034,8.034,0,0,1-6.822,3.22h-.369C477.394,401.322,474.014,397.819,474.014,392.546Z" transform="translate(-436.92 -383.475)"/><path class="a" d="M649.669,400.537V402.8a.232.232,0,0,1-.246.246H636.518a.232.232,0,0,1-.246-.246V386.083a.232.232,0,0,1,.246-.246H649.2a.232.232,0,0,1,.246.246v2.262a.232.232,0,0,1-.246.246H639.2v4.474h8.137a.233.233,0,0,1,.246.246v2.237a.232.232,0,0,1-.246.246H639.2v4.5h10.226A.232.232,0,0,1,649.669,400.537Z" transform="translate(-577.226 -385.517)"/><path class="a" d="M803.085,398.325c0,3.011-2.311,4.72-6.392,4.72h-8.456a.232.232,0,0,1-.246-.246V386.083a.232.232,0,0,1,.246-.246h7.707c3.97,0,6.133,1.573,6.133,4.449a3.6,3.6,0,0,1-2.9,3.712C801.9,394.576,803.085,396.211,803.085,398.325Zm-7.2-9.808h-4.966v4.621h4.966c2.225,0,3.245-.725,3.245-2.311S798.107,388.517,795.882,388.517Zm4.2,9.55c0-1.6-1.057-2.323-3.38-2.323h-5.789v4.622h5.789C799.066,400.365,800.085,399.677,800.085,398.067Z" transform="translate(-708.42 -385.517)"/><path class="a" d="M937.62,392.4c0-5.187,3.442-8.923,8.85-8.923h.369c5.408,0,8.85,3.736,8.85,8.923s-3.441,8.923-8.85,8.923h-.369C941.061,401.322,937.62,397.585,937.62,392.4Zm9.218,6.121c3.528,0,5.752-2.421,5.752-6.121s-2.225-6.121-5.752-6.121h-.369c-3.527,0-5.752,2.421-5.752,6.121s2.225,6.121,5.752,6.121Z" transform="translate(-837.806 -383.475)"/><path class="a" d="M1108.054,392.4c0-5.187,3.441-8.923,8.85-8.923h.369c5.408,0,8.849,3.736,8.849,8.923s-3.442,8.923-8.849,8.923h-.369C1111.5,401.322,1108.054,397.585,1108.054,392.4Zm9.219,6.121c3.527,0,5.752-2.421,5.752-6.121s-2.225-6.121-5.752-6.121h-.369c-3.528,0-5.753,2.421-5.753,6.121s2.224,6.121,5.753,6.121Z" transform="translate(-985.182 -383.475)"/><path class="a" d="M1302.162,403.045h-3.171a.467.467,0,0,1-.43-.209,67.229,67.229,0,0,0-7.092-7.141h-1.426v7.1a.233.233,0,0,1-.246.246h-2.434a.232.232,0,0,1-.246-.246V386.083a.232.232,0,0,1,.246-.246h2.434a.233.233,0,0,1,.246.246v6.785h1.45a52.811,52.811,0,0,0,6.416-6.846.4.4,0,0,1,.369-.184h3c.148,0,.221.074.221.172a.3.3,0,0,1-.086.184,61.266,61.266,0,0,1-7.682,7.989,74.065,74.065,0,0,1,8.567,8.555C1302.432,402.9,1302.359,403.045,1302.162,403.045Z" transform="translate(-1140.021 -385.517)"/></svg>