<svg xmlns="http://www.w3.org/2000/svg" width="23.161" height="23.162" viewBox="0 0 23.161 23.162"><path d="M15.924,0H7.238A7.239,7.239,0,0,0,0,7.238v8.686a7.239,7.239,0,0,0,7.238,7.238h8.686a7.239,7.239,0,0,0,7.238-7.238V7.238A7.239,7.239,0,0,0,15.924,0ZM20.99,15.924a5.072,5.072,0,0,1-5.067,5.067H7.238a5.072,5.072,0,0,1-5.067-5.067V7.238A5.072,5.072,0,0,1,7.238,2.171h8.686A5.072,5.072,0,0,1,20.99,7.238Z"/><g transform="translate(5.79 5.79)"><path d="M133.79,128a5.79,5.79,0,1,0,5.79,5.79A5.791,5.791,0,0,0,133.79,128Zm0,9.409a3.619,3.619,0,1,1,3.619-3.619A3.624,3.624,0,0,1,133.79,137.409Z" transform="translate(-128 -128)"/></g><g transform="translate(17.034 4.585)"><circle cx="0.772" cy="0.772" r="0.772"/></g></svg>