<svg xmlns="http://www.w3.org/2000/svg" width="62.183" height="69.499" viewBox="0 0 62.183 69.499"><path d="M44.956,68.135a1.385,1.385,0,1,0-2.77-.007v3.7h2.77Zm-.566,3.132H42.753V68.135a.819.819,0,0,1,1.637,0h0Zm.566,4.172a1.385,1.385,0,1,0-2.77-.007v3.7h2.77Zm-.566,3.131H42.753V75.439a.819.819,0,1,1,1.637,0h0Zm4.827-10.435a1.385,1.385,0,0,0-2.77,0v3.7h2.77Zm-.566,3.132H47.013V68.135a.819.819,0,0,1,1.638,0h0Zm.566,4.172a1.385,1.385,0,1,0-2.77-.007v3.7h2.77Zm-.566,3.131H47.013V75.439a.819.819,0,1,1,1.638,0ZM82.106,68.135a1.385,1.385,0,0,0-2.77,0v3.7h2.77Zm-.566,3.132H79.9V68.135a.819.819,0,0,1,1.638,0Zm.566,4.172a1.385,1.385,0,0,0-2.77,0v3.7h2.77Zm-.566,3.131H79.9V75.439a.819.819,0,1,1,1.638,0v3.133Zm4.823-10.435a1.385,1.385,0,0,0-2.77,0v3.7h2.77ZM85.8,71.266H84.159V68.135a.819.819,0,0,1,1.638,0Zm.566,4.172a1.385,1.385,0,1,0-2.77-.008v3.7h2.77ZM85.8,78.569H84.159V75.439a.819.819,0,0,1,1.638,0v3.134ZM62.85,81.893a1.385,1.385,0,1,0,1.385-1.386h0A1.387,1.387,0,0,0,62.85,81.893Zm2.2,0a.819.819,0,1,1-.819-.819A.819.819,0,0,1,65.054,81.893ZM94.425,46l.939-2.54h-1.4V37.669l.938-2.538H93.776V30.893h-.063l-1.241-4.847V23.824h-.566v2.222l-1.278,4.848h-.065v4.238H89.477l.9,2.435v5.892H89.01l.942,2.549v1.421a30.118,30.118,0,0,0-41.415-9.95q-.859.526-1.682,1.109a2.461,2.461,0,0,0-4.281-.011,1.907,1.907,0,1,0-.406,3.77h.345a30.255,30.255,0,0,0-3.92,5.082V46.007l.942-2.549H38.168V37.566l.9-2.435H37.983V30.893h-.065L36.64,26.046V23.824h-.566v2.222l-1.241,4.847h-.063v4.238H33.645l.938,2.538v5.789h-1.4L34.12,46v2.154h-.543v.566h.543v1.867h-.543v.566h.543V63.181h.013a30.146,30.146,0,0,0,60.292,0V51.152h.543v-.566h-.543V48.719h.543v-.566h-.543Zm-2.241-18.79.944,3.685H91.213Zm-1.056,4.251H93.21v3.665H91.129ZM90.29,35.7h3.8l-.606,1.638H90.9ZM93.4,37.9v5.556H90.943V37.9ZM90.21,55.845c.433,0,.908.933.972,2.219H89.239C89.3,56.779,89.777,55.845,90.21,55.845Zm1.081,5.361.645,1.266H88.569l.563-1.266Zm-2.06-.566V58.63h1.944v2.01ZM42.168,41.78a1.341,1.341,0,1,1,.456-2.6l.248.09.107-.24a1.9,1.9,0,0,1,3.576.331l.075.319.3-.121a1.17,1.17,0,0,1,.431-.083,1.153,1.153,0,0,1,0,2.306ZM36.361,27.208l.971,3.685H35.417Zm-1.025,4.251h2.081v3.665H35.336ZM34.458,35.7h3.8l-.606,1.638H35.064ZM37.6,37.9v5.556H35.149V37.9Zm-3.609,6.123h4.729l-.606,1.638H34.6Zm5.42,17.182.563,1.266H36.6l.657-1.266Zm-2.061-.566V58.63H39.3v2.01Zm.008-2.576c.064-1.286.539-2.219.971-2.219s.908.933.972,2.219Zm.667-9.345v1.867H34.686V48.719Zm-3.341-.566V46.229h3.341v1.924Zm1.286,14.32v9.284A29.46,29.46,0,0,1,34.7,63.181h-.013V51.152h3.341v4.184c-.682.249-1.171,1.327-1.232,2.728h-.009v.186c0,.034,0,.064,0,.1h0v2.517l-.809,1.609Zm4.158,17.754a29.508,29.508,0,0,1-3.591-6.785v-10.4h3.591Zm-.266-19.4V58.63h1.354v3.842H40.6Zm3.252,22.989a29.877,29.877,0,0,1-2.158-2.474h2.158Zm1.9,1.781q-.684-.588-1.333-1.217V81.34h1.333Zm1.9,1.5c-.453-.33-.9-.668-1.332-1.023V81.34h1.332Zm1.9,1.276c-.453-.278-.9-.571-1.332-.873V81.34H48.81Zm1.9,1.069q-.676-.35-1.332-.734V81.34h1.332Zm0-8.672H40.7V63.039H50.707Zm-8.924-18.3V58.63h1.332v3.842Zm1.9,0V58.63h1.333v3.842Zm1.9,0V58.63h1.332v3.842Zm1.9,0V58.63H48.81v3.842Zm3.23,0H49.376V58.63h1.332Zm9.221,29.959c-.551-.081-1.1-.176-1.638-.287V89.511a.819.819,0,0,1,1.638,0v2.923Zm10.251-.271c-.54.11-1.088.2-1.638.282V89.511a.819.819,0,1,1,1.638,0Zm2.2-.547q-.811.232-1.638.418V89.511a1.385,1.385,0,0,0-2.77,0v3a28.694,28.694,0,0,1-7.481-.009V89.511a1.385,1.385,0,0,0-2.77-.007v2.51q-.854-.194-1.687-.436h.049V86.859h16.3Zm-11.89-6.586H72.375v1.266H56.085V85.027Zm-2.2-.566V81.33a.819.819,0,0,1,1.638,0v3.13Zm10.251,0V81.33a.819.819,0,1,1,1.638,0v3.13Zm3.843,0H70.745V81.33a1.385,1.385,0,0,0-2.77,0v3.13H60.494V81.33a1.385,1.385,0,0,0-2.77,0v3.13H56.085V79.375a18.166,18.166,0,0,1,16.3,0Zm4.9,5.27a29.388,29.388,0,0,1-4.332,1.722V79.025l-.156-.078a18.754,18.754,0,0,0-17.119,0l-.156.078v5.436h-.027v2.4h.027V91.43a29.408,29.408,0,0,1-4.246-1.694v-14.5H77.282Zm0-15.065H51.274V73.4H77.282ZM54.531,46.278v2.01H52.588v-2.01ZM52.6,45.712c.064-1.286.539-2.22.971-2.22a.452.452,0,0,1,.3.144,3.239,3.239,0,0,1,.674,2.076Zm2.052,3.142.563,1.266H51.925l.563-1.266Zm19.785-2.576h1.636v2.01H74.125v-2.01Zm-.3-.566c.064-1.286.539-2.22.971-2.22s.907.934.971,2.22Zm2.052,3.142.563,1.266H73.463l.563-1.266ZM73.5,58.064V50.686h3.4v7.378Zm1.885.566v3.843H74.051V58.63Zm-8.47-.566h-11a9.125,9.125,0,0,1,16.787,0Zm5.239,12.487h1.332v2.282H72.154Zm-14.99-.566a7.544,7.544,0,0,1,14.284,0Zm12.526.566v2.282H68.357V70.551Zm-1.9,0v2.282H66.459V70.551Zm-1.9,0v2.282H64.561V70.551Zm-1.9,0v2.282H62.663V70.551Zm-1.9,0v2.282H60.765V70.551Zm-1.9,0v2.282H58.867V70.551Zm-1.9,0v2.282H56.969V70.551Zm11.955,0h1.332v2.282H70.256ZM64.305,64.3a8.149,8.149,0,0,0-7.337,4.644v-5.91H71.587v5.8A8.154,8.154,0,0,0,64.305,64.3Zm-7.337-1.832V58.63H58.3v3.842Zm1.9,0V58.63H60.2v3.842Zm1.9,0V58.63H62.1v3.842Zm1.9,0V58.63H64v3.842Zm1.9,0V58.63h1.332v3.842Zm1.9,0V58.63h1.332v3.842Zm1.9,0V58.63h1.333v3.842Zm1.9,0V58.63h1.332v3.842Zm2.678-11.787v6.546a9.691,9.691,0,0,0-17.172-.162V50.686ZM56.969,50.12V46.278H58.3V50.12Zm1.9,0V46.278H60.2V50.12Zm1.9,0V46.278H62.1V50.12Zm1.9,0V46.278H64V50.12Zm1.9,0V46.278h1.332V50.12Zm1.9,0V46.278h1.332V50.12Zm1.9,0V46.278h1.333V50.12Zm1.9,0V46.278h1.332V50.12Zm1.9,0V46.278h1.405v2.232l-.716,1.609Zm-15.751,0H55.83L55.1,48.472V46.278H56.4Zm0,8.51v3.842H55.07V58.63Zm15.751,0h1.332v3.842H72.154Zm1.414-12.918H55.108a4.6,4.6,0,0,0-.51-2.043,11.645,11.645,0,0,1,19.454.048,4.615,4.615,0,0,0-.484,1.995ZM55.2,50.686v7.378H51.733V50.686ZM54.5,58.63v3.842H53.172V58.63Zm-1.9,0v3.842H51.274V58.63Zm3.8,4.409v6.946H55.07V69.1h-.008c-.037-1.269-.477-2.254-1.094-2.486V65.267H53.4v1.348c-.617.232-1.057,1.216-1.094,2.486H52.3v3.733H51.274V63.039Zm0,7.512v2.282H55.116V70.551Zm-1.9-.884v3.156H52.866V69.667Zm-1.63-.566c.04-1.206.492-1.972.812-1.972s.771.766.811,1.972Zm22.816.566v3.156H74.057V69.667Zm-1.63-.566c.041-1.206.492-1.972.812-1.972s.771.766.811,1.972Zm3.223,3.733H76.256V69.1h-.008c-.037-1.269-.477-2.254-1.094-2.486V65.267h-.566v1.348c-.617.232-1.057,1.216-1.094,2.486h-.009v.884H72.154V63.039h5.129Zm0-10.361H75.95V58.63h1.332Zm.086-12.353-.733-1.648V46h.019c0-1.562-.532-2.774-1.274-3.018V41.63h-.566v1.35a1.136,1.136,0,0,0-.4.259,12.141,12.141,0,0,0-9.82-5.346V35.334h-.566v2.56a12.161,12.161,0,0,0-9.8,5.311,1.092,1.092,0,0,0-.386-.221V41.63h-.566v1.35c-.689.238-1.186,1.319-1.247,2.731h-.009V45.9c0,.033,0,.064,0,.1h0v2.515l-.716,1.609h-.139v7.944h-11.3c-.061-1.43-.573-2.518-1.275-2.736V51.152h.514v-.566h-.514V48.719h.514v-.566h-.3a29.69,29.69,0,0,1,4.479-5.807h4.076a1.718,1.718,0,0,0,.016-3.436,29.344,29.344,0,0,1,16.891-5.3A29.64,29.64,0,0,1,89.732,48.153h-.294v.566h.514v1.867h-.514v.566h.514v4.175c-.7.217-1.217,1.3-1.279,2.737H77.462V50.12Zm9.405,8.51v3.842H85.44V58.63Zm-1.9,0v3.842H83.542V58.63Zm-1.9,0v3.842H81.645V58.63Zm-1.9,0v3.842H79.746V58.63Zm-1.9,0v3.842H77.848V58.63Zm0,30.076q-.655.384-1.332.734v-8.1H79.18Zm1.9-1.211c-.437.3-.88.6-1.333.875V81.34h1.333Zm1.9-1.427c-.433.355-.879.694-1.332,1.024V81.34h1.332Zm1.9-1.7q-.647.629-1.332,1.217V81.34h1.332Zm.566-.565V81.34h2.148A29.884,29.884,0,0,1,85.44,83.8Zm2.409-3.029h-10V63.039h10Zm0-18.3h-.511V58.63h1.325v2.233l-.716,1.609Zm4.158,10.97a29.507,29.507,0,0,1-3.591,6.785V63.039h3.591Zm1.852-10.262a29.458,29.458,0,0,1-1.286,8.576V62.473h-.018l-.815-1.648V58.347h.019c0-1.538-.516-2.742-1.242-3.01V51.152h3.341Zm0-12.6H90.518V48.719h3.341Zm0-2.433H90.518V46.229h3.341Zm.087-2.49H90.428l-.606-1.638h4.729Z" transform="translate(-33.181 -23.824)"/></svg>