<svg xmlns="http://www.w3.org/2000/svg" width="66.555" height="69.899" viewBox="0 0 66.555 69.899"><path d="M57.127,55.247c5.049,0,8.005-19.606,9.041-28.037l.032-.261-.258-.051a45.07,45.07,0,0,0-17.63.03l-.257.052.032.26C49.126,35.661,52.083,55.247,57.127,55.247ZM48.682,27.432A44.5,44.5,0,0,1,65.573,27.4c-.253,2.036-.54,4.091-.858,6.111a30.533,30.533,0,0,0-15.179-.009C49.22,31.5,48.934,29.456,48.682,27.432Zm15.943,6.642c-1.75,10.889-4.4,20.607-7.5,20.607s-5.751-9.725-7.5-20.614A29.941,29.941,0,0,1,64.625,34.074Zm21.887,16.84a5.471,5.471,0,1,0-6.6-7.94,30.045,30.045,0,0,0-9.15-7.172V22.96H43.489V35.788A30.018,30.018,0,0,0,26.949,62.7c0,1.014.052,2.036.152,3.038a3.167,3.167,0,0,0-.547.726,2.442,2.442,0,1,0-.588,4.812H28.19A30.164,30.164,0,0,0,86.022,54.1q-.247-.833-.542-1.65A2.91,2.91,0,0,0,86.513,50.914ZM25.967,70.709a1.875,1.875,0,0,1,0-3.749,1.9,1.9,0,0,1,.639.11l.247.09.108-.24a2.612,2.612,0,0,1,4.928.459l.076.322.306-.123a1.625,1.625,0,1,1,.606,3.133H25.967ZM43.489,88.939a29.661,29.661,0,0,1-14.7-17.664h4.089a2.192,2.192,0,0,0,0-4.384,2.168,2.168,0,0,0-.517.063,3.168,3.168,0,0,0-4.719-1.646c-.075-.864-.121-1.739-.121-2.609A29.448,29.448,0,0,1,43.489,36.433ZM84.614,40.881a4.9,4.9,0,0,1,2,9.372c0-.036.011-.069.011-.106a2.921,2.921,0,0,0-3.66-2.817,3.811,3.811,0,0,0-3.232-2.025A4.886,4.886,0,0,1,84.614,40.881ZM68,23.527c-.4,3.554-4.278,36.242-10.874,36.242S46.653,27.081,46.252,23.527Zm2.2,65.7a29.413,29.413,0,0,1-26.143-.006v-65.7h1.626c.389,3.535,4.243,36.809,11.445,36.809S68.183,27.062,68.572,23.527H70.2ZM86.7,62.7A29.618,29.618,0,0,1,70.765,88.941v-52.5a29.521,29.521,0,0,1,8.867,7.064,5.478,5.478,0,0,0-.466,1.824,3.818,3.818,0,0,0-3.193,2.6,2.554,2.554,0,0,0-.672-.089,2.609,2.609,0,1,0,0,5.218h8.415a2.875,2.875,0,0,0,1.27-.3A29.482,29.482,0,0,1,86.7,62.7ZM83.715,52.494H75.3a2.042,2.042,0,1,1,0-4.085,2.018,2.018,0,0,1,.759.148l.306.123.076-.321a3.244,3.244,0,0,1,6.12-.57l.108.24.247-.089a2.347,2.347,0,1,1,.8,4.554ZM64.667,90.161h1.8v.567h-1.8Zm-2.813,0h1.8v.567h-1.8Zm-5.626,0h1.8v.567h-1.8Zm2.813,0h1.8v.567h-1.8Zm-8.439,0h1.8v.567H50.6Zm2.813,0h1.8v.567h-1.8Zm-5.626,0h1.8v.567h-1.8Zm16.878-2.329h1.8V88.4h-1.8Zm-2.813,0h1.8V88.4h-1.8Zm5.626,0h1.8V88.4h-1.8Zm-11.252,0h1.8V88.4h-1.8Zm2.813,0h1.8V88.4h-1.8Zm-8.439,0h1.8V88.4H50.6Zm2.813,0h1.8V88.4h-1.8Zm-8.439,0h1.8V88.4h-1.8Zm2.813,0h1.8V88.4h-1.8ZM61.854,85.5h1.8v.567h-1.8Zm5.626,0h1.8v.567h-1.8Zm-11.252,0h1.8v.567h-1.8Zm-5.626,0h1.8v.567H50.6Zm2.813,0h1.8v.567h-1.8Zm-5.626,0h1.8v.567h-1.8Zm16.878-2.33h1.8v.566h-1.8Zm-2.813,0h1.8v.566h-1.8Zm5.626,0h1.8v.566h-1.8Zm-11.252,0h1.8v.566h-1.8Zm2.813,0h1.8v.566h-1.8Zm-8.439,0h1.8v.566H50.6Zm-5.626,0h1.8v.566h-1.8Zm2.813,0h1.8v.566h-1.8Zm16.878-2.332h1.8v.567h-1.8Zm-2.813,0h1.8v.567h-1.8Zm-5.626,0h1.8v.567h-1.8Zm2.813,0h1.8v.567h-1.8Zm-8.439,0h1.8v.567H50.6Zm2.813,0h1.8v.567h-1.8Zm-8.439,0h1.8v.567h-1.8Zm2.813,0h1.8v.567h-1.8Zm16.878-2.33h1.8v.567h-1.8Zm-2.813,0h1.8v.567h-1.8Zm5.626,0h1.8v.567h-1.8Zm-11.252,0h1.8v.567h-1.8Zm2.813,0h1.8v.567h-1.8Zm-5.626,0h1.8v.567h-1.8Zm8.439-2.33h1.8v.567h-1.8Zm-11.252,0h1.8v.567H50.6Zm2.813,0h1.8v.567h-1.8Zm-8.439,0h1.8v.567h-1.8Zm2.813,0h1.8v.567h-1.8Zm16.878-2.331h1.8v.567h-1.8Zm-2.813,0h1.8v.567h-1.8Zm5.626,0h1.8v.567h-1.8Zm-11.252,0h1.8v.567h-1.8Zm2.813,0h1.8v.567h-1.8Zm-8.439,0h1.8v.567H50.6Zm2.813,0h1.8v.567h-1.8Zm-5.626,0h1.8v.567h-1.8ZM67.48,71.518h1.8v.567h-1.8Zm-11.252,0h1.8v.567h-1.8Zm2.813,0h1.8v.567h-1.8Zm-14.065,0h1.8v.567h-1.8Zm2.813,0h1.8v.567h-1.8Zm16.878-2.33h1.8v.567h-1.8Zm-2.813,0h1.8v.567h-1.8Zm5.626,0h1.8v.567h-1.8Zm-11.252,0h1.8v.567h-1.8Zm2.813,0h1.8v.567h-1.8Zm-8.439,0h1.8v.567H50.6Zm2.813,0h1.8v.567h-1.8Zm-8.439,0h1.8v.567h-1.8Zm2.813,0h1.8v.567h-1.8Zm8.439-2.332h1.8v.567h-1.8Zm2.813,0h1.8v.567h-1.8Zm-5.626,0h1.8v.567h-1.8Zm-5.626,0h1.8v.567h-1.8Zm16.878-2.33h1.8v.567h-1.8Zm-2.813,0h1.8v.567h-1.8Zm5.626,0h1.8v.567h-1.8Zm-11.252,0h1.8v.567h-1.8Zm2.813,0h1.8v.567h-1.8Zm-8.439,0h1.8v.567H50.6Zm2.813,0h1.8v.567h-1.8Zm-8.439,0h1.8v.567h-1.8Zm2.813,0h1.8v.567h-1.8ZM64.667,62.2h1.8v.567h-1.8Zm-2.813,0h1.8v.567h-1.8Zm5.626,0h1.8v.567h-1.8Zm-11.252,0h1.8v.567h-1.8Zm-5.626,0h1.8v.567H50.6Zm2.813,0h1.8v.567h-1.8Zm-5.626,0h1.8v.567h-1.8Zm16.878-2.331h1.8v.567h-1.8Zm-19.691,0h1.8v.567h-1.8Zm2.813,0h1.8v.567h-1.8Z" transform="translate(-23.526 -22.96)"/></svg>