<svg xmlns="http://www.w3.org/2000/svg" width="61.57" height="69.9" viewBox="0 0 61.57 69.9"><path d="M63.375,32.637,62.708,23.2h-.566l-.667,9.434A30.032,30.032,0,0,0,40.929,41.6a5.487,5.487,0,1,0-6.169,8.523,2.613,2.613,0,0,0,.116.246l-.061.137a30.245,30.245,0,1,0,28.56-17.866Zm-1.37.551.02-.285.4-5.652.4,5.681-.005-.078.023.334.179,2.525h-1.2ZM34.563,49.107a2.789,2.789,0,0,0,.034.333A4.915,4.915,0,1,1,40.525,42l-.037.038.2.19a4.9,4.9,0,0,1,.789,2.241c-.06,0-.119-.014-.179-.014A3.659,3.659,0,0,0,38.066,46.4a2.8,2.8,0,0,0-3.5,2.707ZM44.3,47.4l.076.323.307-.125a1.9,1.9,0,0,1,.719-.14,1.938,1.938,0,0,1,0,3.877H37.359a2.229,2.229,0,1,1,.76-4.326l.248.089.108-.241A3.087,3.087,0,0,1,44.3,47.4Zm6.968,42.941a29.67,29.67,0,0,1-16.335-38.65q.156-.385.323-.765a2.778,2.778,0,0,0,2.105.976H45.4a2.506,2.506,0,0,0,0-5.012,2.461,2.461,0,0,0-.633.082,3.627,3.627,0,0,0-2.718-2.428,5.47,5.47,0,0,0-.792-2.473,29.465,29.465,0,0,1,20.178-8.864l-.179,2.537a1.549,1.549,0,0,0-1.29,1.056V47.889l-2.175,1.2V61.476l-2.175.8V75.057l-2.175.4v13.07H51.266Zm4.35,1.388a29.5,29.5,0,0,1-3.782-1.164V89.1h1.911l1.871.067Zm2.175-2.058v2.491c-.541-.085-1.076-.188-1.607-.3V88.527H54.009v-12.6l3.782-.7Zm2.175,2.745q-.81-.066-1.607-.175V74.529l-2.175.4V62.675l3.782-1.394Zm2.175.1q-.809-.008-1.607-.06v-32l-.375.139-.007-.019-1.793.661V49.427l3.782-2.091Zm0-54.169v8.334l-1.607.889V37.2a.919.919,0,0,1,.918-.918H63.4a.918.918,0,0,1,.918.918v2.357Zm2.175,14.071V92.461q-.8.05-1.607.06V39.314l3.782,2.092V53.224L64.7,52.563ZM66.49,92.242q-.8.111-1.607.175V53.238l2.175.8,1.607.592V68.315l-2.175-.4ZM68.665,83.4v8.466c-.531.114-1.066.217-1.607.3V68.6l2.175.4h0l1.607.3V83.4Zm4.349,7.171a29.479,29.479,0,0,1-3.782,1.163V83.964h3.782Zm.568-.225V83.4H71.408V68.82l-2.175-.4V54.236l-2.175-.8V41.072l-2.175-1.2V36.8a1.548,1.548,0,0,0-1.289-1.056l-.179-2.538A29.663,29.663,0,0,1,73.583,90.342Z" transform="translate(-31.093 -23.203)"/></svg>