<svg xmlns="http://www.w3.org/2000/svg" width="165" height="164">
  <style xmlns="http://www.w3.org/2000/svg">
    .text {
      transform: rotateX(180deg) rotateY(0deg) rotateZ(654deg) translate(-1px, 0.133px);
      transform-origin: center;
      -webkit-animation: spin 4s linear infinite;
      -moz-animation: spin 4s linear infinite;
      animation: spin 10s linear infinite;
    }

    @keyframes spin {
      100% {
        -webkit-transform: rotateX(180deg) rotateZ(-360deg);
        transform: rotateX(180deg) rotateZ(-360deg);
      }
    }
  </style>


  <g class="text" transform="translate(1 0.133) rotate(108 82.123 82.096)"
    style="padding-left: 43px;transform: rotateX(180deg);/* FONT-WEIGHT: 100; */">
    <path
      d="M 14.026 128.299 L 20.077 121.735 L 19.379 120.535 L 12.952 122.066 L 17.471 117.233 L 16.776 116.032 L 8.078 118.033 L 8.772 119.234 L 15.55 117.586 L 10.751 122.649 L 11.351 123.683 L 18.118 122.043 L 13.326 127.098 Z M 26.037 132.897 L 23.399 129.816 L 24.437 127.848 L 23.543 126.805 L 19.265 134.918 L 20.368 136.205 L 29.038 133.213 L 28.141 132.171 Z M 24.854 133.317 L 20.772 134.748 L 22.803 130.918 Z M 32.16 145.778 L 29.894 143.834 L 34.654 138.281 L 33.653 137.423 L 28.888 142.974 L 26.611 141.02 L 25.837 141.921 L 31.387 146.686 Z M 37.931 146.295 C 37.294 147.288 37.091 148.498 37.369 149.645 C 37.648 150.791 38.384 151.774 39.406 152.364 C 40.883 153.378 42.848 153.315 44.258 152.208 L 43.33 151.267 C 42.356 151.972 41.044 151.991 40.05 151.313 C 38.645 150.357 38.238 148.466 39.126 147.017 C 40.013 145.568 41.883 145.071 43.373 145.889 C 44.428 146.451 45.013 147.618 44.832 148.8 L 46.088 149.191 C 46.426 147.445 45.594 145.682 44.033 144.832 C 43.037 144.188 41.822 143.98 40.669 144.257 C 39.516 144.533 38.526 145.27 37.931 146.295 Z M 55.63 159.837 L 58.725 151.922 L 57.499 151.441 L 56.141 154.927 L 52.028 153.318 L 53.387 149.837 L 52.153 149.35 L 49.062 157.268 L 50.296 157.746 L 51.595 154.421 L 55.709 156.03 L 54.41 159.355 Z M 70.481 159.185 C 70.243 161.622 72.026 163.79 74.463 164.027 C 76.899 164.265 79.067 162.482 79.305 160.046 C 79.543 157.609 77.76 155.441 75.324 155.203 C 74.147 155.058 72.963 155.402 72.048 156.155 C 71.132 156.908 70.566 158.003 70.481 159.185 Z M 77.987 159.918 C 77.763 161.606 76.222 162.801 74.531 162.596 C 72.84 162.391 71.628 160.864 71.813 159.171 C 71.998 157.477 73.511 156.248 75.207 156.413 C 76.053 156.48 76.832 156.896 77.36 157.56 C 77.887 158.225 78.114 159.079 77.987 159.918 Z M 92.753 163.58 L 92.319 158.524 C 92.151 156.546 90.41 155.079 88.432 155.248 C 86.454 155.417 84.987 157.157 85.155 159.135 L 85.585 164.192 L 86.905 164.079 L 86.478 159.047 C 86.356 158.213 86.707 157.379 87.389 156.883 C 88.072 156.386 88.973 156.31 89.729 156.684 C 90.486 157.058 90.972 157.821 90.992 158.665 L 91.418 163.696 Z M 101.651 156.3 L 99.562 156.84 L 98.767 153.773 L 97.491 154.106 L 99.635 162.364 L 103.564 161.342 C 104.28 161.185 104.901 160.744 105.285 160.12 C 105.67 159.496 105.784 158.743 105.602 158.033 C 105.309 156.857 104.246 156.037 103.034 156.053 L 104.348 152.323 L 102.873 152.708 Z M 99.854 157.975 L 102.442 157.305 C 102.971 157.132 103.552 157.265 103.954 157.651 C 104.355 158.036 104.512 158.612 104.361 159.147 C 104.21 159.683 103.776 160.092 103.232 160.212 L 100.618 160.889 Z M 126.346 151.353 L 122.067 143.976 L 121.109 144.534 L 120.117 152.25 L 117.023 146.904 L 115.87 147.576 L 120.149 154.953 L 121.109 154.396 L 122.096 146.677 L 125.2 152.028 Z M 132.375 145.52 L 130.828 143.656 L 134.065 140.969 L 133.336 140.089 L 130.099 142.777 L 128.468 140.811 L 132.175 137.736 L 131.404 136.813 L 126.698 140.718 L 132.134 147.274 L 136.848 143.358 L 136.088 142.441 Z M 149.031 129.975 L 140.792 126.585 L 139.914 127.656 L 143.574 133.139 L 137.493 130.585 L 136.606 131.653 L 141.49 139.095 L 142.373 138.029 L 138.487 132.259 L 144.881 134.994 L 145.638 134.076 L 141.765 128.321 L 148.147 131.046 Z M 152.751 112.114 L 151.905 114.09 L 149.005 112.846 L 148.489 114.049 L 156.295 117.399 L 157.886 113.682 C 158.2 113.023 158.231 112.265 157.974 111.583 C 157.717 110.9 157.194 110.351 156.524 110.062 C 155.421 109.578 154.13 109.915 153.404 110.876 L 151.267 107.571 L 150.667 108.963 Z M 152.972 114.547 L 154.024 112.107 C 154.206 111.58 154.665 111.198 155.216 111.115 C 155.767 111.031 156.319 111.26 156.649 111.709 C 156.98 112.158 157.034 112.753 156.79 113.254 L 155.731 115.73 Z M 160.299 103.033 L 157.958 102.456 L 158.973 98.377 L 157.869 98.103 L 156.853 102.177 L 154.378 101.563 L 155.537 96.899 L 154.37 96.609 L 152.897 102.532 L 161.148 104.582 L 162.622 98.646 L 161.467 98.353 Z M 162.654 90.476 L 160.237 90.27 L 160.594 86.072 L 159.453 85.974 L 159.097 90.176 L 156.547 89.963 L 156.953 85.156 L 155.752 85.054 L 155.237 91.157 L 163.731 91.877 L 164.246 85.761 L 163.061 85.657 Z M 156.558 73.658 L 155.347 73.744 L 155.747 79.522 L 164.23 78.937 L 164.143 77.617 L 156.871 78.117 Z M 149.463 34.678 L 143.527 41.332 L 144.242 42.518 L 150.64 40.887 L 146.205 45.788 L 146.92 46.975 L 155.574 44.839 L 154.857 43.648 L 148.115 45.405 L 152.826 40.27 L 152.213 39.249 L 145.481 40.998 L 150.181 35.867 Z M 137.31 30.226 L 139.999 33.251 L 138.993 35.231 L 139.912 36.258 L 144.027 28.09 L 142.91 26.829 L 134.32 29.967 L 135.23 30.993 Z M 138.483 29.786 L 142.526 28.285 L 140.568 32.136 Z M 130.953 17.443 L 133.255 19.351 L 128.602 24.983 L 129.621 25.83 L 134.281 20.192 L 136.597 22.105 L 137.355 21.187 L 131.715 16.524 Z M 125.166 17.044 C 125.781 16.037 125.957 14.823 125.655 13.683 C 125.352 12.543 124.595 11.576 123.562 11.008 C 122.065 10.024 120.101 10.131 118.72 11.271 L 119.661 12.186 C 120.621 11.463 121.93 11.416 122.939 12.069 C 124.382 12.987 124.842 14.88 123.981 16.357 C 123.12 17.835 121.245 18.368 119.736 17.565 C 118.669 17.022 118.062 15.865 118.221 14.679 L 116.954 14.322 C 116.652 16.073 117.523 17.817 119.104 18.628 C 120.111 19.25 121.329 19.432 122.474 19.133 C 123.619 18.834 124.592 18.079 125.166 17.044 Z M 107.183 3.802 L 104.256 11.803 L 105.49 12.255 L 106.78 8.734 L 110.941 10.257 L 109.649 13.783 L 110.895 14.234 L 113.826 6.233 L 112.583 5.78 L 111.35 9.141 L 107.188 7.614 L 108.423 4.255 Z M 92.481 4.757 C 92.663 2.322 90.836 0.201 88.402 0.019 C 85.967 -0.163 83.846 1.663 83.663 4.098 C 83.481 6.532 85.307 8.654 87.742 8.836 C 88.918 8.957 90.093 8.588 90.989 7.817 C 91.885 7.045 92.425 5.938 92.481 4.757 Z M 84.978 4.188 C 85.168 2.502 86.679 1.282 88.367 1.45 C 90.055 1.619 91.294 3.114 91.147 4.804 C 91 6.495 89.521 7.753 87.828 7.627 C 86.983 7.577 86.196 7.179 85.656 6.527 C 85.116 5.875 84.87 5.028 84.978 4.188 Z M 69.969 0.766 L 70.505 5.813 C 70.625 7.104 71.431 8.231 72.614 8.762 C 73.797 9.293 75.174 9.148 76.219 8.38 C 77.264 7.613 77.816 6.343 77.664 5.056 L 77.13 0 L 75.808 0.143 L 76.342 5.169 C 76.481 6.002 76.146 6.842 75.474 7.352 C 74.802 7.862 73.903 7.958 73.138 7.6 C 72.374 7.243 71.871 6.491 71.832 5.648 L 71.3 0.617 Z M 61.336 8.18 L 63.418 7.617 L 64.245 10.678 L 65.514 10.335 L 63.29 2.095 L 59.373 3.155 C 58.658 3.32 58.041 3.768 57.663 4.396 C 57.285 5.025 57.179 5.78 57.368 6.489 C 57.673 7.66 58.745 8.467 59.955 8.438 L 58.679 12.178 L 60.15 11.781 Z M 63.111 6.486 L 60.536 7.186 C 60.008 7.366 59.425 7.24 59.018 6.859 C 58.612 6.477 58.449 5.903 58.594 5.365 C 58.74 4.827 59.17 4.413 59.713 4.289 L 62.328 3.582 Z M 36.667 13.567 L 41.06 20.869 L 42.005 20.298 L 42.874 12.575 L 46.056 17.867 L 47.192 17.183 L 42.803 9.879 L 41.854 10.451 L 40.989 18.173 L 37.807 12.881 Z M 30.753 19.506 L 32.332 21.348 L 29.133 24.092 L 29.88 24.962 L 33.075 22.219 L 34.74 24.158 L 31.08 27.296 L 31.863 28.215 L 36.512 24.229 L 30.965 17.756 L 26.303 21.753 L 27.082 22.657 Z M 14.389 35.367 L 22.69 38.604 L 23.551 37.518 L 19.789 32.092 L 25.919 34.54 L 26.786 33.459 L 21.765 26.105 L 20.904 27.191 L 24.895 32.888 L 18.45 30.269 L 17.71 31.202 L 21.693 36.888 L 15.256 34.281 Z M 10.991 53.304 L 11.799 51.309 L 14.732 52.493 L 15.222 51.276 L 7.327 48.087 L 5.812 51.845 C 5.512 52.513 5.497 53.273 5.77 53.952 C 6.043 54.63 6.581 55.168 7.259 55.442 C 8.374 55.903 9.66 55.54 10.368 54.563 L 12.578 57.83 L 13.148 56.418 Z M 10.715 50.87 L 9.715 53.341 C 9.415 54.113 8.546 54.496 7.773 54.196 C 7.001 53.895 6.619 53.026 6.919 52.254 L 7.925 49.747 Z M 3.599 62.505 L 5.955 63.045 L 5.014 67.144 L 6.128 67.402 L 7.069 63.303 L 9.557 63.872 L 8.481 68.562 L 9.655 68.833 L 11.021 62.874 L 2.728 60.971 L 1.357 66.944 L 2.517 67.211 Z M 1.501 75.132 L 3.912 75.288 L 3.646 79.481 L 4.785 79.555 L 5.053 75.357 L 7.597 75.522 L 7.29 80.322 L 8.489 80.4 L 8.878 74.299 L 0.39 73.76 L -0 79.873 L 1.19 79.948 Z M 7.895 91.743 L 9.112 91.634 L 8.589 85.854 L 0.114 86.614 L 0.233 87.938 L 7.497 87.28 Z"
      fill="rgb(0,0,0)" style="&#10;    fill: white;&#10;    color: white;&#10;" />
    <path
      d="M 5.303 104.737 C 5.683 106.064 7.068 106.831 8.395 106.451 C 9.722 106.07 10.49 104.686 10.109 103.358 C 9.728 102.031 8.344 101.264 7.017 101.644 C 5.69 102.025 4.922 103.409 5.303 104.737 Z"
      fill="rgb(0,0,0)" style="&#10;    fill: white;&#10;" />
    <path
      d="M 154.298 62.013 C 154.679 63.34 156.063 64.107 157.391 63.727 C 158.718 63.346 159.485 61.962 159.105 60.635 C 158.724 59.307 157.34 58.54 156.012 58.921 C 154.685 59.301 153.918 60.686 154.298 62.013 Z"
      fill="rgb(0,0,0)" style="&#10;    fill: white;&#10;" />
  </g>
  <g transform="translate(19 19)">
    <path
      d="M 0 62.5 C 0 27.982 27.982 0 62.5 0 C 97.018 0 125 27.982 125 62.5 C 125 97.018 97.018 125 62.5 125 C 27.982 125 0 97.018 0 62.5 Z"
      fill="rgb(232,31,118)" opacity="0.501" />
    <path
      d="M 0 62.5 C 0 27.982 27.982 0 62.5 0 C 97.018 0 125 27.982 125 62.5 C 125 97.018 97.018 125 62.5 125 C 27.982 125 0 97.018 0 62.5 Z"
      fill="rgb(232,31,118)" />
    <path d="M 52.5 47.5 L 72.068 62.685 L 52.5 77.446 L 52.5 61.788" fill="transparent" stroke-width="3"
      stroke="rgb(255,255,255)" stroke-linejoin="bevel" stroke-dasharray="" />
  </g>
</svg>