<svg xmlns="http://www.w3.org/2000/svg" width="24.8" height="18.784" viewBox="0 0 24.8 18.784"><defs><style>.a{fill:#fff;}</style></defs><path d="M24.618,4.433V4.422a5.672,5.672,0,0,0-1.093-2.878A4.036,4.036,0,0,0,20.851.291L20.727.276l-.043,0C17.405.033,12.454,0,12.4,0H12.4c-.05,0-5,.033-8.309.271l-.044,0L3.927.29A3.934,3.934,0,0,0,1.269,1.582,5.944,5.944,0,0,0,.185,4.408l0,.025C.175,4.516,0,6.494,0,8.479v1.856C0,12.32.175,14.3.182,14.381v.012a5.616,5.616,0,0,0,1.089,2.843,4.118,4.118,0,0,0,2.762,1.236c.1.012.188.021.247.032l.057.008c1.893.18,7.828.269,8.08.272h.015c.05,0,5-.033,8.279-.271l.043,0,.139-.016a3.843,3.843,0,0,0,2.634-1.26,5.943,5.943,0,0,0,1.084-2.826l0-.025c.007-.083.183-2.06.183-4.046V8.479C24.8,6.494,24.625,4.517,24.618,4.433Z" transform="translate(0 0)"/><path class="a" d="M198.525,109.92l-5.959-3.261a1.095,1.095,0,0,0-1.62.96v6.465a1.093,1.093,0,0,0,1.613.964l5.96-3.2a1.095,1.095,0,0,0,.007-1.924Zm-6,3.352Z" transform="translate(-181.973 -101.735)"/></svg>