<?xml version="1.0" encoding="utf-8"?>
<!-- Generator: Adobe Illustrator 16.0.0, SVG Export Plug-In . SVG Version: 6.00 Build 0)  -->
<!DOCTYPE svg PUBLIC "-//W3C//DTD SVG 1.1//EN" "http://www.w3.org/Graphics/SVG/1.1/DTD/svg11.dtd">
<svg version="1.1" id="Layer_1" xmlns="http://www.w3.org/2000/svg" xmlns:xlink="http://www.w3.org/1999/xlink" x="0px" y="0px"
	 width="200.074px" height="48.16px" viewBox="0 0 200.074 48.16" enable-background="new 0 0 200.074 48.16" xml:space="preserve">
<g id="Group_3255" transform="translate(-167.702 -701.321)">
	<path id="Path_13721" fill="#3D1152" d="M243.949,747.66l1.821-1.821l1.82,1.821l-1.82,1.82L243.949,747.66z M253.022,747.647
		l1.82-1.82l1.821,1.82l-1.821,1.82L253.022,747.647z M248.458,747.639l1.821-1.82l1.82,1.82l-1.82,1.82L248.458,747.639z
		 M246.214,745.395l1.821-1.82l1.82,1.82l-1.82,1.82L246.214,745.395z M250.736,745.36l1.821-1.82l1.82,1.82l-1.82,1.82
		L250.736,745.36z M248.492,743.115l1.821-1.82l1.82,1.82l-1.82,1.82L248.492,743.115z M243.935,743.115l1.821-1.82l1.82,1.82
		l-1.82,1.82L243.935,743.115z M252.987,743.11l1.821-1.82l1.821,1.82l-1.821,1.82L252.987,743.11z M250.744,740.865l1.82-1.82
		l1.821,1.82l-1.821,1.819L250.744,740.865z M246.215,740.836l1.821-1.819l1.82,1.819l-1.82,1.822L246.215,740.836z
		 M248.466,738.586l1.821-1.82l1.82,1.82l-1.82,1.82L248.466,738.586z M253.03,738.578l1.821-1.82l1.821,1.82l-1.821,1.82
		L253.03,738.578z M243.923,738.543l1.82-1.819l1.82,1.819l-1.82,1.82L243.923,738.543z"/>
	<g id="Group_3202" transform="translate(259.193 739.259)">
		<path id="Path_13722" fill="#3D1152" d="M5.722,1.401H3.637v5.145H2.085V1.403H0V0.004h5.722V1.401z"/>
	</g>
	<g id="Group_3203" transform="translate(265.708 738.979)">
		<path id="Path_13723" fill="#3D1152" d="M4.767,4.049v2.776h-1.5V4.347c0-0.627-0.26-1.039-0.851-1.039
			c-0.59,0-0.926,0.459-0.926,1.188v2.328h-1.5V0h1.5V2.55c0.355-0.406,0.872-0.637,1.412-0.627C4.18,1.925,4.767,2.782,4.767,4.049
			z"/>
	</g>
	<g id="Group_3204" transform="translate(271.354 740.904)">
		<path id="Path_13724" fill="#3D1152" d="M0,2.525C-0.056,1.186,0.984,0.057,2.322,0c0.067-0.002,0.136-0.002,0.202,0
			c1.299-0.08,2.418,0.908,2.498,2.207c0.006,0.088,0.006,0.175,0.002,0.262c0.002,0.168-0.01,0.336-0.037,0.5H1.462
			c0.094,0.449,0.421,0.824,1.187,0.824c0.386,0.039,0.759-0.151,0.953-0.486L4.948,3.7C4.497,4.559,3.59,5.081,2.619,5.038
			c-1.344,0.099-2.515-0.91-2.614-2.255C-0.001,2.697-0.003,2.611,0,2.525z M3.562,2.067C3.481,1.563,3.024,1.208,2.515,1.254
			C2.01,1.225,1.561,1.572,1.459,2.067H3.562z"/>
	</g>
	<g id="Group_3205" transform="translate(279.383 739.128)">
		<path id="Path_13725" fill="#3D1152" d="M0.001,3.403c-0.035-1.845,1.434-3.367,3.277-3.401C3.329,0.001,3.38,0.001,3.43,0.003
			C4.88-0.09,6.203,0.818,6.637,2.202L5.124,2.577C4.864,1.88,4.184,1.431,3.441,1.465C2.43,1.45,1.6,2.259,1.587,3.269
			c0,0.044,0.001,0.088,0.004,0.131C1.538,4.426,2.328,5.3,3.354,5.352c0.028,0.001,0.058,0.002,0.087,0.003
			C4.181,5.4,4.864,4.955,5.124,4.26l1.514,0.384C6.204,6.012,4.891,6.907,3.46,6.814C1.612,6.875,0.063,5.428,0.001,3.58
			C-0.001,3.521-0.001,3.462,0.001,3.403z"/>
	</g>
	<g id="Group_3206" transform="translate(286.628 740.904)">
		<path id="Path_13726" fill="#3D1152" d="M0,2.514c-0.025-1.414,1.1-2.582,2.515-2.607c1.415-0.026,2.583,1.1,2.608,2.514
			c0.026,1.415-1.1,2.583-2.514,2.609c-0.017,0-0.032,0-0.049,0C1.197,5.081,0.052,4.016,0.002,2.653C0,2.607,0,2.561,0,2.514z
			 M3.674,2.514c-0.03-0.613-0.553-1.088-1.168-1.057C1.892,1.488,1.418,2.01,1.449,2.625C1.478,3.217,1.967,3.684,2.56,3.684
			c0.6,0.018,1.1-0.455,1.117-1.053C3.678,2.592,3.678,2.553,3.674,2.514z"/>
	</g>
	<g id="Group_3207" transform="translate(292.601 738.979)">
		<path id="Path_13727" fill="#3D1152" d="M-0.001,0h1.5v6.825h-1.5V0z"/>
	</g>
	<g id="Group_3208" transform="translate(295.302 738.979)">
		<path id="Path_13728" fill="#3D1152" d="M0,0h1.5v6.825H0V0z"/>
		<path id="Path_13729" fill="#3D1152" d="M2.375,4.45C2.318,3.111,3.357,1.982,4.696,1.925c0.067-0.002,0.135-0.002,0.202,0
			c1.299-0.08,2.418,0.908,2.498,2.207C7.402,4.22,7.402,4.307,7.398,4.394c0.002,0.168-0.01,0.336-0.037,0.5H3.837
			c0.094,0.449,0.42,0.824,1.187,0.824c0.386,0.039,0.759-0.15,0.954-0.486l1.346,0.393c-0.45,0.859-1.357,1.381-2.328,1.338
			c-1.344,0.1-2.516-0.908-2.616-2.252C2.373,4.623,2.371,4.537,2.375,4.45z M5.936,3.992C5.855,3.488,5.398,3.133,4.889,3.179
			C4.384,3.15,3.935,3.496,3.834,3.992H5.936z"/>
	</g>
	<g id="Group_3209" transform="translate(303.295 738.801)">
		<path id="Path_13730" fill="#3D1152" d="M0,4.617C-0.03,3.258,1.05,2.132,2.409,2.102c0.042-0.001,0.084-0.001,0.125,0.001
			c1.07-0.066,2.051,0.598,2.384,1.617L3.534,4.113C3.398,3.685,2.992,3.4,2.543,3.421C1.935,3.428,1.448,3.925,1.454,4.532
			c0.001,0.025,0.002,0.05,0.004,0.075c-0.044,0.621,0.424,1.16,1.045,1.205c0.014,0,0.027,0.001,0.04,0.002
			c0.445,0.026,0.853-0.25,0.991-0.674l1.384,0.393c-0.333,1.01-1.305,1.668-2.366,1.601C1.19,7.182,0.048,6.115,0.001,4.754
			C-0.001,4.709-0.001,4.663,0,4.617z"/>
		<path id="Path_13731" fill="#3D1152" d="M8.919,6.848C8.548,7.003,8.15,7.082,7.749,7.081C6.885,7.153,6.127,6.512,6.054,5.648
			C6.044,5.527,6.048,5.406,6.066,5.286V3.548H5.328v-1.31h0.738v-1.5h1.5v1.5h1.28v1.31h-1.28v1.739
			c-0.036,0.24,0.13,0.465,0.37,0.5c0.043,0.006,0.087,0.006,0.13,0C8.242,5.791,8.417,5.75,8.571,5.666L8.919,6.848z"/>
		<path id="Path_13732" fill="#3D1152" d="M9.637,0.832c-0.006-0.475,0.375-0.863,0.851-0.869c0.476-0.005,0.864,0.376,0.869,0.852
			c0.005,0.475-0.376,0.863-0.851,0.869c-0.004,0-0.007,0-0.01,0C10.03,1.691,9.645,1.318,9.637,0.852
			C9.637,0.845,9.637,0.838,9.637,0.832z M9.731,2.232h1.5V7h-1.5V2.232z"/>
	</g>
	<g id="Group_3210" transform="translate(315.194 741.035)">
		<path id="Path_13733" fill="#3D1152" d="M5.533,0L3.61,4.768H1.926L0,0h1.646l1.121,3.065L3.899,0H5.533z"/>
	</g>
	<g id="Group_3211" transform="translate(320.84 740.904)">
		<path id="Path_13734" fill="#3D1152" d="M0.001,2.525C-0.056,1.186,0.983,0.057,2.322,0c0.067-0.002,0.135-0.002,0.202,0
			c1.299-0.08,2.418,0.908,2.498,2.207c0.006,0.088,0.006,0.175,0.002,0.262c0.002,0.168-0.011,0.336-0.038,0.5H1.458
			C1.551,3.418,1.88,3.793,2.645,3.793c0.386,0.039,0.76-0.15,0.953-0.486L4.945,3.7C4.496,4.561,3.588,5.083,2.618,5.038
			C1.274,5.135,0.104,4.126,0.006,2.783C-0.001,2.697-0.003,2.611,0.001,2.525z M3.562,2.067C3.481,1.563,3.023,1.208,2.514,1.254
			C2.01,1.225,1.56,1.571,1.46,2.067H3.562z"/>
	</g>
	<g id="Group_3212" transform="translate(209.875 739.362)">
		<path id="Path_13735" fill="#3D1152" d="M5.029,2.113c0.012,1.149-0.911,2.091-2.06,2.103C2.93,4.216,2.89,4.214,2.851,4.212
			H0.737v2.326h-0.738v-6.543h2.889c1.16-0.023,2.118,0.898,2.141,2.059C5.029,2.074,5.029,2.093,5.029,2.113z M4.309,2.113
			C4.315,1.329,3.684,0.688,2.9,0.681c-0.01,0-0.021,0-0.031,0.001H0.737v2.86h2.1c0.782,0.03,1.441-0.578,1.472-1.36
			C4.31,2.16,4.31,2.136,4.309,2.113L4.309,2.113z"/>
	</g>
	<g id="Group_3213" transform="translate(215.315 741.129)">
		<path id="Path_13736" fill="#3D1152" d="M0,2.44C-0.056,1.15,0.944,0.059,2.234,0.002C2.274,0,2.315,0,2.356,0
			c0.739-0.027,1.438,0.334,1.842,0.953V0.111h0.72v4.666h-0.72V3.926c-0.396,0.63-1.099,1-1.842,0.973
			C1.056,4.9,0,3.848-0.002,2.548C-0.002,2.512-0.002,2.477,0,2.44z M4.216,2.449c0.023-0.971-0.745-1.777-1.716-1.8
			C2.486,0.648,2.472,0.648,2.458,0.648c-0.991,0.074-1.735,0.938-1.661,1.93c0.066,0.889,0.773,1.594,1.661,1.66
			c0.972-0.001,1.758-0.789,1.756-1.762c0-0.009,0-0.018,0-0.027H4.216z"/>
	</g>
	<g id="Group_3214" transform="translate(221.728 741.165)">
		<path id="Path_13737" fill="#3D1152" d="M2.392,0.02v0.673c-1.01-0.131-1.673,0.4-1.673,1.87v2.179h-0.72V0.075h0.72v0.801
			C1.004,0.231,1.702-0.126,2.392,0.02z"/>
	</g>
	<g id="Group_3215" transform="translate(224.654 739.633)">
		<path id="Path_13738" fill="#3D1152" d="M3.267,6.131C2.961,6.268,2.63,6.338,2.295,6.337C1.36,6.337,0.93,5.748,0.93,4.85V2.26
			H0.005V1.605H0.93v-1.607h0.72v1.607h1.6V2.26h-1.6v2.59c0,0.524,0.243,0.823,0.757,0.823c0.231,0.005,0.46-0.05,0.664-0.159
			L3.267,6.131z"/>
	</g>
	<g id="Group_3216" transform="translate(231.29 741.129)">
		<path id="Path_13739" fill="#3D1152" d="M0,2.44C-0.002,1.08,1.099-0.025,2.459-0.027s2.465,1.1,2.467,2.459
			c0.002,1.359-1.098,2.465-2.458,2.467C1.143,4.938,0.038,3.894,0,2.568C-0.001,2.525-0.001,2.482,0,2.44z M4.216,2.449
			c-0.015-0.971-0.814-1.746-1.785-1.73C1.46,0.732,0.685,1.531,0.701,2.503c0.015,0.964,0.803,1.736,1.768,1.731
			c0.957,0.008,1.74-0.761,1.749-1.718C4.217,2.494,4.217,2.471,4.216,2.449L4.216,2.449z"/>
	</g>
	<g id="Group_3217" transform="translate(236.973 738.96)">
		<path id="Path_13740" fill="#3D1152" d="M1.692,2.28h1.673v0.654H1.692v4.012H0.981v-4.01h-0.982V2.282h0.982V1.665
			c0-1.037,0.486-1.663,1.468-1.663c0.326-0.011,0.65,0.058,0.944,0.2L3.206,0.81c-0.213-0.11-0.451-0.165-0.691-0.158
			c-0.552,0-0.823,0.373-0.823,1.037V2.28z"/>
	</g>
	<g id="Group_3218" transform="translate(167.702 705.359)">
		<path id="Path_13741" fill="#3D1152" d="M16.866,4.138H10.72v15.158H6.145V4.138h-6.147V0.004h16.866L16.866,4.138z"/>
	</g>
	<g id="Group_3219" transform="translate(185.229 710.351)">
		<path id="Path_13742" fill="#3D1152" d="M8.819,0.052v4.134c-2.977-0.5-4.41,0.772-4.41,4.245v5.87H0V0.245h4.409v1.9
			C5.256,0.551,7.048-0.3,8.819,0.052z"/>
	</g>
	<g id="Group_3220" transform="translate(194.737 710.209)">
		<path id="Path_13743" fill="#3D1152" d="M0,7.414C0,3.142,3.031,0,6.835,0c1.53-0.051,3.007,0.563,4.051,1.682v-1.3h4.409v14.055
			h-4.409v-1.3c-1.052,1.108-2.523,1.719-4.051,1.681C3.031,14.827,0,11.685,0,7.414z M11,7.386
			c0.104-1.812-1.281-3.365-3.093-3.469c-0.09-0.005-0.18-0.006-0.27-0.004C5.705,4.044,4.244,5.716,4.375,7.65
			c0.119,1.751,1.513,3.145,3.263,3.263c1.832,0.026,3.338-1.437,3.364-3.269c0.001-0.086,0-0.172-0.006-0.258H11z"/>
	</g>
	<path id="Path_13744" fill="#3D1152" d="M238.06,724.65h-4.409v-10.2h-4.961v10.2h-4.409v-10.2h-4.961v10.2h-4.407v-10.2h-2.563
		v-3.858h2.563V709.6c0-3.307,1.874-5.457,5.484-5.457c1.133-0.042,2.262,0.166,3.307,0.606l-1.047,3.5
		c-0.495-0.216-1.032-0.318-1.571-0.3c-0.928-0.045-1.717,0.67-1.762,1.598c-0.001,0.019-0.002,0.038-0.002,0.057v0.992h4.961V709.6
		c0-3.307,2.012-5.457,5.9-5.457c1.788-0.074,3.561,0.346,5.126,1.213l-1.047,3.5c-1.085-0.608-2.311-0.922-3.555-0.909
		c-0.993-0.115-1.891,0.597-2.006,1.59c-0.002,0.021-0.004,0.042-0.006,0.064v0.992h9.37L238.06,724.65z M240.46,717.622
		c-0.086-4.008,3.093-7.329,7.102-7.415c0.123-0.003,0.245-0.002,0.368,0.001c4.023,0,6.5,2.563,7.027,4.768l-4.079,1.158
		c-0.401-1.261-1.599-2.097-2.921-2.039c-1.799,0.027-3.235,1.507-3.208,3.307c0.001,0.064,0.004,0.129,0.009,0.193
		c-0.13,1.83,1.247,3.418,3.077,3.548c0.041,0.003,0.082,0.005,0.123,0.007c1.312,0.079,2.511-0.736,2.921-1.984l4.079,1.158
		c-0.523,2.2-3,4.713-6.972,4.713c-4.015,0.141-7.383-2.999-7.524-7.013c-0.004-0.134-0.005-0.268-0.003-0.401L240.46,717.622z"/>
	<g id="Group_3221" transform="translate(264.433 705.359)">
		<path id="Path_13745" fill="#3D1152" d="M18.024,9.646c0,5.595-3.61,9.646-9.122,9.646h-8.9V0h8.9
			C14.331,0,18.024,3.913,18.024,9.646z M13.394,9.564c0-3.39-2.012-5.457-4.6-5.457H4.522v11.079h4.272
			C11.382,15.186,13.394,12.953,13.394,9.564L13.394,9.564z"/>
	</g>
	<g id="Group_3222" transform="translate(284.937 704.008)">
		<path id="Path_13746" fill="#3D1152" d="M0.001,2.453c-0.016-1.401,1.107-2.548,2.508-2.564s2.548,1.107,2.563,2.508
			S3.965,4.945,2.565,4.961c-0.009,0-0.019,0-0.028,0C1.16,4.983,0.024,3.885,0.001,2.507C0.001,2.489,0.001,2.471,0.001,2.453z
			 M0.277,6.587h4.41v14.056h-4.41V6.587z"/>
	</g>
	<g id="Group_3223" transform="translate(292.378 704.008)">
		<path id="Path_13747" fill="#3D1152" d="M15.158,6.587v13.532c0,3.941-2.866,6.699-7.386,6.699c-3.5,0-5.65-1.57-6.808-3.666
			l3.801-1.377c0.696,1.015,1.888,1.574,3.113,1.461c1.957,0,2.866-1.323,2.866-3.087v-1.35c-0.993,1.094-2.409,1.707-3.886,1.681
			c-3.779,0.014-6.854-3.038-6.868-6.817c-0.001-0.107,0.001-0.214,0.006-0.32c0-4.272,2.866-7.138,6.862-7.138
			c1.477-0.025,2.894,0.587,3.886,1.682v-1.3L15.158,6.587z M10.858,13.339c0.028-1.795-1.404-3.275-3.2-3.303
			c-1.795-0.029-3.274,1.404-3.303,3.2c-0.029,1.796,1.403,3.275,3.199,3.303c0.026,0,0.053,0,0.08,0
			c1.67,0.109,3.113-1.156,3.223-2.827C10.865,13.588,10.865,13.463,10.858,13.339z"/>
		<path id="Path_13748" fill="#3D1152" d="M18.379,2.453c-0.016-1.401,1.107-2.548,2.508-2.564s2.549,1.107,2.564,2.508
			s-1.107,2.548-2.508,2.564c-0.01,0-0.02,0-0.029,0c-1.377,0.022-2.512-1.076-2.535-2.453C18.379,2.49,18.379,2.471,18.379,2.453z
			 M18.655,6.587h4.409v14.056h-4.409V6.587z"/>
	</g>
	<g id="Group_3224" transform="translate(317.677 706.185)">
		<path id="Path_13749" fill="#3D1152" d="M10.584,17.997c-1.092,0.458-2.263,0.692-3.445,0.689c-3.418,0-4.961-2.094-4.961-5.291
			V8.269H0V4.411h2.178v-4.41h4.408v4.41h3.776v3.858H6.586v5.126c-0.095,0.712,0.404,1.366,1.117,1.461
			c0.113,0.016,0.23,0.016,0.344,0c0.52,0.013,1.032-0.111,1.488-0.358L10.584,17.997z"/>
	</g>
	<g id="Group_3225" transform="translate(329.362 710.209)">
		<path id="Path_13750" fill="#3D1152" d="M0,7.414C0,3.142,3.031,0,6.835,0c1.53-0.051,3.007,0.563,4.051,1.682v-1.3h4.409v14.055
			h-4.409v-1.3c-1.052,1.108-2.523,1.719-4.051,1.681C3.031,14.827,0,11.685,0,7.414z M11,7.386
			c0.104-1.812-1.281-3.365-3.093-3.469c-0.09-0.005-0.18-0.006-0.27-0.004C5.705,4.044,4.244,5.716,4.375,7.65
			c0.118,1.751,1.512,3.145,3.263,3.263c1.832,0.026,3.339-1.437,3.364-3.269c0.002-0.086,0-0.172-0.006-0.258H11z"/>
	</g>
	<g id="Group_3226" transform="translate(348.24 704.532)">
		<path id="Path_13751" fill="#3D1152" d="M0,0.004h4.409v20.119H0V0.004z"/>
	</g>
	<g id="Group_3227" transform="translate(361.333 701.321)">
		<path id="Path_13752" fill="#3D1152" d="M5.499,0.943C6.757,2.201,6.756,4.24,5.498,5.498S2.201,6.755,0.943,5.497
			c-1.258-1.258-1.258-3.296,0-4.554C2.201-0.315,4.24-0.315,5.499,0.943C5.498,0.942,5.499,0.942,5.499,0.943"/>
		<path id="Path_13753" fill="#3D1152" d="M5.499,9.447c1.258,1.258,1.257,3.298-0.001,4.555c-1.258,1.258-3.297,1.257-4.555,0
			s-1.258-3.297,0-4.555S4.241,8.189,5.499,9.447"/>
		<path id="Path_13754" fill="#3D1152" d="M5.499,17.951c1.258,1.258,1.257,3.297-0.001,4.555c-1.258,1.258-3.297,1.257-4.555,0
			s-1.258-3.297,0-4.554C2.201,16.693,4.24,16.692,5.499,17.951C5.498,17.95,5.499,17.951,5.499,17.951"/>
	</g>
</g>
</svg>
