<?xml version="1.0" encoding="utf-8"?>
<!-- Generator: Adobe Illustrator 19.0.0, SVG Export Plug-In . SVG Version: 6.00 Build 0)  -->
<svg version="1.1" id="Layer_1" xmlns="http://www.w3.org/2000/svg" xmlns:xlink="http://www.w3.org/1999/xlink" x="0px" y="0px"
	 viewBox="-197 394.9 200 53" style="enable-background:new -197 394.9 200 53;" xml:space="preserve">
<style type="text/css">
	.st0{fill:none;}
	.st1{fill:#3D1A52;}
</style>
<rect id="SVGID_3_" x="-380.1" y="409.2" class="st0" width="200" height="53"/>
<g>
	<g>
		<path class="st1" d="M-154.4,395c0,14,0,28.1,0,42.2c-3.6,0-7.1,0-10.7,0c0,3.5,0,6.9,0,10.5c-0.5-0.4-0.8-0.7-1-0.9
			c-3-3-5.9-5.9-8.9-8.9c-0.3-0.3-0.9-0.7-1.4-0.7c-6.8,0-13.7,0-20.5,0c0-14.1,0-28.2,0-42.3C-182.7,395-168.5,395-154.4,395z
			 M-163.3,428.6c-0.3-2.8-0.5-5.4-0.7-7.9c-0.1-0.7,0-1.1,0.7-1.5c2.6-1.3,3.8-3.5,3.4-6.5c-0.3-2.4-2.1-4.4-4.7-5.1
			c-0.3-0.1-0.7-0.4-0.8-0.7c-0.7-1.6-1.6-2.9-3.1-3.8c-3.3-2-7-1.4-9.7,1.7c-1.4,1.6-2.9,2.2-5,1.9c-3.6-0.5-7,1.8-7.9,5.2
			c-1,3.7,0.5,7.7,4,8.8c2.3,0.7,2.6,2,2.6,3.9c0,0.2,0,0.4,0,0.6c0.1,1.6,0.3,3.3,0.5,5.2C-177.5,426.1-170.7,425.4-163.3,428.6z"
			/>
		<path class="st1" d="M-74.6,403.4c1-0.2,2-0.4,3.1-0.6c0,2.3,0,4.5,0,6.8c1-0.2,1.9-0.5,2.7-0.6c3.4-0.4,5.9,1.6,6.5,5.1
			c0.2,1.2,0.2,2.6,0,3.8c-0.5,3.2-3,5.4-6.3,5.4c-2,0-4-0.3-6.1-0.5C-74.6,416.2-74.6,409.9-74.6,403.4z M-71.2,420.6
			c0.9,0.1,1.7,0.2,2.4,0.2c1.9,0,3.3-1,3.6-2.8c0.2-1.3,0.2-2.7-0.1-4c-0.6-2.2-3.9-3.1-5.6-1.6c-0.1,0.1-0.2,0.3-0.2,0.5
			C-71.2,415.4-71.2,417.9-71.2,420.6z"/>
		<path class="st1" d="M-33.5,409.2c-2,2.2-3.8,4.2-5.6,6.2c2.3,2.2,4.3,4.7,6,7.7c-1.2,0-2.2,0.1-3.2,0c-0.3,0-0.7-0.4-0.9-0.7
			c-1.5-1.9-2.9-3.7-4.4-5.6c-0.1,0.1-0.3,0.1-0.4,0.2c0,2,0,4,0,6c-1.1,0-2.1,0-3.2,0c0-0.4,0-0.8,0-1.2c0-5.7,0-11.5,0-17.2
			c0-1.1,0.3-1.6,1.4-1.6c0.6,0,1.1-0.2,1.8-0.3c0,3.9,0,7.7,0,11.9c1.4-1.6,2.7-2.9,3.8-4.3c0.7-0.9,1.5-1.4,2.6-1.2
			C-35,409.3-34.4,409.2-33.5,409.2z"/>
		<path class="st1" d="M-88.4,414.5c0.1-1.9-0.8-3-2.8-3c-1.1,0-2.3,0.2-3.5,0.3c-0.2-0.7-0.4-1.5-0.6-2.4c2.5-0.7,4.9-1,7.3-0.1
			c1.6,0.6,2.5,1.8,2.6,3.4c0.2,3.2,0.2,6.5,0.2,9.7c0,0.2-0.4,0.7-0.6,0.7c-2.5,0.1-5,0.4-7.5,0.2c-2.1-0.1-3.3-1.8-3.4-3.8
			c-0.1-2.3,0.8-3.9,2.9-4.4C-92.1,414.7-90.3,414.7-88.4,414.5z M-88.4,416.9c-1.3,0.1-2.4,0-3.5,0.2c-0.9,0.2-1.4,0.8-1.4,1.9
			c0,1,0.5,1.6,1.4,1.7c1.2,0.1,2.3,0,3.5,0C-88.4,419.5-88.4,418.4-88.4,416.9z"/>
		<path class="st1" d="M-19.5,417.2c-3.4,0-6.3,0-9.3,0c-0.1,3.1,2.2,4,7.5,3.1c0,0,0.1,0.1,0.1,0.1c0.7,2.8,1,2.4-1.8,3
			c-0.7,0.1-1.4,0.2-2.1,0.2c-6.4-0.1-7.7-4.9-7-9c0.7-4,3.7-6.1,7.6-5.6c2.1,0.3,3.6,1.5,4.3,3.5
			C-19.9,413.9-19.8,415.4-19.5,417.2z M-23,414.8c0-2.1-1.1-3.4-2.9-3.3c-1.7,0.1-3,1.5-2.8,3.3c1.5,0,3.1,0,4.6,0
			C-23.8,414.8-23.4,414.8-23,414.8z"/>
		<path class="st1" d="M-58.1,411.8c-0.2-0.8-0.3-1.5-0.5-2.4c2.3-0.6,4.6-0.9,6.8-0.3c1.9,0.5,3,1.9,3.1,3.8
			c0.2,3.2,0.1,6.3,0.1,9.5c0,0.2-0.3,0.7-0.5,0.7c-2.5,0.5-5,0.8-7.5,0.3c-2.1-0.4-3.3-1.8-3.4-3.9c-0.1-2.3,0.8-3.9,3-4.5
			c1.7-0.4,3.4-0.4,5.2-0.5c0.3-1.7-0.6-3-2.5-3C-55.5,411.5-56.7,411.7-58.1,411.8z M-51.6,419.2c0-0.6,0.1-1.1,0-1.5
			c0-0.2-0.3-0.6-0.5-0.6c-1.1,0-2.2,0-3.3,0.2c-0.8,0.2-1.2,0.9-1.2,1.8c0,0.9,0.5,1.5,1.3,1.7c0.6,0.1,1.1,0.2,1.7,0.2
			C-51.2,420.8-51.7,420.9-51.6,419.2z"/>
		<path class="st1" d="M-118.6,416.2c0,5.1-3.7,8.2-8.4,7.1c-2.9-0.7-4.8-3.2-5-6.8c-0.3-5.3,4.1-9,8.9-7.4
			C-120.2,410.1-118.6,412.8-118.6,416.2z M-121.7,416.2c-0.3-1-0.4-2-0.8-2.9c-0.5-1.1-1.5-1.6-2.7-1.7c-1.2,0-2.2,0.5-2.8,1.6
			c-1,2-1,4.1,0,6c1.2,2.1,4.3,2.1,5.4-0.1C-122.1,418.3-121.9,417.2-121.7,416.2z"/>
		<path class="st1" d="M-135,411.9c-1.3-0.2-2.4-0.3-3.5-0.4c-0.9,0-1.8,0.1-2,1.2c-0.2,1,0.6,1.4,1.4,1.8c1,0.5,2.1,0.8,3.1,1.3
			c1.8,0.9,2.5,2.2,2.2,4.3c-0.2,1.8-1.4,2.7-3,3.1c-2.3,0.6-4.7,0.4-7.1-0.5c0.2-0.8,0.3-1.7,0.5-2.5c1.3,0.2,2.5,0.4,3.7,0.6
			c0.4,0.1,0.9,0.1,1.3,0c0.5-0.2,1.3-0.6,1.4-1.1c0.1-0.5-0.4-1.3-0.8-1.5c-1-0.6-2.2-1-3.4-1.6c-1.3-0.6-2.2-1.5-2.4-3.1
			c-0.2-2.1,0.7-3.6,2.7-4.3c1.7-0.6,4.6-0.4,6.5,0.4C-134.7,410.4-134.9,411.2-135,411.9z"/>
		<path class="st1" d="M-6.7,420.3c1.5,0.2,2.9,0.4,4.3,0.5c0.8,0.1,1.8,0,2-1.1c0.2-1.1-0.7-1.5-1.5-1.9c-0.8-0.4-1.7-0.7-2.6-1.1
			c-2.1-1-2.9-2.4-2.5-4.6c0.3-1.7,1.8-3,3.8-3.2c1.8-0.2,3.5-0.1,5.4,0.6c-0.2,0.8-0.3,1.6-0.5,2.4c-0.6-0.1-1.2-0.3-1.8-0.4
			c-0.8-0.1-1.6-0.2-2.3,0c-0.5,0.1-1.3,0.7-1.3,1.1c-0.1,0.5,0.4,1.2,0.9,1.5c1.1,0.6,2.3,1,3.4,1.5c1.1,0.5,2,1.3,2.3,2.6
			c0.5,2.6-0.7,4.5-3.3,4.9c-1.8,0.2-3.8,0-5.6-0.2c-0.9-0.1-1.3-0.6-0.9-1.5C-6.9,421.1-6.8,420.6-6.7,420.3z"/>
		<path class="st1" d="M-106.1,420.3c0.2,0.8,0.4,1.6,0.5,2.4c-2.8,1.5-7.2,0.9-9.1-1.3c-2.1-2.4-2.3-7.1-0.3-9.9
			c1.9-2.6,5.6-3.4,9.1-1.9c-0.2,0.8-0.4,1.6-0.5,2.5c-2.2-0.4-4.6-1.2-6,1.2c-1.1,1.9-1.1,4.1,0.1,6
			C-110.7,421.5-108.4,420.7-106.1,420.3z"/>
		<path class="st1" d="M-78.7,423.1c-1.1,0-2,0-3.1,0c0-0.4-0.1-0.8-0.1-1.2c0-5.8,0-11.5,0-17.3c0-1,0.2-1.5,1.3-1.5
			c0.6,0,1.2-0.2,1.9-0.3C-78.7,409.5-78.7,416.3-78.7,423.1z"/>
		<path class="st1" d="M-8.6,409.4c-0.2,0.9-0.4,1.7-0.5,2.3c-1.3,0-2.5,0-3.6,0c-0.8,0-1.1,0.4-1,1.2c0,2.9,0,5.9,0,8.8
			c0,0.4,0,0.8,0,1.3c-1.1,0-2,0-3.1,0c0-0.3-0.1-0.5-0.1-0.8c0-3.8,0-7.6,0-11.4c0-0.7,0.2-1.1,0.9-1.3
			C-13.6,408.9-11.2,408.6-8.6,409.4z"/>
		<path class="st1" d="M-102.4,409.4c1-0.2,2-0.3,3-0.5c0,4.8,0,9.5,0,14.2c-1,0-2,0-3,0C-102.4,418.6-102.4,414.1-102.4,409.4z"/>
		<path class="st1" d="M-99,405.1c0,1.1-0.8,2-2,1.9c-1.1,0-2-0.9-1.9-2c0-1.1,0.9-1.9,2-1.9C-99.8,403.2-99,403.9-99,405.1z"/>
		<path class="st1" d="M-181.7,425.8c-0.2-2.6-0.5-4.9-0.7-7.4c-1.6,0.4-3.1,0.3-4.4-0.6c-1.7-1.2-2.4-3.4-1.7-5.3
			c0.7-1.9,2.7-3.3,4.7-3.1c3.2,0.5,5.7-0.5,7.8-2.9c2-2.3,5.1-2.3,6.9-0.3c1.9,2.1,1.6,5.1-0.8,6.9c-0.2,0.2-0.4,0.3-0.6,0.6
			c0.2,0.2,0.3,0.4,0.4,0.6c1.5,1.6,2.1,1.6,3.3-0.2c0.7-1.1,1.2-2.3,1.8-3.5c1.4,0.4,2.5,1.9,2.3,3.4c-0.2,1.9-1.7,3-4.5,3.2
			c0.2,2.4,0.4,4.8,0.6,7.4C-171.7,423.3-176.8,423.6-181.7,425.8z"/>
	</g>
</g>
</svg>
