<?xml version="1.0" encoding="utf-8"?>
<!-- Generator: Adobe Illustrator 16.0.0, SVG Export Plug-In . SVG Version: 6.00 Build 0)  -->
<!DOCTYPE svg PUBLIC "-//W3C//DTD SVG 1.1//EN" "http://www.w3.org/Graphics/SVG/1.1/DTD/svg11.dtd">
<svg version="1.1" id="Layer_1" xmlns="http://www.w3.org/2000/svg" xmlns:xlink="http://www.w3.org/1999/xlink" x="0px" y="0px"
	 width="64.836px" height="63.783px" viewBox="0 0 64.836 63.783" enable-background="new 0 0 64.836 63.783" xml:space="preserve">
<g id="Group_533" transform="translate(-31.861 -44.127)">
	<path id="Path_113" d="M61.104,56.322h-2.57c-0.184,0.001-0.333,0.151-0.332,0.335l0.01,3.476c0,0.183,0.149,0.332,0.332,0.332
		h2.563c0.182,0.002,0.33-0.144,0.332-0.326c0-0.002,0-0.004,0-0.006v-3.479C61.439,56.47,61.289,56.321,61.104,56.322
		C61.105,56.322,61.104,56.322,61.104,56.322z M58.873,59.801l-0.007-2.816h1.905v2.816H58.873z"/>
	<path id="Path_114" d="M65.026,56.322h-2.571c-0.183,0.001-0.331,0.149-0.332,0.332v3.479c0,0.183,0.149,0.332,0.332,0.332h2.563
		c0.184,0,0.332-0.149,0.332-0.332l0.008-3.476c0-0.089-0.037-0.174-0.101-0.236C65.195,56.359,65.112,56.323,65.026,56.322z
		 M64.686,59.801h-1.9v-2.815h1.906L64.686,59.801z"/>
	<path id="Path_115" d="M68.945,56.322h-2.57c-0.183,0.002-0.33,0.149-0.332,0.332l-0.008,3.479
		c0.002,0.089,0.037,0.174,0.101,0.236s0.147,0.098,0.236,0.1h2.563c0.183,0,0.33-0.148,0.332-0.332l0.012-3.476
		c0.001-0.184-0.147-0.334-0.332-0.335L68.945,56.322z M68.6,59.801h-1.9l0.007-2.816h1.903L68.6,59.801z"/>
	<path id="Path_116" d="M96.543,68.354c-0.486-1.344-1.97-2.039-3.314-1.554l-0.015,0.005l-0.006-0.014
		c-0.583-1.316-1.917-2.134-3.354-2.057c-3.195-6.685-8.723-11.972-15.543-14.868c-4.318-6.118-12.779-7.577-18.897-3.258
		c-1.021,0.72-1.937,1.578-2.723,2.549C47.369,51.015,42.67,54.32,39.122,58.7c-1.064-1.101-2.819-1.13-3.92-0.065
		c-0.246,0.238-0.446,0.52-0.589,0.83c-1.088-0.369-2.27,0.215-2.639,1.304c-0.369,1.088,0.215,2.27,1.304,2.638
		c0.214,0.073,0.439,0.11,0.665,0.11h1.972c-7.839,14.726-2.256,33.019,12.471,40.859c14.726,7.838,33.019,2.255,40.858-12.472
		c3.275-6.153,4.322-13.251,2.962-20.087h1.899c1.43,0,2.588-1.157,2.588-2.586c0-0.301-0.052-0.6-0.154-0.883L96.543,68.354z
		 M63.2,44.791c3.812-0.007,7.431,1.672,9.886,4.587c0.133,0.153,0.26,0.31,0.381,0.47l0.016,0.019
		c0.123,0.16,0.244,0.323,0.361,0.489l0,0c0.885,1.259,1.561,2.654,2,4.129c-8.414-1.077-16.935-1.035-25.338,0.126
		c0.54-1.801,1.429-3.478,2.617-4.936l0,0c0.127-0.157,0.258-0.31,0.393-0.461l0.018-0.02c0.133-0.151,0.271-0.299,0.414-0.444
		C56.367,46.23,59.707,44.801,63.2,44.791z M64.344,71.4c-0.12-0.098-0.292-0.101-0.415-0.007c-5.076,3.874-4.6,12.09-4.422,13.971
		H44.639L46.4,58.871h6.992l0.027,4.592c0.002,0.182,0.15,0.329,0.332,0.329H72.66c0.182,0,0.33-0.146,0.332-0.329l0.033-4.592
		h6.652l1.876,26.493H68.61C69.188,76.806,66.194,72.948,64.344,71.4z M67.944,85.364h-7.77c-0.15-1.614-0.628-9.538,3.947-13.277
		c1.763,1.578,4.374,5.293,3.825,13.277H67.944z M72.699,58.207c-0.182-0.001-0.33,0.146-0.332,0.328c0,0,0,0,0,0.001l-0.032,4.592
		H54.081l-0.03-4.592c0-0.183-0.149-0.33-0.331-0.329c0,0,0,0-0.001,0h-3.91c0.058-0.973,0.211-1.937,0.458-2.879
		c8.528-1.227,17.185-1.276,25.727-0.146c0.246,0.991,0.391,2.004,0.428,3.025H72.699z M33.414,62.9
		c-0.808-0.29-1.228-1.18-0.938-1.987c0.29-0.808,1.18-1.228,1.987-0.938c0.003,0.001,0.006,0.002,0.009,0.003l0.421,0.151
		l0.184-0.41c0.503-1.134,1.831-1.645,2.964-1.142c0.283,0.125,0.537,0.309,0.746,0.537l-0.027,0.033
		c0.144,0.173,0.264,0.365,0.356,0.571l0.043-0.054c0.069,0.144,0.123,0.294,0.16,0.45l0.129,0.548l0.522-0.21
		c0.155-0.065,0.32-0.099,0.488-0.1c0.728,0,1.318,0.59,1.318,1.318s-0.59,1.318-1.318,1.318h-6.516
		C33.763,62.99,33.584,62.96,33.414,62.9z M36.635,63.52h3.825c1.019-0.024,1.826-0.869,1.802-1.889
		c-0.023-0.986-0.816-1.779-1.802-1.802c-0.218,0-0.434,0.039-0.638,0.116c-0.064-0.255-0.166-0.501-0.3-0.728
		c3.277-4.088,7.577-7.237,12.464-9.127c-1.003,1.439-1.757,3.037-2.23,4.726c-0.351,1.1-0.557,2.24-0.614,3.393H46.09
		c-0.175-0.001-0.32,0.134-0.332,0.309l-1.786,26.846h-9.714c-0.083,0.001-0.164,0.033-0.224,0.091
		C32.03,78.082,32.963,70.219,36.635,63.52L36.635,63.52z M62.577,107.278c-13.127-0.018-24.678-8.67-28.385-21.262
		c0.021,0.006,0.043,0.01,0.066,0.012h56.477c0.105,0,0.205-0.055,0.266-0.143c-3.664,12.658-15.246,21.375-28.423,21.391V107.278z
		 M91.061,85.671c-0.012-0.172-0.154-0.305-0.326-0.307h-8.516l-1.9-26.848c-0.01-0.174-0.154-0.31-0.328-0.309h-2.9
		c-0.039-1.097-0.193-2.186-0.462-3.25c0.013-0.063,0.007-0.127-0.017-0.186c-0.363-1.379-0.92-2.701-1.653-3.924
		c6.215,2.885,11.245,7.825,14.239,13.987c-1.262,0.313-2.243,1.305-2.545,2.57v0.019l-0.017-0.007
		c-0.271-0.11-0.559-0.167-0.851-0.166c-1.262,0-2.285,1.023-2.285,2.287c0,1.263,1.023,2.286,2.285,2.286l0,0h5.783
		c0.934,4.59,0.763,9.337-0.5,13.848H91.061z M94.813,71.171c-0.225,0.081-0.462,0.123-0.701,0.123h-8.334
		c-0.973,0.001-1.76-0.786-1.762-1.757c0-0.972,0.786-1.76,1.758-1.761c0.001,0,0.002,0,0.004,0c0.223,0,0.444,0.043,0.651,0.128
		l0.589,0.237l0.145-0.617c0.375-1.585,1.965-2.565,3.549-2.189c0.896,0.212,1.641,0.83,2.016,1.671l0.207,0.461l0.475-0.171
		c1.082-0.354,2.246,0.235,2.6,1.316c0.34,1.036-0.186,2.158-1.199,2.559H94.813z"/>
	<rect id="Rectangle_24" x="42.472" y="90.015" width="40.212" height="0.528"/>
	<rect id="Rectangle_25" x="47.747" y="93.972" width="29.659" height="0.528"/>
	<rect id="Rectangle_26" x="53.023" y="97.929" width="19.109" height="0.528"/>
	<rect id="Rectangle_27" x="58.298" y="101.885" width="8.558" height="0.528"/>
</g>
</svg>
