<?xml version="1.0" encoding="utf-8"?>
<!-- Generator: Adobe Illustrator 16.0.0, SVG Export Plug-In . SVG Version: 6.00 Build 0)  -->
<!DOCTYPE svg PUBLIC "-//W3C//DTD SVG 1.1//EN" "http://www.w3.org/Graphics/SVG/1.1/DTD/svg11.dtd">
<svg version="1.1" id="Layer_1" xmlns="http://www.w3.org/2000/svg" xmlns:xlink="http://www.w3.org/1999/xlink" x="0px" y="0px"
	 width="50px" height="30px" viewBox="0 0 50 30" enable-background="new 0 0 50 30" xml:space="preserve">
<path fill="#FFFFFF" d="M50,15c0,0.828-0.672,1.5-1.5,1.5h-47C0.672,16.5,0,15.828,0,15l0,0c0-0.828,0.671-1.5,1.5-1.5h47
	C49.328,13.5,50,14.172,50,15L50,15z"/>
<path fill="#FFFFFF" d="M3.62,15l9.606-9.605c0.585-0.586,0.585-1.536,0-2.121c-0.586-0.586-1.536-0.586-2.122,0L0.44,13.938
	c0,0-0.001,0-0.001,0.001c-0.441,0.441-0.549,1.089-0.325,1.632c0.073,0.179,0.18,0.346,0.325,0.49c0,0,0.001,0.001,0.001,0.001
	l10.664,10.664c0.585,0.586,1.536,0.586,2.121,0c0.586-0.586,0.586-1.536,0-2.121L3.62,15z"/>
</svg>
