<?xml version="1.0" encoding="utf-8"?>
<!-- Generator: Adobe Illustrator 16.0.0, SVG Export Plug-In . SVG Version: 6.00 Build 0)  -->
<!DOCTYPE svg PUBLIC "-//W3C//DTD SVG 1.1//EN" "http://www.w3.org/Graphics/SVG/1.1/DTD/svg11.dtd">
<svg version="1.1" id="Layer_1" xmlns="http://www.w3.org/2000/svg" xmlns:xlink="http://www.w3.org/1999/xlink" x="0px" y="0px"
	 width="50px" height="30px" viewBox="0 0 50 30" enable-background="new 0 0 50 30" xml:space="preserve">
<path fill="#FFFFFF" d="M0,15c0,0.828,0.672,1.5,1.5,1.5h47c0.828,0,1.5-0.672,1.5-1.5l0,0c0-0.828-0.672-1.5-1.5-1.5h-47
	C0.672,13.5,0,14.172,0,15L0,15z"/>
<path fill="#FFFFFF" d="M46.38,15l-9.606-9.605c-0.584-0.586-0.584-1.536,0-2.121c0.586-0.586,1.537-0.586,2.122,0l10.665,10.665
	c0,0,0,0,0.001,0.001c0.441,0.441,0.549,1.089,0.325,1.632c-0.073,0.179-0.181,0.346-0.325,0.49c-0.001,0-0.001,0.001-0.001,0.001
	L38.896,26.727c-0.586,0.586-1.537,0.586-2.121,0c-0.586-0.586-0.586-1.536,0-2.121L46.38,15z"/>
</svg>
