<?xml version="1.0" encoding="utf-8"?>
<!-- Generator: Adobe Illustrator 16.0.0, SVG Export Plug-In . SVG Version: 6.00 Build 0)  -->
<!DOCTYPE svg PUBLIC "-//W3C//DTD SVG 1.1//EN" "http://www.w3.org/Graphics/SVG/1.1/DTD/svg11.dtd">
<svg version="1.1" id="Layer_1" xmlns="http://www.w3.org/2000/svg" xmlns:xlink="http://www.w3.org/1999/xlink" x="0px" y="0px"
	 width="66.555px" height="69.898px" viewBox="0 0 66.555 69.898" enable-background="new 0 0 66.555 69.898" xml:space="preserve">
<path id="Path_103" d="M33.601,32.287c5.049,0,8.005-19.606,9.041-28.037l0.032-0.261l-0.258-0.052
	c-5.821-1.15-11.813-1.141-17.63,0.03L24.529,4.02l0.032,0.26C25.6,12.701,28.557,32.287,33.601,32.287z M25.156,4.472
	c5.576-1.089,11.31-1.1,16.891-0.032c-0.253,2.036-0.54,4.092-0.858,6.111c-4.978-1.28-10.199-1.284-15.179-0.009
	C25.694,8.54,25.408,6.496,25.156,4.472z M41.099,11.115c-1.75,10.889-4.399,20.606-7.5,20.606c-3.1,0-5.751-9.725-7.5-20.614
	C31.019,9.836,36.181,9.839,41.099,11.115z M62.986,27.954c2.832-1.054,4.274-4.203,3.222-7.035
	c-1.054-2.832-4.203-4.274-7.035-3.221c-1.165,0.433-2.147,1.25-2.786,2.315c-2.554-2.964-5.662-5.399-9.15-7.172V0H19.963v12.828
	C9.794,17.938,3.389,28.36,3.423,39.74c0,1.014,0.052,2.035,0.152,3.037c-0.217,0.215-0.401,0.459-0.548,0.727
	c-1.309-0.325-2.633,0.473-2.958,1.781s0.473,2.634,1.781,2.959c0.192,0.048,0.391,0.071,0.589,0.071h2.225
	c4.743,15.97,21.534,25.071,37.504,20.328S67.24,47.11,62.496,31.14c-0.165-0.556-0.346-1.105-0.542-1.649
	C62.456,29.104,62.819,28.565,62.986,27.954L62.986,27.954z M2.441,47.749c-1.035-0.024-1.854-0.883-1.831-1.918
	C0.633,44.829,1.44,44.023,2.441,44c0.218,0,0.435,0.037,0.64,0.109L3.327,44.2l0.107-0.24c0.587-1.318,2.131-1.911,3.448-1.325
	c0.745,0.331,1.292,0.991,1.479,1.784l0.076,0.322l0.307-0.123c0.832-0.335,1.778,0.069,2.113,0.902
	c0.334,0.833-0.07,1.779-0.902,2.113c-0.192,0.077-0.398,0.117-0.605,0.117h-6.91V47.749z M19.963,65.979
	c-7.074-3.673-12.373-10.04-14.7-17.664h4.089c1.211,0,2.192-0.981,2.192-2.191c0-1.211-0.981-2.192-2.192-2.192
	c-0.174,0-0.348,0.021-0.517,0.063c-0.562-1.657-2.359-2.547-4.017-1.985c-0.247,0.083-0.483,0.197-0.702,0.339
	c-0.075-0.864-0.121-1.739-0.121-2.608C3.963,28.68,10.13,18.535,19.963,13.473V65.979z M61.088,17.921
	c2.706,0.001,4.898,2.196,4.897,4.902c-0.002,1.931-1.136,3.681-2.897,4.47c0-0.036,0.011-0.069,0.011-0.106
	c-0.005-1.613-1.316-2.917-2.93-2.912c-0.246,0.001-0.492,0.033-0.73,0.096c-0.638-1.205-1.87-1.977-3.231-2.025
	C56.446,19.83,58.562,17.912,61.088,17.921z M44.474,0.567C44.074,4.121,40.196,36.809,33.6,36.809S23.127,4.121,22.726,0.567
	H44.474z M46.674,66.267c-8.236,4.084-17.908,4.082-26.143-0.006v-65.7h1.626c0.389,3.535,4.242,36.81,11.444,36.81
	S44.657,4.102,45.046,0.567h1.628V66.267z M63.174,39.74c-0.01,11.031-6.15,21.144-15.935,26.24v-52.5
	c3.384,1.76,6.395,4.159,8.866,7.064c-0.259,0.576-0.417,1.193-0.466,1.824c-1.48,0.169-2.728,1.185-3.193,2.6
	c-0.219-0.06-0.444-0.089-0.672-0.089c-1.44-0.001-2.609,1.166-2.61,2.607c-0.001,1.44,1.166,2.609,2.606,2.61
	c0.002,0,0.003,0,0.004,0h8.415c0.441-0.001,0.876-0.104,1.271-0.3C62.598,32.989,63.178,36.352,63.174,39.74z M60.189,29.534
	h-8.415c-1.128,0-2.042-0.915-2.042-2.043s0.914-2.042,2.042-2.042c0.261-0.001,0.519,0.05,0.76,0.147l0.306,0.123l0.076-0.321
	c0.413-1.743,2.162-2.82,3.905-2.407c0.984,0.234,1.803,0.913,2.215,1.838l0.107,0.239l0.247-0.089
	c1.219-0.44,2.564,0.189,3.006,1.409c0.44,1.219-0.189,2.564-1.409,3.005C60.732,29.487,60.462,29.533,60.189,29.534L60.189,29.534z
	 M41.141,67.201h1.8v0.566h-1.8V67.201z M38.328,67.201h1.8v0.566h-1.8V67.201z M32.702,67.201h1.8v0.566h-1.8V67.201z
	 M35.515,67.201h1.8v0.566h-1.8V67.201z M27.076,67.201h1.8v0.566h-1.802L27.076,67.201z M29.889,67.201h1.8v0.566h-1.8V67.201z
	 M24.263,67.201h1.8v0.566h-1.8V67.201z M41.141,64.872h1.8v0.567h-1.8V64.872z M38.328,64.872h1.8v0.567h-1.8V64.872z
	 M43.954,64.872h1.8v0.567h-1.8V64.872z M32.702,64.872h1.8v0.567h-1.8V64.872z M35.515,64.872h1.8v0.567h-1.8V64.872z
	 M27.076,64.872h1.8v0.567h-1.802L27.076,64.872z M29.889,64.872h1.8v0.567h-1.8V64.872z M21.45,64.872h1.8v0.567h-1.8V64.872z
	 M24.263,64.872h1.8v0.567h-1.8V64.872z M38.328,62.54h1.8v0.566h-1.8V62.54z M43.954,62.54h1.8v0.566h-1.8V62.54z M32.702,62.54
	h1.8v0.566h-1.8V62.54z M27.076,62.54h1.8v0.566h-1.802L27.076,62.54z M29.889,62.54h1.8v0.566h-1.8V62.54z M24.263,62.54h1.8v0.566
	h-1.8V62.54z M41.141,60.21h1.8v0.565h-1.8V60.21z M38.328,60.21h1.8v0.565h-1.8V60.21z M43.954,60.21h1.8v0.565h-1.8V60.21z
	 M32.702,60.21h1.8v0.565h-1.8V60.21z M35.515,60.21h1.8v0.565h-1.8V60.21z M27.076,60.21h1.8v0.565h-1.802L27.076,60.21z
	 M21.45,60.21h1.8v0.565h-1.8V60.21z M24.263,60.21h1.8v0.565h-1.8V60.21z M41.141,57.878h1.8v0.566h-1.8V57.878z M38.328,57.878
	h1.8v0.566h-1.8V57.878z M32.702,57.878h1.8v0.566h-1.8V57.878z M35.515,57.878h1.8v0.566h-1.8V57.878z M27.076,57.878h1.8v0.566
	h-1.802L27.076,57.878z M29.889,57.878h1.8v0.566h-1.8V57.878z M21.45,57.878h1.8v0.566h-1.8V57.878z M24.263,57.878h1.8v0.566h-1.8
	V57.878z M41.141,55.548h1.8v0.567h-1.8V55.548z M38.328,55.548h1.8v0.567h-1.8V55.548z M43.954,55.548h1.8v0.567h-1.8V55.548z
	 M32.702,55.548h1.8v0.567h-1.8V55.548z M35.515,55.548h1.8v0.567h-1.8V55.548z M29.889,55.548h1.8v0.567h-1.8V55.548z
	 M38.328,53.218h1.8v0.567h-1.8V53.218z M27.076,53.218h1.8v0.567h-1.802L27.076,53.218z M29.889,53.218h1.8v0.567h-1.8V53.218z
	 M21.45,53.218h1.8v0.567h-1.8V53.218z M24.263,53.218h1.8v0.567h-1.8V53.218z M41.141,50.887h1.8v0.567h-1.8V50.887z
	 M38.328,50.887h1.8v0.567h-1.8V50.887z M43.954,50.887h1.8v0.567h-1.8V50.887z M32.702,50.887h1.8v0.567h-1.8V50.887z
	 M35.515,50.887h1.8v0.567h-1.8V50.887z M27.076,50.887h1.8v0.567h-1.802L27.076,50.887z M29.889,50.887h1.8v0.567h-1.8V50.887z
	 M24.263,50.887h1.8v0.567h-1.8V50.887z M43.954,48.558h1.8v0.567h-1.8V48.558z M32.702,48.558h1.8v0.567h-1.8V48.558z
	 M35.515,48.558h1.8v0.567h-1.8V48.558z M21.45,48.558h1.8v0.567h-1.8V48.558z M24.263,48.558h1.8v0.567h-1.8V48.558z
	 M41.141,46.228h1.8v0.567h-1.8V46.228z M38.328,46.228h1.8v0.567h-1.8V46.228z M43.954,46.228h1.8v0.567h-1.8V46.228z
	 M32.702,46.228h1.8v0.567h-1.8V46.228z M35.515,46.228h1.8v0.567h-1.8V46.228z M27.076,46.228h1.8v0.567h-1.802L27.076,46.228z
	 M29.889,46.228h1.8v0.567h-1.8V46.228z M21.45,46.228h1.8v0.567h-1.8V46.228z M24.263,46.228h1.8v0.567h-1.8V46.228z
	 M32.702,43.896h1.8v0.567h-1.8V43.896z M35.515,43.896h1.8v0.567h-1.8V43.896z M29.889,43.896h1.8v0.567h-1.8V43.896z
	 M24.263,43.896h1.8v0.567h-1.8V43.896z M41.141,41.566h1.8v0.567h-1.8V41.566z M38.328,41.566h1.8v0.567h-1.8V41.566z
	 M43.954,41.566h1.8v0.567h-1.8V41.566z M32.702,41.566h1.8v0.567h-1.8V41.566z M35.515,41.566h1.8v0.567h-1.8V41.566z
	 M27.076,41.566h1.8v0.567h-1.802L27.076,41.566z M29.889,41.566h1.8v0.567h-1.8V41.566z M21.45,41.566h1.8v0.567h-1.8V41.566z
	 M24.263,41.566h1.8v0.567h-1.8V41.566z M41.141,39.24h1.8v0.566h-1.8V39.24z M38.328,39.24h1.8v0.566h-1.8V39.24z M43.954,39.24
	h1.8v0.566h-1.8V39.24z M32.702,39.24h1.8v0.566h-1.8V39.24z M27.076,39.24h1.8v0.566h-1.802L27.076,39.24z M29.889,39.24h1.8v0.566
	h-1.8V39.24z M24.263,39.24h1.8v0.566h-1.8V39.24z M41.141,36.909h1.8v0.566h-1.8V36.909z M21.45,36.909h1.8v0.566h-1.8V36.909z
	 M24.263,36.909h1.8v0.566h-1.8V36.909z"/>
</svg>
