<?xml version="1.0" encoding="utf-8"?>
<!-- Generator: Adobe Illustrator 16.0.0, SVG Export Plug-In . SVG Version: 6.00 Build 0)  -->
<!DOCTYPE svg PUBLIC "-//W3C//DTD SVG 1.1//EN" "http://www.w3.org/Graphics/SVG/1.1/DTD/svg11.dtd">
<svg version="1.1" id="Layer_1" xmlns="http://www.w3.org/2000/svg" xmlns:xlink="http://www.w3.org/1999/xlink" x="0px" y="0px"
	 width="25px" height="25px" viewBox="0 0 25 25" enable-background="new 0 0 25 25" xml:space="preserve">
<path d="M24.82,7.501V7.489c-0.094-1.05-0.475-2.055-1.104-2.902c-0.706-0.748-1.669-1.201-2.695-1.268l-0.125-0.011h-0.043
	c-3.306-0.245-8.297-0.277-8.345-0.277h-0.008c-0.051,0-5.043,0.032-8.378,0.273H4.078l-0.12,0.015
	C2.93,3.39,1.969,3.858,1.28,4.626c-0.604,0.84-0.981,1.821-1.094,2.85v0.026C0.176,7.585,0,9.574,0,11.58v1.871
	c0,2.002,0.176,3.996,0.183,4.078v0.014c0.095,1.037,0.476,2.029,1.099,2.866c0.736,0.754,1.732,1.198,2.784,1.245
	c0.103,0.012,0.193,0.021,0.249,0.033l0.059,0.006c1.908,0.184,7.891,0.271,8.146,0.274h0.015c0.051,0,5.042-0.03,8.349-0.272h0.043
	l0.14-0.016c1.021-0.058,1.974-0.515,2.656-1.271c0.604-0.84,0.981-1.821,1.094-2.85v-0.026C24.824,17.45,25,15.456,25,13.455V11.58
	C25.005,9.574,24.827,7.585,24.82,7.501z M16.68,13.225l-6.009,3.229c-0.162,0.089-0.343,0.134-0.527,0.134
	c-0.609-0.002-1.101-0.496-1.1-1.105V8.965c0-0.187,0.047-0.37,0.137-0.533c0.294-0.534,0.965-0.729,1.499-0.436l6.007,3.288h-0.002
	c0.188,0.102,0.34,0.257,0.44,0.444C17.417,12.266,17.216,12.935,16.68,13.225z"/>
</svg>
