<?xml version="1.0" encoding="utf-8"?>
<!-- Generator: Adobe Illustrator 16.0.0, SVG Export Plug-In . SVG Version: 6.00 Build 0)  -->
<!DOCTYPE svg PUBLIC "-//W3C//DTD SVG 1.1//EN" "http://www.w3.org/Graphics/SVG/1.1/DTD/svg11.dtd">
<svg version="1.1" id="Layer_1" xmlns="http://www.w3.org/2000/svg" xmlns:xlink="http://www.w3.org/1999/xlink" x="0px" y="0px"
	 width="503.324px" height="251.673px" viewBox="0 248.673 503.324 251.673" enable-background="new 0 248.673 503.324 251.673"
	 xml:space="preserve">
<g id="Group_3199" transform="translate(-1312.111 -434.349)" opacity="0.497">
	<path id="Path_13742" fill="#20C2AF" d="M1564.348,924.008c-132.868,0-240.965-108.1-240.965-240.969
		c0-132.869,108.098-240.967,240.965-240.967c132.866,0,240.97,108.1,240.97,240.965c0,132.866-108.1,240.969-240.97,240.969
		 M1564.348,443.199c-132.248,0-239.838,107.591-239.838,239.838c0,132.247,107.59,239.842,239.838,239.842
		c132.249,0,239.843-107.596,239.843-239.842C1804.191,550.79,1696.597,443.199,1564.348,443.199"/>
	<path id="Path_13743" fill="#20C2AF" d="M1706.616,497.467c0,6.186,5.016,11.2,11.201,11.2s11.199-5.014,11.199-11.2
		s-5.014-11.2-11.199-11.2l0,0C1711.632,486.267,1706.616,491.282,1706.616,497.467"/>
	<path id="Path_13744" fill="#20C2AF" d="M1619.216,654.348c0,6.186,5.016,11.2,11.201,11.2s11.199-5.015,11.199-11.2
		s-5.014-11.2-11.199-11.2l0,0C1624.232,643.148,1619.216,648.162,1619.216,654.348"/>
	<path id="Path_13745" fill="#20C2AF" d="M1600.125,587.024c0,6.186,5.015,11.2,11.2,11.2s11.199-5.015,11.199-11.2
		s-5.014-11.2-11.199-11.2l0,0C1605.14,575.824,1600.125,580.838,1600.125,587.024"/>
	<path id="Path_13746" fill="#20C2AF" d="M1558.847,600.297c0,4.418,3.582,8,8,8s8-3.582,8-8c0-4.418-3.582-8-8-8
		S1558.847,595.879,1558.847,600.297"/>
	<path id="Path_13747" fill="#20C2AF" d="M1481.019,712.464c0,4.418,3.582,8,8,8c4.418,0,8-3.582,8-8c0-4.419-3.582-8-8-8
		C1484.601,704.464,1481.019,708.045,1481.019,712.464"/>
	<path id="Path_13748" fill="#20C2AF" d="M1553.033,769.2c0,6.186,5.015,11.199,11.2,11.199c6.186,0,11.2-5.014,11.2-11.199
		s-5.014-11.201-11.2-11.201l0,0C1558.047,757.998,1553.033,763.014,1553.033,769.2"/>
	<path id="Path_13749" fill="#20C2AF" d="M1438.636,653.534c0,4.418,3.582,8,8,8s8-3.582,8-8s-3.582-8-8-8
		S1438.636,649.116,1438.636,653.534"/>
	<path id="Path_13750" fill="#20C2AF" d="M1743.222,831.346c0,6.186,5.014,11.2,11.199,11.2s11.199-5.015,11.199-11.2
		s-5.014-11.2-11.199-11.2l0,0C1748.235,820.146,1743.222,825.161,1743.222,831.346"/>
	<path id="Path_13751" fill="#20C2AF" d="M1514.308,919.732c0,4.418,3.582,8,8,8c4.418,0,8-3.582,8-8s-3.582-8-8-8
		C1517.89,911.732,1514.308,915.314,1514.308,919.732"/>
	<path id="Path_13752" fill="#20C2AF" d="M1430.124,886.407c0,4.419,3.582,8,8,8s8-3.581,8-8c0-4.418-3.582-8-8-8
		S1430.124,881.989,1430.124,886.407"/>
	<path id="Path_13753" fill="#20C2AF" d="M1367.2,533.412c0,6.186,5.015,11.2,11.2,11.2s11.2-5.015,11.2-11.2s-5.015-11.2-11.2-11.2
		l0,0C1372.214,522.212,1367.2,527.226,1367.2,533.412"/>
	<path id="Path_13754" fill="#20C2AF" d="M1350.034,560.021c0,4.418,3.582,8,8,8c4.418,0,8-3.582,8-8c0-4.418-3.582-8-8-8
		C1353.616,552.021,1350.034,555.603,1350.034,560.021"/>
	<path id="Path_13755" fill="#20C2AF" d="M1793.034,682.962c0,6.186,5.014,11.201,11.199,11.201s11.201-5.016,11.201-11.201
		c0-6.186-5.016-11.2-11.201-11.2l0,0C1798.048,671.762,1793.034,676.776,1793.034,682.962"/>
	<path id="Path_13756" fill="#20C2AF" d="M1559.862,923.495c0,6.186,5.014,11.199,11.2,11.199s11.201-5.014,11.201-11.199
		c0-6.187-5.016-11.2-11.201-11.2l0,0C1564.876,912.295,1559.862,917.31,1559.862,923.495"/>
	<path id="Path_13757" fill="#20C2AF" d="M1600.64,446.527c0,1.767,1.432,3.2,3.199,3.2s3.2-1.433,3.2-3.2
		c0-1.767-1.433-3.2-3.2-3.2l0,0C1602.071,443.327,1600.64,444.76,1600.64,446.527"/>
	<path id="Path_13758" fill="#20C2AF" d="M1711.925,863.101c0,6.186,5.016,11.2,11.201,11.2s11.199-5.015,11.199-11.2
		s-5.014-11.2-11.199-11.2l0,0C1716.941,851.901,1711.925,856.915,1711.925,863.101"/>
	<path id="Path_13759" fill="#20C2AF" d="M1396.733,859.216c0,1.768,1.433,3.2,3.2,3.2c1.767,0,3.2-1.433,3.2-3.2
		s-1.433-3.2-3.2-3.2l0,0C1398.166,856.016,1396.733,857.449,1396.733,859.216"/>
	<path id="Path_13760" fill="#20C2AF" d="M1323.442,644.765c0,1.768,1.433,3.2,3.2,3.2c1.767,0,3.2-1.433,3.2-3.2
		c0-1.768-1.433-3.2-3.2-3.2l0,0C1324.875,641.565,1323.442,642.998,1323.442,644.765"/>
	<path id="Path_13761" fill="#20C2AF" d="M1387.939,516.266c0,1.767,1.433,3.2,3.2,3.2c1.767,0,3.2-1.433,3.2-3.2
		c0-1.768-1.433-3.2-3.2-3.2l0,0C1389.372,513.066,1387.939,514.499,1387.939,516.266"/>
	<path id="Path_13762" fill="#20C2AF" d="M1467.211,461.508c0,1.767,1.433,3.2,3.2,3.2c1.768,0,3.2-1.433,3.2-3.2
		c0-1.768-1.433-3.2-3.2-3.2l0,0C1468.644,458.308,1467.211,459.741,1467.211,461.508"/>
	<path id="Path_13763" fill="#20C2AF" d="M1640.741,456.845c0,3.535,2.865,6.4,6.4,6.4c3.533,0,6.398-2.865,6.398-6.4
		s-2.865-6.4-6.398-6.4C1643.607,450.445,1640.741,453.31,1640.741,456.845L1640.741,456.845"/>
	<path id="Path_13764" fill="#20C2AF" d="M1779.65,583.68c0,1.767,1.434,3.2,3.201,3.2c1.766,0,3.199-1.433,3.199-3.2
		c0-1.768-1.434-3.2-3.199-3.2l0,0C1781.083,580.48,1779.65,581.912,1779.65,583.68"/>
	<path id="Path_13765" fill="#20C2AF" d="M1734.864,849.893c0,1.768,1.432,3.2,3.199,3.2s3.201-1.433,3.201-3.2
		s-1.434-3.2-3.201-3.2l0,0C1736.296,846.693,1734.864,848.125,1734.864,849.893"/>
	<path id="Path_13766" fill="#20C2AF" d="M1661.568,901.038c0,1.767,1.434,3.199,3.201,3.199c1.766,0,3.199-1.433,3.199-3.199
		c0-1.768-1.434-3.2-3.199-3.2l0,0C1663.001,897.838,1661.568,899.271,1661.568,901.038"/>
	<path id="Path_13767" fill="#20C2AF" d="M1481.694,910.701c0,1.768,1.433,3.2,3.2,3.2c1.767,0,3.2-1.433,3.2-3.2
		c0-1.767-1.433-3.199-3.2-3.199l0,0C1483.127,907.501,1481.694,908.934,1481.694,910.701"/>
	<path id="Path_13768" fill="#20C2AF" d="M1349.113,802.765c0,3.534,2.865,6.399,6.4,6.399c3.534,0,6.4-2.865,6.4-6.399
		c0-3.534-2.866-6.399-6.4-6.399C1351.978,796.366,1349.113,799.231,1349.113,802.765L1349.113,802.765"/>
	<path id="Path_13769" fill="#20C2AF" d="M1321.814,728.924c0,3.534,2.865,6.4,6.4,6.4s6.4-2.866,6.4-6.4c0-3.535-2.865-6.4-6.4-6.4
		S1321.814,725.389,1321.814,728.924L1321.814,728.924"/>
	<path id="Path_13770" fill="#20C2AF" d="M1324.696,624.283c0,3.535,2.865,6.4,6.4,6.4c3.534,0,6.4-2.865,6.4-6.4
		c0-3.535-2.866-6.4-6.4-6.4C1327.561,617.883,1324.696,620.748,1324.696,624.283L1324.696,624.283"/>
	<path id="Path_13771" fill="#20C2AF" d="M1428.148,479.806c0,3.535,2.865,6.4,6.4,6.4s6.4-2.865,6.4-6.4s-2.865-6.4-6.4-6.4
		S1428.148,476.271,1428.148,479.806L1428.148,479.806"/>
	<path id="Path_13772" fill="#20C2AF" d="M1569.837,442.349c0,4.418,3.582,8,8,8s8-3.582,8-8s-3.582-8-8-8
		S1569.837,437.931,1569.837,442.349"/>
	<path id="Path_13773" fill="#20C2AF" d="M1745.204,533.629c0,3.534,2.865,6.4,6.4,6.4c3.533,0,6.398-2.866,6.398-6.4
		c0-3.535-2.865-6.4-6.398-6.4C1748.069,527.229,1745.204,530.094,1745.204,533.629L1745.204,533.629"/>
	<path id="Path_13774" fill="#20C2AF" d="M1787.855,615.959c0,3.535,2.865,6.4,6.4,6.4s6.4-2.865,6.4-6.4s-2.865-6.4-6.4-6.4
		S1787.855,612.424,1787.855,615.959L1787.855,615.959"/>
	<path id="Path_13775" fill="#20C2AF" d="M1793.8,729.52c0,3.535,2.865,6.4,6.4,6.4s6.4-2.865,6.4-6.4s-2.865-6.4-6.4-6.4
		S1793.8,725.985,1793.8,729.52L1793.8,729.52"/>
	<path id="Path_13776" fill="#20C2AF" d="M1772.267,792.815c0,3.535,2.865,6.4,6.398,6.4c3.535,0,6.4-2.865,6.4-6.4
		s-2.865-6.4-6.4-6.4C1775.132,786.414,1772.267,789.28,1772.267,792.815L1772.267,792.815"/>
	<path id="Path_13777" fill="#20C2AF" d="M1679.462,891.307c0,2.651,2.148,4.8,4.801,4.8c2.65,0,4.799-2.148,4.799-4.8
		s-2.148-4.8-4.799-4.8C1681.61,886.507,1679.462,888.656,1679.462,891.307L1679.462,891.307"/>
	<path id="Path_13778" fill="#20C2AF" d="M1597.002,919.776c0,3.535,2.865,6.4,6.399,6.4c3.535,0,6.4-2.865,6.4-6.4
		c0-3.534-2.865-6.399-6.4-6.399C1599.867,913.376,1597.002,916.242,1597.002,919.776L1597.002,919.776"/>
	<path id="Path_13779" fill="#20C2AF" d="M1782.819,584.245l-424.817-23.66l0.06-1.127l424.82,23.658L1782.819,584.245z"/>
	<path id="Path_13780" fill="#20C2AF" d="M1358.068,560.585l-0.074-1.127l393.574-26.392l0.074,1.127L1358.068,560.585z"/>
	
		<rect id="Rectangle_119" x="1554.403" y="617.09" transform="matrix(-0.0713 0.9975 -0.9975 -0.0713 2480.8252 -675.6921)" fill="#20C2AF" width="1.13" height="399.93"/>
	<path id="Path_13781" fill="#20C2AF" d="M1752.058,834.726l-429.813-151.692l1.514-0.529l427.439-149.51l0.377,1.066
		l-425.926,148.98l426.786,150.625L1752.058,834.726z"/>
	<path id="Path_13782" fill="#20C2AF" d="M1328.464,729.427l-0.564-0.974c3.274-2.182,428.343-41.5,476.8-45.977l0.1,1.121
		c-4.699,0.435-470.043,43.439-476.34,45.829"/>
	
		<rect id="Rectangle_120" x="1392.55" y="750.523" transform="matrix(-0.7957 0.6057 -0.6057 -0.7957 3357.1785 369.676)" fill="#20C2AF" width="447.373" height="1.132"/>
	<path id="Path_13783" fill="#20C2AF" d="M1683.776,891.604l-249.711-411.507l0.967-0.582l249.713,411.5L1683.776,891.604z"/>
	<path id="Path_13784" fill="#20C2AF" d="M1794.148,616.515l-419.378-82.431l0.214-1.108l419.379,82.431L1794.148,616.515z"/>
	<path id="Path_13785" fill="#20C2AF" d="M1504.399,549.8c0,4.418,3.582,8,8,8c4.418,0,8-3.582,8-8c0-4.418-3.582-8-8-8
		C1507.981,541.8,1504.399,545.382,1504.399,549.8"/>
	<path id="Path_13786" fill="#20C2AF" d="M1452.651,732.246c0,4.418,3.582,8,8,8s8-3.582,8-8c0-4.419-3.582-8-8-8
		S1452.651,727.828,1452.651,732.246"/>
	<path id="Path_13787" fill="#20C2AF" d="M1468.112,611.454c0,2.651,2.149,4.8,4.8,4.8c2.651,0,4.8-2.149,4.8-4.8
		s-2.149-4.8-4.8-4.8C1470.261,606.654,1468.112,608.803,1468.112,611.454L1468.112,611.454"/>
	<path id="Path_13788" fill="#20C2AF" d="M1658.78,591.622c0,4.418,3.582,8,8,8s8-3.582,8-8s-3.582-8-8-8
		S1658.78,587.203,1658.78,591.622"/>
	<path id="Path_13789" fill="#20C2AF" d="M1737.628,705.143c0,3.535,2.867,6.4,6.4,6.4c3.535,0,6.4-2.865,6.4-6.4
		s-2.865-6.4-6.4-6.4C1740.495,698.743,1737.628,701.608,1737.628,705.143L1737.628,705.143"/>
	<path id="Path_13790" fill="#20C2AF" d="M1522.2,657.779c0,3.535,2.865,6.4,6.4,6.4c3.534,0,6.4-2.866,6.4-6.4
		c0-3.534-2.866-6.4-6.4-6.4C1525.065,651.379,1522.2,654.245,1522.2,657.779L1522.2,657.779"/>
	<path id="Path_13791" fill="#20C2AF" d="M1533.204,863.476c0,2.651,2.149,4.8,4.8,4.8s4.8-2.148,4.8-4.8s-2.149-4.8-4.8-4.8
		S1533.204,860.825,1533.204,863.476L1533.204,863.476"/>
	<path id="Path_13792" fill="#20C2AF" d="M1312.111,683.038c0,6.185,5.015,11.201,11.2,11.201c6.186-0.001,11.2-5.016,11.2-11.201
		c0-6.186-5.014-11.2-11.2-11.2l0,0C1317.126,671.838,1312.111,676.852,1312.111,683.038"/>
	<path id="Path_13793" fill="#20C2AF" d="M1804.568,683.571l-430.812-146.814l2.244-6.454l428.938,152.2L1804.568,683.571z"/>
	<path id="Path_13794" fill="#20C2AF" d="M1399.888,861.852l355.285-31.06l0.543,6.811l-355.74,25.374L1399.888,861.852z"/>
	<path id="Path_13795" fill="#20C2AF" d="M1683.712,891.437l-109.199-448.3l6.65-1.577l103.646,449.621L1683.712,891.437z"/>
	<path id="Path_13796" fill="#20C2AF" d="M1327.924,728.438l388.147-233.909l3.49,5.875l-391.06,229.006L1327.924,728.438z"/>
	<path id="Path_13797" fill="#20C2AF" d="M1399.507,862.045l315.734-366.823l5.152,4.489l-320.035,363.074L1399.507,862.045z"/>
	<path id="Path_13798" fill="#20C2AF" d="M1804.939,683.569L1376,835.588l-2.242-6.456l430.81-146.628L1804.939,683.569z"/>
	<path id="Path_13799" fill="#20C2AF" d="M1684.155,891.861l-309.917-56.145l1.279-6.712l308.849,61.749L1684.155,891.861z"/>
	<path id="Path_13800" fill="#20C2AF" d="M1647.29,457.359l-271.53,79.288l-1.756-6.234l272.999-74.085L1647.29,457.359z"/>
	<path id="Path_13801" fill="#20C2AF" d="M1751.081,832.8l-394.895-270.116l3.688-5.324l391.814,274.563L1751.081,832.8z"/>
	<path id="Path_13802" fill="#20C2AF" d="M1722.907,863.588l-400.926-177.6l2.66-5.9l398.706,182.525L1722.907,863.588z"/>
	<path id="Path_13803" fill="#20C2AF" d="M1326.738,647.41l474.042,78.742l-1.16,6.734l-473.073-84.363L1326.738,647.41z"/>
	<path id="Path_13804" fill="#20C2AF" d="M1578.247,441.961l228.99,238.734l-4.971,4.686l-224.842-242.646L1578.247,441.961z"/>
	<path id="Path_13805" fill="#20C2AF" d="M1364.306,832.065c0,6.186,5.014,11.2,11.2,11.2s11.2-5.015,11.2-11.2
		s-5.015-11.199-11.2-11.199l0,0C1369.32,820.866,1364.306,825.879,1364.306,832.065"/>
</g>
</svg>
