<?xml version="1.0" encoding="utf-8"?>
<!-- Generator: Adobe Illustrator 16.0.0, SVG Export Plug-In . SVG Version: 6.00 Build 0)  -->
<!DOCTYPE svg PUBLIC "-//W3C//DTD SVG 1.1//EN" "http://www.w3.org/Graphics/SVG/1.1/DTD/svg11.dtd">
<svg version="1.1" id="Layer_1" xmlns="http://www.w3.org/2000/svg" xmlns:xlink="http://www.w3.org/1999/xlink" x="0px" y="0px"
	 width="40px" height="20px" viewBox="0 0 40 20" enable-background="new 0 0 40 20" xml:space="preserve">
<g>
	<path fill="#34BCAC" d="M36.5,10c0,0.38-0.309,0.688-0.688,0.688H4.188C3.808,10.688,3.5,10.38,3.5,10l0,0
		c0-0.38,0.308-0.688,0.688-0.688h31.625C36.191,9.313,36.5,9.62,36.5,10L36.5,10z"/>
	<path fill="#34BCAC" d="M36.299,9.513l-5.525-5.524c-0.268-0.269-0.703-0.269-0.973,0c-0.268,0.269-0.268,0.704,0,0.972L34.84,10
		l-5.039,5.039c-0.268,0.269-0.268,0.704,0,0.973c0.27,0.269,0.705,0.269,0.973,0l5.525-5.525
		C36.566,10.217,36.566,9.782,36.299,9.513z"/>
</g>
</svg>
