<svg xmlns="http://www.w3.org/2000/svg" width="161.867" height="163.472" viewBox="0 0 161.867 163.472">
  <g id="Group_3287" data-name="Group 3287" transform="translate(-1470 -530)">
    <g id="Group_3285" data-name="Group 3285" transform="translate(-169 -121)">
      <circle id="Ellipse_157" data-name="Ellipse 157" cx="61.5" cy="61.5" r="61.5" transform="translate(1658 671)" fill="#af0a3c" opacity="0.8"/>
    </g>
    <g id="Group_3278" data-name="Group 3278" transform="translate(1872.484 495.112)">
      <g id="Group_3278-2" data-name="Group 3278">
        <path id="Path_13808" data-name="Path 13808" d="M-399.66,91.778l7.948,4.688-.331,1.4-6.824.4,5.917,3.431-.331,1.4-9.2.617.331-1.4,7.2-.393-6.257-3.577.284-1.2,7.184-.4-6.245-3.574Z" fill="#fff"/>
        <path id="Path_13809" data-name="Path 13809" d="M-387.861,81.395l-1.865,3.755,1.542,1.707-.633,1.274-6.342-7.043.778-1.567,9.445.8-.633,1.274Zm-1.29-.121-4.455-.4,3,3.32Z" fill="#fff"/>
        <path id="Path_13810" data-name="Path 13810" d="M-383.207,64.764l-1.881,2.459,6.017,4.6-.833,1.089-6.017-4.6-1.888,2.469-.98-.749,4.6-6.017Z" fill="#fff"/>
        <path id="Path_13811" data-name="Path 13811" d="M-375.547,61.106a4.469,4.469,0,0,1,.472-6.445,4.23,4.23,0,0,1,4.973-.668l-.783,1.114a2.962,2.962,0,0,0-3.356.514,3.149,3.149,0,0,0-.268,4.568,3.172,3.172,0,0,0,4.585.4,2.909,2.909,0,0,0,.986-3.223l1.221-.611a4.218,4.218,0,0,1-1.355,4.8A4.486,4.486,0,0,1-375.547,61.106Z" fill="#fff"/>
        <path id="Path_13812" data-name="Path 13812" d="M-357.238,43.011l4.2,7.744-1.194.647-1.847-3.407-4.027,2.183,1.847,3.407-1.206.654-4.2-7.744,1.207-.654,1.762,3.253,4.027-2.183-1.763-3.252Z" fill="#fff"/>
        <path id="Path_13813" data-name="Path 13813" d="M-336.722,40.651a4.475,4.475,0,0,1,3.938-5.142,4.472,4.472,0,0,1,5.162,3.9,4.485,4.485,0,0,1-3.921,5.165A4.488,4.488,0,0,1-336.722,40.651Zm7.738-1.072a3.166,3.166,0,0,0-3.629-2.822,3.168,3.168,0,0,0-2.75,3.695,3.181,3.181,0,0,0,3.649,2.87A3.178,3.178,0,0,0-328.984,39.579Z" fill="#fff"/>
        <path id="Path_13814" data-name="Path 13814" d="M-311.013,35.5l-.433,5.231a3.457,3.457,0,0,1-4.02,3.406,3.447,3.447,0,0,1-3.392-4.019l.432-5.23,1.367.112-.43,5.206a2.229,2.229,0,0,0,2.127,2.676,2.23,2.23,0,0,0,2.539-2.29l.43-5.2Z" fill="#fff"/>
        <path id="Path_13815" data-name="Path 13815" d="M-299.228,43.771l-2.134-.648-.952,3.134-1.3-.4,2.564-8.438,4.014,1.22a2.792,2.792,0,0,1,1.963,3.506,2.7,2.7,0,0,1-2.734,1.934l1.2,3.906-1.507-.458Zm-1.782-1.806,2.64.8a1.551,1.551,0,0,0,2.029-1A1.557,1.557,0,0,0-297.43,39.8l-2.675-.813Z" fill="#fff"/>
        <path id="Path_13816" data-name="Path 13816" d="M-266.525,55.9l-7.571,5.275-1.133-.882,2.474-6.372-5.583,3.951-1.132-.882,3.269-8.625,1.133.882-2.638,6.707,5.856-4.2.974.759-2.63,6.7,5.848-4.191Z" fill="#fff"/>
        <path id="Path_13817" data-name="Path 13817" d="M-263.751,65.061a4.472,4.472,0,0,1,6.425.775,4.469,4.469,0,0,1-.73,6.422,4.483,4.483,0,0,1-6.438-.75A4.486,4.486,0,0,1-263.751,65.061Zm4.853,6.113a3.163,3.163,0,0,0,.585-4.557,3.167,3.167,0,0,0-4.577-.488,3.179,3.179,0,0,0-.616,4.6A3.176,3.176,0,0,0-258.9,71.174Z" fill="#fff"/>
        <path id="Path_13818" data-name="Path 13818" d="M-252.874,83.631l-.969-2.007-2.948,1.424-.592-1.224,7.936-3.835,1.824,3.776a2.791,2.791,0,0,1-1.245,3.818,2.7,2.7,0,0,1-3.274-.7l-2.058,3.526-.685-1.417Zm.119-2.533,1.2,2.483a1.55,1.55,0,0,0,2.112.812,1.557,1.557,0,0,0,.7-2.131l-1.216-2.517Z" fill="#fff"/>
        <path id="Path_13819" data-name="Path 13819" d="M-247.055,97.741-249,96.673l-2.228.544-.326-1.334,8.567-2.093.325,1.334-4.576,1.118,5.575,2.969.416,1.7-4.627-2.539-3.867,4.926-.4-1.627Z" fill="#fff"/>
      </g>
      <g id="Group_3279" data-name="Group 3279">
        <path id="Path_13820" data-name="Path 13820" d="M-243.441,141.47l-7.948-4.688.331-1.4,6.824-.4-5.917-3.431.331-1.4,9.2-.617-.331,1.4-7.2.393,6.257,3.576-.284,1.2-7.184.4,6.245,3.573Z" fill="#fff"/>
        <path id="Path_13821" data-name="Path 13821" d="M-255.24,151.854l1.865-3.756-1.542-1.707.633-1.274,6.342,7.043-.778,1.568-9.445-.8.633-1.276Zm1.29.12,4.455.4-3.005-3.32Z" fill="#fff"/>
        <path id="Path_13822" data-name="Path 13822" d="M-259.894,168.484l1.881-2.459-6.017-4.6.833-1.09,6.017,4.6,1.888-2.469.979.75-4.6,6.016Z" fill="#fff"/>
        <path id="Path_13823" data-name="Path 13823" d="M-267.554,172.142a4.47,4.47,0,0,1-.472,6.446,4.231,4.231,0,0,1-4.974.667l.784-1.114a2.962,2.962,0,0,0,3.356-.514,3.149,3.149,0,0,0,.268-4.568,3.173,3.173,0,0,0-4.585-.4,2.907,2.907,0,0,0-.986,3.223l-1.221.611a4.218,4.218,0,0,1,1.355-4.8A4.486,4.486,0,0,1-267.554,172.142Z" fill="#fff"/>
        <path id="Path_13824" data-name="Path 13824" d="M-285.863,190.236l-4.2-7.743,1.2-.647,1.847,3.407,4.027-2.183-1.847-3.408,1.206-.652,4.2,7.743-1.206.653-1.762-3.252-4.027,2.183,1.763,3.253Z" fill="#fff"/>
        <path id="Path_13825" data-name="Path 13825" d="M-306.379,192.6a4.474,4.474,0,0,1-3.938,5.141,4.472,4.472,0,0,1-5.162-3.9,4.485,4.485,0,0,1,3.921-5.165A4.489,4.489,0,0,1-306.379,192.6Zm-7.738,1.071a3.166,3.166,0,0,0,3.629,2.822,3.168,3.168,0,0,0,2.75-3.695,3.181,3.181,0,0,0-3.649-2.87A3.178,3.178,0,0,0-314.117,193.669Z" fill="#fff"/>
        <path id="Path_13826" data-name="Path 13826" d="M-332.088,197.747l.433-5.229a3.458,3.458,0,0,1,4.019-3.407,3.448,3.448,0,0,1,3.393,4.02l-.432,5.229-1.367-.112.43-5.206a2.23,2.23,0,0,0-2.127-2.677,2.232,2.232,0,0,0-2.539,2.291l-.43,5.2Z" fill="#fff"/>
        <path id="Path_13827" data-name="Path 13827" d="M-343.873,189.477l2.134.648.952-3.134,1.3.4-2.564,8.437-4.014-1.219a2.791,2.791,0,0,1-1.963-3.5,2.7,2.7,0,0,1,2.734-1.936l-1.2-3.9,1.507.458Zm1.782,1.806-2.64-.8a1.552,1.552,0,0,0-2.03,1,1.558,1.558,0,0,0,1.089,1.964l2.676.813Z" fill="#fff"/>
        <path id="Path_13828" data-name="Path 13828" d="M-376.576,177.35l7.571-5.275,1.133.882-2.474,6.372,5.583-3.95,1.132.881-3.269,8.625-1.133-.882,2.638-6.706-5.856,4.2-.974-.758,2.63-6.7-5.848,4.191Z" fill="#fff"/>
        <path id="Path_13829" data-name="Path 13829" d="M-379.35,168.188a4.472,4.472,0,0,1-6.425-.776,4.469,4.469,0,0,1,.73-6.422,4.484,4.484,0,0,1,6.438.75A4.487,4.487,0,0,1-379.35,168.188Zm-4.853-6.114a3.163,3.163,0,0,0-.585,4.557,3.167,3.167,0,0,0,4.577.488,3.179,3.179,0,0,0,.616-4.6A3.176,3.176,0,0,0-384.2,162.074Z" fill="#fff"/>
        <path id="Path_13830" data-name="Path 13830" d="M-390.228,149.617l.97,2.007,2.948-1.424.592,1.224-7.936,3.835-1.825-3.776a2.791,2.791,0,0,1,1.246-3.818,2.7,2.7,0,0,1,3.274.7l2.058-3.526.685,1.417Zm-.118,2.533-1.2-2.483a1.551,1.551,0,0,0-2.112-.812,1.557,1.557,0,0,0-.7,2.131l1.216,2.517Z" fill="#fff"/>
        <path id="Path_13831" data-name="Path 13831" d="M-396.046,135.507l1.946,1.068,2.228-.545.326,1.334-8.566,2.094-.326-1.334,4.576-1.119-5.576-2.969-.415-1.7,4.627,2.54,3.868-4.927.4,1.628Z" fill="#fff"/>
      </g>
      <g id="Ellipse_21" data-name="Ellipse 21">
        <circle id="Ellipse_155" data-name="Ellipse 155" cx="2.5" cy="2.5" r="2.5" transform="translate(-401.523 113.964)" fill="#fff"/>
      </g>
      <g id="Ellipse_22" data-name="Ellipse 22">
        <circle id="Ellipse_156" data-name="Ellipse 156" cx="2.5" cy="2.5" r="2.5" transform="translate(-246.523 113.964)" fill="#fff"/>
      </g>
    </g>
  </g>
</svg>
