<?xml version="1.0" encoding="utf-8"?>
<!-- Generator: Adobe Illustrator 16.0.0, SVG Export Plug-In . SVG Version: 6.00 Build 0)  -->
<!DOCTYPE svg PUBLIC "-//W3C//DTD SVG 1.1//EN" "http://www.w3.org/Graphics/SVG/1.1/DTD/svg11.dtd">
<svg version="1.1" id="Layer_1" xmlns="http://www.w3.org/2000/svg" xmlns:xlink="http://www.w3.org/1999/xlink" x="0px" y="0px"
	 width="25px" height="25px" viewBox="0 0 25 25" enable-background="new 0 0 25 25" xml:space="preserve">
<g>
	<g>
		<g id="Group_3159_8_">
			<g id="Group_3158_8_">
				<linearGradient id="Path_13716_1_" gradientUnits="userSpaceOnUse" x1="1.4902" y1="21.1006" x2="23.5084" y2="3.8981">
					<stop  offset="0" style="stop-color:#984C9D"/>
					<stop  offset="0.5108" style="stop-color:#EF4123"/>
					<stop  offset="1" style="stop-color:#F8A16A"/>
				</linearGradient>
				<path id="Path_13716_8_" fill="url(#Path_13716_1_)" d="M17.05,0.366h-9.1c-4.189,0-7.584,3.396-7.584,7.584v9.1
					c0,4.188,3.395,7.584,7.584,7.584h9.1c4.188,0,7.584-3.396,7.584-7.584v-9.1C24.634,3.762,21.237,0.366,17.05,0.366z
					 M22.358,17.05c-0.002,2.931-2.379,5.307-5.309,5.31h-9.1c-2.932-0.003-5.307-2.379-5.311-5.31v-9.1
					C2.644,5.02,5.019,2.644,7.95,2.641h9.1c2.93,0.003,5.307,2.379,5.309,5.31V17.05z"/>
			</g>
		</g>
		<g id="Group_3161_8_" transform="translate(6.067 6.067)">
			<g id="Group_3160_8_">
				<linearGradient id="Path_13717_1_" gradientUnits="userSpaceOnUse" x1="1.6508" y1="10.1684" x2="11.2133" y2="2.6973">
					<stop  offset="0" style="stop-color:#984C9D"/>
					<stop  offset="0.5108" style="stop-color:#EF4123"/>
					<stop  offset="1" style="stop-color:#F8A16A"/>
				</linearGradient>
				<path id="Path_13717_8_" fill="url(#Path_13717_1_)" d="M6.432,0.366c-3.35,0-6.066,2.717-6.066,6.067S3.082,12.5,6.432,12.5
					c3.352,0,6.068-2.717,6.068-6.067S9.784,0.366,6.432,0.366L6.432,0.366z M6.432,10.225c-2.094,0-3.791-1.697-3.791-3.792
					s1.697-3.792,3.791-3.792c2.096,0,3.793,1.697,3.793,3.792C10.221,8.526,8.526,10.221,6.432,10.225z"/>
			</g>
		</g>
		<g id="Group_3163_8_" transform="translate(17.847 4.804)">
			<g id="Group_3162_8_">
				<linearGradient id="Ellipse_154_1_" gradientUnits="userSpaceOnUse" x1="0.5358" y1="1.6706" x2="1.8093" y2="0.6756">
					<stop  offset="0" style="stop-color:#984C9D"/>
					<stop  offset="0.5108" style="stop-color:#EF4123"/>
					<stop  offset="1" style="stop-color:#F8A16A"/>
				</linearGradient>
				<circle id="Ellipse_154_8_" fill="url(#Ellipse_154_1_)" cx="1.174" cy="1.174" r="0.808"/>
			</g>
		</g>
	</g>
</g>
</svg>
