<?xml version="1.0" encoding="utf-8"?>
<!-- Generator: Adobe Illustrator 16.0.0, SVG Export Plug-In . SVG Version: 6.00 Build 0)  -->
<!DOCTYPE svg PUBLIC "-//W3C//DTD SVG 1.1//EN" "http://www.w3.org/Graphics/SVG/1.1/DTD/svg11.dtd">
<svg version="1.1" id="Layer_1" xmlns="http://www.w3.org/2000/svg" xmlns:xlink="http://www.w3.org/1999/xlink" x="0px" y="0px"
	 width="62.184px" height="69.5px" viewBox="0 0 62.184 69.5" enable-background="new 0 0 62.184 69.5" xml:space="preserve">
<path id="Path_104" d="M11.775,44.311c0.002-0.765-0.617-1.387-1.382-1.389s-1.387,0.616-1.389,1.382v3.699h2.771V44.311z
	 M11.209,47.443H9.572v-3.132c0.016-0.452,0.395-0.806,0.847-0.79c0.431,0.016,0.775,0.359,0.79,0.79l0,0V47.443z M11.775,51.615
	c0.002-0.765-0.617-1.387-1.382-1.389s-1.387,0.617-1.389,1.382v3.7h2.771V51.615z M11.209,54.746H9.572v-3.131
	c-0.016-0.451,0.338-0.831,0.79-0.847c0.452-0.017,0.831,0.338,0.847,0.79c0.001,0.019,0.001,0.037,0,0.057l0,0V54.746z
	 M16.036,44.311c0-0.765-0.62-1.386-1.385-1.386s-1.385,0.621-1.385,1.386v3.7h2.77V44.311z M15.47,47.443h-1.639v-3.132
	c0-0.452,0.367-0.819,0.819-0.819s0.819,0.367,0.819,0.819l0,0V47.443z M16.036,51.615c0.002-0.765-0.616-1.387-1.382-1.389
	c-0.765-0.002-1.386,0.617-1.388,1.382v3.7h2.77V51.615z M15.47,54.746h-1.639v-3.131c0-0.452,0.367-0.818,0.819-0.818
	s0.819,0.366,0.819,0.818V54.746z M48.925,44.311c-0.001-0.765-0.622-1.384-1.387-1.383c-0.764,0.001-1.382,0.62-1.383,1.383v3.7
	h2.77V44.311z M48.359,47.443h-1.641v-3.132c0-0.452,0.367-0.819,0.819-0.819s0.819,0.367,0.819,0.819L48.359,47.443z
	 M48.925,51.615c-0.001-0.765-0.622-1.384-1.387-1.383c-0.764,0.002-1.382,0.619-1.383,1.383v3.7h2.77V51.615z M48.359,54.746
	h-1.641v-3.131c0-0.452,0.367-0.818,0.819-0.818s0.819,0.366,0.819,0.818v3.133L48.359,54.746z M53.182,44.311
	c-0.002-0.765-0.623-1.384-1.388-1.383c-0.763,0.001-1.382,0.62-1.383,1.383v3.7h2.771V44.311z M52.619,47.442h-1.641v-3.131
	c0-0.452,0.366-0.819,0.818-0.819c0.453,0,0.819,0.367,0.819,0.819L52.619,47.442z M53.185,51.614
	c0.002-0.765-0.616-1.387-1.381-1.389c-0.766-0.003-1.388,0.616-1.39,1.381v3.7h2.771V51.614z M52.619,54.746h-1.641v-3.131
	c0-0.452,0.366-0.818,0.818-0.818c0.453,0,0.819,0.366,0.819,0.818v3.135L52.619,54.746z M29.669,58.069
	c0.001,0.765,0.621,1.385,1.387,1.384c0.765,0,1.384-0.621,1.384-1.386c-0.001-0.765-0.621-1.384-1.385-1.384l0,0
	C30.289,56.684,29.67,57.304,29.669,58.069z M31.869,58.069c0,0.452-0.366,0.819-0.819,0.819c-0.452,0-0.818-0.367-0.818-0.819
	s0.366-0.819,0.818-0.819c0.453-0.002,0.821,0.363,0.823,0.815c0,0.001,0,0.003,0,0.004H31.869z M61.244,22.176l0.939-2.54h-1.4
	v-5.791l0.938-2.538h-1.126V7.069h-0.063l-1.241-4.847V0h-0.565v2.222L57.447,7.07h-0.065v4.238h-1.086l0.9,2.435v5.892h-1.367
	l0.942,2.549v1.421C48.082,9.421,29.54,4.966,15.356,13.655l0,0c-0.573,0.351-1.134,0.721-1.683,1.109
	c-0.667-1.184-2.168-1.603-3.353-0.935c-0.387,0.219-0.708,0.538-0.928,0.924c-1.029-0.225-2.046,0.427-2.271,1.456
	c-0.225,1.029,0.427,2.045,1.456,2.271c0.134,0.029,0.271,0.044,0.408,0.044h0.345c-1.483,1.55-2.797,3.254-3.92,5.082v-1.422
	l0.942-2.549H4.987v-5.892l0.9-2.435H4.802V7.069H4.737L3.459,2.222V0H2.893v2.222L1.652,7.069H1.589v4.238H0.464l0.938,2.538v5.789
	h-1.4l0.938,2.542v2.154H0.396v0.566h0.543v1.867H0.396v0.566h0.543v12.028h0.013c0,16.649,13.497,30.146,30.146,30.146
	c16.648,0,30.146-13.497,30.146-30.146V27.328h0.543v-0.566h-0.543v-1.867h0.543v-0.566h-0.543V22.176z M59.003,3.386l0.944,3.685
	h-1.915L59.003,3.386z M57.947,7.637h2.082v3.665h-2.081L57.947,7.637z M57.109,11.876h3.8l-0.605,1.638h-2.585L57.109,11.876z
	 M60.219,14.076v5.556h-2.456v-5.556H60.219z M57.029,32.021c0.433,0,0.908,0.933,0.972,2.219h-1.942
	C56.119,32.955,56.596,32.021,57.029,32.021z M58.11,37.382l0.645,1.266h-3.366l0.563-1.266H58.11z M56.05,36.816v-2.01h1.944v2.01
	H56.05z M8.987,17.956c-0.74,0.003-1.344-0.595-1.347-1.335s0.595-1.343,1.335-1.347c0.16,0,0.318,0.027,0.468,0.082l0.248,0.09
	l0.106-0.24c0.434-0.956,1.56-1.38,2.515-0.947c0.531,0.24,0.923,0.711,1.062,1.278l0.075,0.319l0.3-0.121
	c0.138-0.055,0.283-0.083,0.432-0.083c0.637,0,1.152,0.517,1.152,1.154c-0.001,0.636-0.517,1.152-1.152,1.152L8.987,17.956z
	 M3.18,3.384l0.971,3.685H2.236L3.18,3.384z M2.155,7.635h2.081V11.3H2.155V7.635z M1.277,11.876h3.8l-0.605,1.638H1.883
	L1.277,11.876z M4.419,14.076v5.556H1.968v-5.556H4.419z M0.81,20.199h4.729l-0.605,1.638H1.419L0.81,20.199z M6.23,37.38
	l0.563,1.267H3.419l0.657-1.267H6.23z M4.169,36.815v-2.009h1.95v2.01L4.169,36.815z M4.177,34.239
	c0.064-1.286,0.539-2.219,0.972-2.219c0.432,0,0.908,0.933,0.972,2.219H4.177z M4.844,24.894v1.867H1.505v-1.866L4.844,24.894z
	 M1.503,24.328v-1.923h3.341v1.924L1.503,24.328z M2.789,38.648v9.284c-0.844-2.78-1.271-5.67-1.27-8.575H1.506V27.328h3.342v4.184
	c-0.683,0.249-1.172,1.327-1.232,2.728H3.606v0.186c0,0.034,0,0.064,0,0.1l0,0v2.517l-0.81,1.609L2.789,38.648z M6.947,56.402
	c-1.487-2.096-2.694-4.377-3.591-6.785v-10.4h3.591V56.402z M6.681,37.001v-2.195h1.354v3.842H7.419L6.681,37.001z M9.933,59.992
	c-0.765-0.785-1.485-1.611-2.158-2.475h2.158V59.992z M11.833,61.772c-0.456-0.392-0.9-0.798-1.333-1.217v-3.039h1.333V61.772z
	 M13.733,63.272c-0.453-0.33-0.9-0.668-1.332-1.022v-4.733h1.332V63.272z M15.633,64.548c-0.452-0.278-0.899-0.571-1.332-0.873
	v-6.159h1.328L15.633,64.548z M17.533,65.617c-0.45-0.232-0.895-0.478-1.332-0.734v-7.366h1.332V65.617z M17.533,56.945H7.519
	v-17.73h10.007L17.533,56.945z M8.609,38.645v-3.839h1.332v3.842L8.609,38.645z M10.509,38.645v-3.839h1.333v3.842L10.509,38.645z
	 M12.409,38.645v-3.839h1.332v3.842L12.409,38.645z M14.309,38.645v-3.839h1.319v3.842L14.309,38.645z M17.539,38.645h-1.344v-3.839
	h1.332L17.539,38.645z M26.76,68.604c-0.551-0.081-1.1-0.177-1.638-0.287v-2.63c0-0.452,0.367-0.818,0.819-0.818
	s0.818,0.366,0.818,0.818v2.923V68.604z M37.011,68.333c-0.54,0.109-1.089,0.199-1.639,0.281v-2.928
	c0-0.452,0.367-0.818,0.819-0.818s0.819,0.366,0.819,0.818V68.333z M39.211,67.787c-0.54,0.154-1.086,0.293-1.638,0.418v-2.518
	c-0.001-0.766-0.622-1.385-1.387-1.383c-0.764,0.001-1.382,0.619-1.383,1.383v3c-2.483,0.323-4.999,0.32-7.481-0.009v-2.991
	c0.002-0.766-0.616-1.387-1.382-1.389c-0.765-0.002-1.387,0.617-1.389,1.382v2.51c-0.569-0.13-1.131-0.274-1.687-0.437h0.049v-4.719
	h16.3L39.211,67.787z M27.321,61.201h11.873v1.266h-16.29v-1.264L27.321,61.201z M25.121,60.634v-3.129
	c0-0.451,0.367-0.818,0.819-0.818s0.818,0.367,0.818,0.818v3.131L25.121,60.634z M35.372,60.634v-3.129
	c0-0.451,0.367-0.818,0.819-0.818s0.818,0.367,0.818,0.818v3.131L35.372,60.634z M39.215,60.634h-1.65v-3.129
	c-0.001-0.764-0.622-1.383-1.388-1.383c-0.763,0.002-1.381,0.62-1.383,1.383v3.131h-7.48v-3.131c0-0.764-0.62-1.385-1.385-1.385
	c-0.766,0-1.386,0.621-1.386,1.385v3.131h-1.639V55.55c5.128-2.574,11.172-2.574,16.3,0L39.215,60.634z M44.115,65.904
	c-1.396,0.688-2.845,1.264-4.332,1.723V55.201l-0.156-0.078c-5.373-2.756-11.745-2.756-17.119,0l-0.155,0.078v5.437h-0.027v2.399
	h0.027v4.569c-1.457-0.454-2.877-1.021-4.246-1.694v-14.5h25.995L44.115,65.904z M44.115,50.839H18.093v-1.264h26.009L44.115,50.839
	z M21.35,22.454v2.01h-1.943v-2.01H21.35z M19.419,21.888c0.064-1.286,0.539-2.22,0.972-2.22c0.114,0.008,0.222,0.06,0.3,0.144
	c0.458,0.593,0.696,1.327,0.674,2.076H19.419z M21.471,25.03l0.563,1.266h-3.29l0.563-1.266H21.471z M41.256,22.454h1.637v2.01
	h-1.948v-2.01H41.256z M40.956,21.888c0.064-1.286,0.539-2.22,0.971-2.22c0.433,0,0.907,0.934,0.972,2.22H40.956z M43.008,25.03
	l0.563,1.266h-3.289l0.563-1.266H43.008z M40.319,34.24v-7.378h3.399v7.378H40.319z M42.204,34.806v3.843H40.87v-3.843H42.204z
	 M33.734,34.24h-11c1.977-4.636,7.338-6.791,11.973-4.814c2.166,0.923,3.891,2.648,4.814,4.814H33.734z M38.973,46.727h1.332v2.282
	h-1.332V46.727z M23.983,46.162c1.342-3.945,5.627-6.055,9.571-4.713c2.218,0.754,3.958,2.495,4.713,4.713H23.983z M36.509,46.727
	v2.282h-1.333v-2.282H36.509z M34.609,46.727v2.282h-1.331v-2.282H34.609z M32.709,46.727v2.282H31.38v-2.282H32.709z
	 M30.809,46.727v2.282h-1.327v-2.282H30.809z M28.909,46.727v2.282h-1.325v-2.282H28.909z M27.009,46.727v2.282h-1.322v-2.282
	H27.009z M25.109,46.727v2.282h-1.321v-2.282H25.109z M37.064,46.727h1.332v2.282h-1.321L37.064,46.727z M31.124,40.476
	c-3.135,0.008-5.988,1.813-7.337,4.645v-5.91h14.619v5.799C37.034,42.241,34.215,40.486,31.124,40.476z M23.787,38.644v-3.838h1.332
	v3.842L23.787,38.644z M25.687,38.644v-3.838h1.332v3.842L25.687,38.644z M27.587,38.644v-3.838h1.332v3.842L27.587,38.644z
	 M29.487,38.644v-3.838h1.332v3.842L29.487,38.644z M31.387,38.644v-3.838h1.331v3.842L31.387,38.644z M33.287,38.644v-3.838h1.332
	v3.842L33.287,38.644z M35.187,38.644v-3.838h1.333v3.842L35.187,38.644z M37.087,38.644v-3.838h1.332v3.842L37.087,38.644z
	 M39.765,26.857v6.546c-2.438-4.765-8.275-6.653-13.041-4.216c-1.758,0.899-3.199,2.313-4.132,4.055v-6.379L39.765,26.857z
	 M23.788,26.296v-3.842h1.331v3.842H23.788z M25.688,26.296v-3.842h1.331v3.842H25.688z M27.588,26.296v-3.842h1.331v3.842H27.588z
	 M29.488,26.296v-3.842h1.331v3.842H29.488z M31.388,26.296v-3.842h1.332v3.842H31.388z M33.288,26.296v-3.842h1.332v3.842H33.288z
	 M35.188,26.296v-3.842h1.333v3.842H35.188z M37.088,26.296v-3.842h1.332v3.842H37.088z M38.988,26.296v-3.842h1.405v2.232
	l-0.717,1.609L38.988,26.296z M23.237,26.296h-0.588l-0.73-1.648v-2.194h1.3L23.237,26.296z M23.237,34.806v3.842h-1.348v-3.842
	H23.237z M38.988,34.806h1.332v3.842h-1.347L38.988,34.806z M40.402,21.888H21.927c-0.01-0.711-0.184-1.411-0.51-2.043
	c3.55-5.364,10.774-6.834,16.138-3.285c1.32,0.874,2.449,2.008,3.316,3.333c-0.309,0.62-0.475,1.302-0.483,1.995H40.402z
	 M22.019,26.862v7.378h-3.468v-7.378H22.019z M21.319,34.806v3.842h-1.328v-3.842H21.319z M19.419,34.806v3.842h-1.326v-3.842
	H19.419z M23.219,39.214v6.947h-1.329v-0.886h-0.009c-0.037-1.269-0.477-2.254-1.094-2.485v-1.348h-0.568v1.348
	c-0.616,0.232-1.057,1.217-1.094,2.486h-0.006v3.732h-1.026v-9.795H23.219z M23.219,46.727v2.282h-1.283v-2.282H23.219z
	 M21.319,45.843V49h-1.634v-3.156H21.319z M19.689,45.277c0.04-1.206,0.492-1.972,0.812-1.972c0.32,0,0.771,0.766,0.812,1.972
	H19.689z M42.505,45.843V49h-1.629v-3.156H42.505z M40.875,45.277c0.041-1.206,0.492-1.972,0.813-1.972
	c0.319,0,0.771,0.766,0.811,1.972H40.875z M44.098,49.009h-1.023v-3.733h-0.008c-0.037-1.269-0.478-2.254-1.094-2.485v-1.348h-0.566
	v1.348c-0.617,0.232-1.057,1.217-1.094,2.486h-0.009v0.885h-1.331v-6.947h5.129L44.098,49.009z M44.098,38.649h-1.329v-3.843h1.332
	L44.098,38.649z M44.184,26.296l-0.733-1.648v-2.472h0.02c0-1.562-0.532-2.774-1.274-3.018v-1.352H41.63v1.35
	c-0.149,0.057-0.286,0.145-0.399,0.259c-2.209-3.273-5.872-5.267-9.82-5.346V11.51h-0.566v2.56c-3.933,0.081-7.584,2.06-9.8,5.311
	c-0.112-0.099-0.243-0.174-0.386-0.221v-1.354h-0.566v1.35c-0.688,0.238-1.186,1.319-1.247,2.731h-0.009v0.189
	c0,0.033,0,0.064,0,0.1l0,0v2.515L18.12,26.3h-0.139v7.944h-11.3c-0.062-1.43-0.573-2.518-1.275-2.736v-4.18H5.92v-0.566H5.406
	v-1.867H5.92v-0.566h-0.3c1.247-2.113,2.752-4.064,4.479-5.807h4.075c0.949,0.004,1.722-0.761,1.727-1.71
	c0.004-0.949-0.762-1.722-1.71-1.726c4.95-3.463,10.849-5.314,16.891-5.3c10.461,0.013,20.141,5.541,25.469,14.543h-0.294v0.566
	h0.515v1.867h-0.515v0.566h0.515v4.175c-0.7,0.217-1.217,1.3-1.279,2.737H44.281v-7.944H44.184z M53.589,34.806v3.842h-1.33v-3.842
	H53.589z M51.689,34.806v3.842h-1.328v-3.842H51.689z M49.789,34.806v3.842h-1.325v-3.842H49.789z M47.889,34.806v3.842h-1.324
	v-3.842H47.889z M45.989,34.806v3.842h-1.322v-3.842H45.989z M45.989,64.882c-0.437,0.256-0.881,0.5-1.332,0.734v-8.101h1.342
	L45.989,64.882z M47.889,63.671c-0.438,0.3-0.881,0.6-1.333,0.875v-7.03h1.333V63.671z M49.789,62.244
	c-0.433,0.355-0.879,0.694-1.332,1.024v-5.752h1.332V62.244z M51.689,60.544c-0.432,0.419-0.876,0.824-1.332,1.217v-4.245h1.332
	V60.544z M52.255,59.979v-2.463h2.148c-0.669,0.858-1.385,1.68-2.145,2.46L52.255,59.979z M54.664,56.951h-10V39.214h10V56.951z
	 M54.664,38.65h-0.511v-3.844h1.325v2.232l-0.716,1.609L54.664,38.65z M58.822,49.621c-0.896,2.408-2.104,4.689-3.591,6.784v-17.19
	h3.591V49.621z M60.674,39.358c-0.003,2.907-0.437,5.796-1.285,8.576v-9.285H59.37l-0.814-1.647v-2.479h0.019
	c0-1.538-0.516-2.742-1.242-3.01v-4.185h3.341L60.674,39.358z M60.674,26.758h-3.337v-1.863h3.342L60.674,26.758z M60.674,24.325
	h-3.337v-1.92h3.342L60.674,24.325z M60.76,21.835h-3.514l-0.605-1.638h4.729L60.76,21.835z"/>
</svg>
