<?xml version="1.0" encoding="utf-8"?>
<!-- Generator: Adobe Illustrator 16.0.0, SVG Export Plug-In . SVG Version: 6.00 Build 0)  -->
<!DOCTYPE svg PUBLIC "-//W3C//DTD SVG 1.1//EN" "http://www.w3.org/Graphics/SVG/1.1/DTD/svg11.dtd">
<svg version="1.1" id="Layer_1" xmlns="http://www.w3.org/2000/svg" xmlns:xlink="http://www.w3.org/1999/xlink" x="0px" y="0px"
	 width="25px" height="25px" viewBox="0 0 25 25" enable-background="new 0 0 25 25" xml:space="preserve">
<g id="Group_3157" transform="translate(0 0)">
	<path id="Path_13715" d="M24.6,4.998c-0.91,0.396-1.873,0.66-2.856,0.782c1.036-0.615,1.813-1.592,2.182-2.741
		c-0.973,0.576-2.036,0.982-3.146,1.2c-1.871-2-5.01-2.104-7.01-0.231c-1.003,0.938-1.573,2.25-1.571,3.623
		c-0.004,0.38,0.034,0.759,0.115,1.131C8.319,8.566,4.599,6.679,2.084,3.571C0.759,5.836,1.427,8.741,3.609,10.2
		c-0.785-0.02-1.554-0.23-2.241-0.61v0.054c0.003,2.361,1.662,4.396,3.974,4.875c-0.424,0.11-0.861,0.166-1.3,0.162
		c-0.315,0.008-0.632-0.021-0.941-0.08c0.656,2.018,2.514,3.401,4.635,3.455c-1.756,1.373-3.92,2.116-6.148,2.114
		C1.19,20.175,0.793,20.152,0.4,20.104c2.269,1.463,4.911,2.235,7.609,2.228c7.745,0.054,14.065-6.181,14.118-13.924
		c0.002-0.064,0.002-0.128,0-0.192c0-0.219-0.008-0.431-0.018-0.642C23.09,6.874,23.934,6.001,24.6,4.998z"/>
</g>
</svg>
