<svg xmlns="http://www.w3.org/2000/svg" width="178.193" height="19.589" viewBox="0 0 178.193 19.589">
  <g id="Group_3196" data-name="Group 3196" transform="translate(0)">
    <path id="Path_13729" data-name="Path 13729" d="M213.969,386.107v2.482a.255.255,0,0,1-.27.27H203.041v5.073h8.8a.255.255,0,0,1,.27.27v2.482a.255.255,0,0,1-.27.27h-8.8v7.5a.255.255,0,0,1-.27.27H200.1a.255.255,0,0,1-.27-.27V386.107a.255.255,0,0,1,.27-.27h13.6A.255.255,0,0,1,213.969,386.107Z" transform="translate(-199.83 -385.486)" fill="#3d1152"/>
    <path id="Path_13730" data-name="Path 13730" d="M335.583,404.724h-2.941a.294.294,0,0,1-.31-.243c-.391-1.551-.863-3.184-1.4-4.83H321.9c-.539,1.646-1.012,3.279-1.389,4.83a.294.294,0,0,1-.31.243H317.37c-.189,0-.3-.108-.243-.3a125.626,125.626,0,0,1,6.907-18.24.516.516,0,0,1,.526-.351h3.831a.516.516,0,0,1,.526.351,123.517,123.517,0,0,1,6.908,18.24C335.88,404.616,335.772,404.724,335.583,404.724Zm-5.653-7.987c-.985-2.725-2.077-5.45-3.2-7.933H326.1c-1.12,2.482-2.226,5.208-3.211,7.933Z" transform="translate(-299.697 -385.486)" fill="#3d1152"/>
    <path id="Path_13731" data-name="Path 13731" d="M474.014,393.431c0-5.855,3.858-9.956,9.363-9.956h.4a8.4,8.4,0,0,1,7.542,4.29.239.239,0,0,1-.095.378l-2.374,1.174a.329.329,0,0,1-.472-.121,5.018,5.018,0,0,0-4.708-2.644h-.4c-3.467,0-5.855,2.752-5.855,6.746s2.348,6.691,5.855,6.691h.4a5.539,5.539,0,0,0,4.6-1.943.343.343,0,0,1,.445-.094l2.442,1.187a.224.224,0,0,1,.135.189.356.356,0,0,1-.081.2,8.818,8.818,0,0,1-7.488,3.535h-.4C477.724,403.064,474.014,399.219,474.014,393.431Z" transform="translate(-433.299 -383.475)" fill="#3d1152"/>
    <path id="Path_13732" data-name="Path 13732" d="M650.977,401.972v2.482a.255.255,0,0,1-.27.27H636.542a.255.255,0,0,1-.27-.27V386.107a.255.255,0,0,1,.27-.27h13.923a.255.255,0,0,1,.27.27v2.482a.255.255,0,0,1-.27.27H639.483v4.911h8.931a.255.255,0,0,1,.27.27v2.455a.255.255,0,0,1-.27.27h-8.931V401.7h11.225A.255.255,0,0,1,650.977,401.972Z" transform="translate(-571.463 -385.486)" fill="#3d1152"/>
    <path id="Path_13733" data-name="Path 13733" d="M804.558,399.544c0,3.305-2.537,5.181-7.016,5.181h-9.282a.255.255,0,0,1-.27-.27V386.107a.255.255,0,0,1,.27-.27h8.459c4.358,0,6.732,1.727,6.732,4.884a3.95,3.95,0,0,1-3.184,4.074C803.263,395.429,804.558,397.223,804.558,399.544Zm-7.906-10.766H791.2v5.073h5.451c2.442,0,3.562-.8,3.562-2.536S799.094,388.778,796.652,388.778Zm4.614,10.482c0-1.754-1.16-2.55-3.71-2.55H791.2v5.073h6.354C800.147,401.783,801.266,401.028,801.266,399.261Z" transform="translate(-700.652 -385.486)" fill="#3d1152"/>
    <path id="Path_13734" data-name="Path 13734" d="M937.62,393.269c0-5.693,3.778-9.794,9.713-9.794h.4c5.936,0,9.714,4.1,9.714,9.794s-3.777,9.794-9.714,9.794h-.4C941.4,403.064,937.62,398.963,937.62,393.269Zm10.118,6.718c3.872,0,6.314-2.658,6.314-6.718s-2.442-6.719-6.314-6.719h-.4c-3.872,0-6.314,2.658-6.314,6.719s2.442,6.718,6.314,6.718Z" transform="translate(-828.062 -383.475)" fill="#3d1152"/>
    <path id="Path_13735" data-name="Path 13735" d="M1108.054,393.269c0-5.693,3.777-9.794,9.714-9.794h.4c5.936,0,9.713,4.1,9.713,9.794s-3.778,9.794-9.713,9.794h-.4C1111.831,403.064,1108.054,398.963,1108.054,393.269Zm10.119,6.718c3.871,0,6.313-2.658,6.313-6.718s-2.442-6.719-6.313-6.719h-.4c-3.873,0-6.314,2.658-6.314,6.719s2.442,6.718,6.314,6.718Z" transform="translate(-973.188 -383.475)" fill="#3d1152"/>
    <path id="Path_13736" data-name="Path 13736" d="M1303.631,404.724h-3.481a.513.513,0,0,1-.472-.229,73.784,73.784,0,0,0-7.784-7.838h-1.565v7.8a.255.255,0,0,1-.27.27h-2.672a.255.255,0,0,1-.27-.27V386.107a.255.255,0,0,1,.27-.27h2.672a.255.255,0,0,1,.27.27v7.447h1.592a57.963,57.963,0,0,0,7.042-7.515.434.434,0,0,1,.4-.2h3.292c.162,0,.243.081.243.189a.334.334,0,0,1-.094.2,67.245,67.245,0,0,1-8.432,8.769,81.3,81.3,0,0,1,9.4,9.39C1303.927,404.563,1303.847,404.724,1303.631,404.724Z" transform="translate(-1125.662 -385.486)" fill="#3d1152"/>
  </g>
</svg>
