<?xml version="1.0" encoding="utf-8"?>
<!-- Generator: Adobe Illustrator 16.0.0, SVG Export Plug-In . SVG Version: 6.00 Build 0)  -->
<!DOCTYPE svg PUBLIC "-//W3C//DTD SVG 1.1//EN" "http://www.w3.org/Graphics/SVG/1.1/DTD/svg11.dtd">
<svg version="1.1" id="Layer_1" xmlns="http://www.w3.org/2000/svg" xmlns:xlink="http://www.w3.org/1999/xlink" x="0px" y="0px"
	 width="25px" height="25px" viewBox="0 0 25 25" enable-background="new 0 0 25 25" xml:space="preserve">
<g>
	<g>
		<path fill="#1686B0" d="M8.456,8.456c1.809,0,3.593,0,5.398,0c0,0.788,0,1.561,0,2.389c0.208-0.3,0.366-0.563,0.555-0.801
			c0.646-0.814,1.513-1.275,2.515-1.46c1.344-0.25,2.679-0.2,3.985,0.207c1.586,0.494,2.589,1.585,3.137,3.125
			c0.41,1.157,0.574,2.359,0.586,3.579c0.023,2.978,0.027,5.959,0.037,8.939c0.001,0.071,0,0.141,0,0.226c-1.811,0-3.598,0-5.413,0
			c0-0.117,0-0.219,0-0.32c0-2.604,0.01-5.209-0.008-7.812c-0.004-0.549-0.056-1.106-0.169-1.643
			c-0.227-1.073-0.925-1.633-2.02-1.712c-0.531-0.037-1.057,0-1.561,0.185c-0.943,0.345-1.328,1.116-1.508,2.032
			c-0.189,0.974-0.141,1.961-0.143,2.943c-0.004,2.01-0.001,4.021-0.001,6.032c0,0.095,0,0.188,0,0.295c-1.806,0-3.589,0-5.392,0
			C8.456,19.264,8.456,13.87,8.456,8.456z"/>
		<path fill="#1686B0" d="M5.712,24.665c-1.792,0-3.568,0-5.363,0c0-5.4,0-10.792,0-16.206c1.781,0,3.562,0,5.363,0
			C5.712,13.854,5.712,19.248,5.712,24.665z"/>
		<path fill="#1686B0" d="M3.037,0.335c1.582,0.03,2.73,1.244,2.692,2.844C5.697,4.573,4.432,5.763,3.012,5.734
			C1.443,5.7,0.296,4.488,0.331,2.899C0.362,1.5,1.62,0.309,3.037,0.335z"/>
	</g>
</g>
</svg>
