<?xml version="1.0" encoding="utf-8"?>
<!-- Generator: Adobe Illustrator 16.0.0, SVG Export Plug-In . SVG Version: 6.00 Build 0)  -->
<!DOCTYPE svg PUBLIC "-//W3C//DTD SVG 1.1//EN" "http://www.w3.org/Graphics/SVG/1.1/DTD/svg11.dtd">
<svg version="1.1" id="Layer_1" xmlns="http://www.w3.org/2000/svg" xmlns:xlink="http://www.w3.org/1999/xlink" x="0px" y="0px"
	 width="25px" height="25px" viewBox="0 0 25 25" enable-background="new 0 0 25 25" xml:space="preserve">
<g>
	<g id="Group_3159">
		<g id="Group_3158">
			<path id="Path_13716" fill="#FFFFFF" d="M17.05,0.366h-9.1c-4.188,0-7.584,3.396-7.584,7.584v9.1
				c0,4.188,3.396,7.584,7.584,7.584h9.1c4.188,0,7.584-3.396,7.584-7.584v-9.1C24.634,3.762,21.238,0.366,17.05,0.366z
				 M22.359,17.05c-0.003,2.931-2.379,5.307-5.31,5.31h-9.1c-2.932-0.003-5.307-2.379-5.31-5.31v-9.1
				c0.003-2.931,2.378-5.307,5.31-5.31h9.1c2.931,0.003,5.307,2.379,5.31,5.31V17.05z"/>
		</g>
	</g>
	<g id="Group_3161" transform="translate(6.067 6.067)">
		<g id="Group_3160">
			<path id="Path_13717" fill="#FFFFFF" d="M6.433,0.366c-3.351,0-6.067,2.717-6.067,6.067S3.082,12.5,6.433,12.5
				S12.5,9.784,12.5,6.433S9.784,0.366,6.433,0.366L6.433,0.366z M6.433,10.225c-2.095,0-3.792-1.697-3.792-3.792
				s1.697-3.792,3.792-3.792s3.792,1.697,3.792,3.792C10.221,8.526,8.526,10.221,6.433,10.225z"/>
		</g>
	</g>
	<g id="Group_3163" transform="translate(17.847 4.804)">
		<g id="Group_3162">
			<circle id="Ellipse_154" fill="#FFFFFF" cx="1.174" cy="1.174" r="0.808"/>
		</g>
	</g>
</g>
</svg>
