<?xml version="1.0" encoding="utf-8"?>
<!-- Generator: Adobe Illustrator 16.0.0, SVG Export Plug-In . SVG Version: 6.00 Build 0)  -->
<!DOCTYPE svg PUBLIC "-//W3C//DTD SVG 1.1//EN" "http://www.w3.org/Graphics/SVG/1.1/DTD/svg11.dtd">
<svg version="1.1" id="Layer_1" xmlns="http://www.w3.org/2000/svg" xmlns:xlink="http://www.w3.org/1999/xlink" x="0px" y="0px"
	 width="30px" height="30px" viewBox="0 0 30 30" enable-background="new 0 0 30 30" xml:space="preserve">
<g>
	<path fill="#FFFFFF" d="M7.575,21.363c-0.391,0.391-1.023,0.391-1.414,0l0,0c-0.391-0.391-0.391-1.023,0-1.414L22.425,3.685
		c0.391-0.391,1.023-0.391,1.414,0l0,0c0.391,0.391,0.391,1.024,0,1.415L7.575,21.363z"/>
	<path fill="#FFFFFF" d="M23.839,19.949c0.39,0.391,0.391,1.023,0,1.414l0,0c-0.391,0.391-1.024,0.391-1.414,0l-7.911-7.912
		c-0.391-0.391-0.391-1.023,0-1.414l0,0c0.391-0.391,1.023-0.391,1.414,0L23.839,19.949z"/>
	<path fill="#FFFFFF" d="M13.127,9.236c0.39,0.391,0.391,1.023,0,1.414l0,0c-0.391,0.391-1.024,0.391-1.414,0L6.161,5.1
		c-0.391-0.391-0.391-1.023,0-1.414l0,0c0.391-0.391,1.023-0.391,1.414,0L13.127,9.236z"/>
</g>
</svg>
