<?xml version="1.0" encoding="utf-8"?>
<!-- Generator: Adobe Illustrator 16.0.0, SVG Export Plug-In . SVG Version: 6.00 Build 0)  -->
<!DOCTYPE svg PUBLIC "-//W3C//DTD SVG 1.1//EN" "http://www.w3.org/Graphics/SVG/1.1/DTD/svg11.dtd">
<svg version="1.1" id="Layer_1" xmlns="http://www.w3.org/2000/svg" xmlns:xlink="http://www.w3.org/1999/xlink" x="0px" y="0px"
	 width="20px" height="20px" viewBox="0 0 20 20" enable-background="new 0 0 20 20" xml:space="preserve">
<g>
	<path fill="#FFFFFF" d="M7.774,14.02c0,0.367-0.297,0.665-0.665,0.665l0,0c-0.367,0-0.665-0.298-0.665-0.665V5.98
		c0-0.367,0.297-0.665,0.665-0.665l0,0c0.367,0,0.665,0.297,0.665,0.665V14.02z"/>
	<path fill="#FFFFFF" d="M13.555,14.02c0,0.367-0.297,0.665-0.664,0.665l0,0c-0.367,0-0.664-0.298-0.664-0.665V5.98
		c0-0.367,0.297-0.665,0.664-0.665l0,0c0.367,0,0.664,0.297,0.664,0.665V14.02z"/>
</g>
</svg>
