<?xml version="1.0" encoding="utf-8"?>
<!-- Generator: Adobe Illustrator 19.0.0, SVG Export Plug-In . SVG Version: 6.00 Build 0)  -->
<svg version="1.1" id="Layer_1" xmlns="http://www.w3.org/2000/svg" xmlns:xlink="http://www.w3.org/1999/xlink" x="0px" y="0px"
	 viewBox="-216 339.4 161.9 163.5" style="enable-background:new -216 339.4 161.9 163.5;" xml:space="preserve">
<style type="text/css">
	.st0{opacity:0.8;fill:#AF0A3C;enable-background:new    ;}
</style>
<g id="Group_3287" transform="translate(-1470 -530)">
	<g id="Group_3285" transform="translate(-169 -121)">
		<circle id="Ellipse_157" class="st0" cx="1503.5" cy="1071.9" r="61.5"/>
	</g>
	<g id="Group_3278" transform="translate(1872.484 495.112)">
		<g id="Group_3278-2">
			<path id="Path_13808" d="M-615.7,431.2l7.9,4.7l-0.3,1.4l-6.8,0.4l5.9,3.4l-0.3,1.4l-9.2,0.6l0.3-1.4l7.2-0.4l-6.3-3.6l0.3-1.2
				l7.2-0.4l-6.2-3.6L-615.7,431.2z"/>
			<path id="Path_13809" d="M-603.9,420.8l-1.9,3.8l1.5,1.7l-0.6,1.3l-6.3-7l0.8-1.6l9.4,0.8l-0.6,1.3L-603.9,420.8z M-605.2,420.7
				l-4.5-0.4l3,3.3L-605.2,420.7z"/>
			<path id="Path_13810" d="M-599.2,404.2l-1.9,2.5l6,4.6l-0.8,1.1l-6-4.6l-1.9,2.5l-1-0.7l4.6-6L-599.2,404.2z"/>
			<path id="Path_13811" d="M-591.5,400.5c-1.7-1.8-1.5-4.7,0.3-6.3c0.1,0,0.1-0.1,0.2-0.1c1.3-1.3,3.3-1.6,5-0.7l-0.8,1.1
				c-1.1-0.6-2.5-0.3-3.4,0.5c-1.3,1.1-1.5,3.1-0.4,4.4c0,0,0.1,0.1,0.1,0.1c1.1,1.4,3.1,1.6,4.5,0.5c0,0,0.1-0.1,0.1-0.1
				c1-0.8,1.4-2,1-3.2l1.2-0.6c0.6,1.7,0.1,3.7-1.4,4.8c-1.8,1.7-4.7,1.5-6.3-0.3C-591.5,400.6-591.5,400.6-591.5,400.5z"/>
			<path id="Path_13812" d="M-573.2,382.4l4.2,7.7l-1.2,0.6l-1.8-3.4l-4,2.2l1.8,3.4l-1.2,0.7l-4.2-7.7l1.2-0.7l1.8,3.3l4-2.2
				l-1.8-3.3L-573.2,382.4z"/>
			<path id="Path_13813" d="M-552.7,380.1c-0.4-2.4,1.3-4.7,3.7-5.1c0.1,0,0.1,0,0.2,0c2.4-0.4,4.7,1.3,5.1,3.7c0,0.1,0,0.1,0,0.2
				c0.4,2.4-1.3,4.7-3.7,5.1c-0.1,0-0.1,0-0.2,0c-2.4,0.4-4.8-1.3-5.1-3.7C-552.7,380.2-552.7,380.1-552.7,380.1z M-545,379
				c-0.2-1.7-1.7-3-3.5-2.8c-0.1,0-0.1,0-0.2,0c-1.7,0.2-3,1.8-2.8,3.5c0,0.1,0,0.1,0,0.2c0.2,1.8,1.7,3,3.4,2.9c0.1,0,0.1,0,0.2,0
				c1.7-0.2,3-1.8,2.8-3.5C-545,379.1-545,379.1-545,379L-545,379z"/>
			<path id="Path_13814" d="M-527,374.9l-0.4,5.2c0,1.9-1.6,3.5-3.5,3.5c-0.2,0-0.4,0-0.6,0c-1.9,0-3.4-1.6-3.4-3.5
				c0-0.2,0-0.4,0-0.6l0.4-5.2l1.4,0.1l-0.4,5.2c-0.2,1.2,0.5,2.4,1.7,2.6c0.1,0,0.3,0,0.4,0c1.2,0.2,2.3-0.7,2.5-1.9
				c0-0.1,0-0.3,0-0.4l0.4-5.2L-527,374.9z"/>
			<path id="Path_13815" d="M-515.2,383.2l-2.1-0.6l-1,3.1l-1.3-0.4l2.6-8.4l4,1.2c1.5,0.4,2.4,1.9,2,3.4c0,0,0,0.1,0,0.1
				c-0.4,1.2-1.5,2-2.7,1.9l1.2,3.9l-1.5-0.5L-515.2,383.2z M-517,381.4l2.6,0.8c0.8,0.3,1.7-0.1,2-0.9c0,0,0-0.1,0-0.1
				c0.3-0.8-0.2-1.7-1-1.9c0,0,0,0-0.1,0l-2.7-0.8L-517,381.4z"/>
			<path id="Path_13816" d="M-482.5,395.3l-7.6,5.3l-1.1-0.9l2.5-6.4l-5.6,4l-1.1-0.9l3.3-8.6l1.1,0.9l-2.6,6.7l5.9-4.2l1,0.8
				l-2.6,6.7l5.8-4.2L-482.5,395.3z"/>
			<path id="Path_13817" d="M-479.8,404.5c1.9-1.6,4.7-1.3,6.3,0.6c0,0.1,0.1,0.1,0.1,0.2c1.6,1.9,1.3,4.7-0.6,6.3
				c-0.1,0-0.1,0.1-0.2,0.1c-1.9,1.6-4.7,1.3-6.3-0.6c0-0.1-0.1-0.1-0.1-0.2c-1.6-1.9-1.3-4.7,0.6-6.3
				C-479.9,404.6-479.8,404.5-479.8,404.5z M-474.9,410.6c1.4-1,1.7-3,0.7-4.4c0,0-0.1-0.1-0.1-0.1c-1.1-1.4-3-1.7-4.4-0.6
				c0,0-0.1,0.1-0.1,0.1c-1.4,1-1.8,3-0.7,4.4c0,0.1,0.1,0.1,0.1,0.2c1.1,1.4,3.1,1.6,4.5,0.6C-475,410.7-474.9,410.6-474.9,410.6
				L-474.9,410.6z"/>
			<path id="Path_13818" d="M-468.9,423l-1-2l-2.9,1.4l-0.6-1.2l7.9-3.8l1.8,3.8c0.7,1.4,0.2,3.1-1.2,3.8c0,0-0.1,0-0.1,0
				c-1.1,0.6-2.5,0.3-3.3-0.7l-2.1,3.5l-0.7-1.4L-468.9,423z M-468.8,420.5l1.2,2.5c0.3,0.8,1.2,1.2,2,0.9c0,0,0.1,0,0.1,0
				c0.8-0.4,1.1-1.3,0.7-2.1c0,0,0,0,0-0.1l-1.2-2.5L-468.8,420.5z"/>
			<path id="Path_13819" d="M-463.1,437.2l-1.9-1.1l-2.2,0.5l-0.3-1.3l8.6-2.1l0.3,1.3l-4.6,1.1l5.6,3l0.4,1.7l-4.6-2.5l-3.9,4.9
				l-0.4-1.6L-463.1,437.2z"/>
		</g>
		<g id="Group_3279">
			<path id="Path_13820" d="M-459.4,480.9l-7.9-4.7l0.3-1.4l6.8-0.4l-5.9-3.4l0.3-1.4l9.2-0.6l-0.3,1.4l-7.2,0.4l6.3,3.6l-0.3,1.2
				l-7.2,0.4l6.2,3.6L-459.4,480.9z"/>
			<path id="Path_13821" d="M-471.2,491.3l1.9-3.8l-1.5-1.7l0.6-1.3l6.3,7l-0.8,1.6l-9.4-0.8l0.6-1.3L-471.2,491.3z M-470,491.4
				l4.5,0.4l-3-3.3L-470,491.4z"/>
			<path id="Path_13822" d="M-475.9,507.9l1.9-2.5l-6-4.6l0.8-1.1l6,4.6l1.9-2.5l1,0.8l-4.6,6L-475.9,507.9z"/>
			<path id="Path_13823" d="M-483.6,511.6c1.7,1.8,1.5,4.7-0.3,6.3c-0.1,0-0.1,0.1-0.2,0.1c-1.3,1.3-3.3,1.6-5,0.7l0.8-1.1
				c1.1,0.6,2.5,0.3,3.4-0.5c1.3-1.1,1.5-3.1,0.4-4.4c0,0-0.1-0.1-0.1-0.1c-1.1-1.4-3.1-1.6-4.5-0.5c0,0-0.1,0.1-0.1,0.1
				c-1,0.8-1.4,2-1,3.2l-1.2,0.6c-0.6-1.7-0.1-3.7,1.4-4.8c1.8-1.7,4.7-1.5,6.3,0.3C-483.6,511.5-483.6,511.5-483.6,511.6z"/>
			<path id="Path_13824" d="M-501.9,529.7l-4.2-7.7l1.2-0.6l1.8,3.4l4-2.2l-1.8-3.4l1.2-0.7l4.2,7.7l-1.2,0.7l-1.8-3.3l-4,2.2
				l1.8,3.3L-501.9,529.7z"/>
			<path id="Path_13825" d="M-522.4,532c0.4,2.4-1.3,4.7-3.7,5.1c-0.1,0-0.1,0-0.2,0c-2.4,0.4-4.7-1.3-5.1-3.7c0-0.1,0-0.1,0-0.2
				c-0.4-2.4,1.3-4.7,3.7-5.1c0.1,0,0.1,0,0.2,0c2.4-0.4,4.8,1.3,5.1,3.7C-522.4,531.9-522.4,531.9-522.4,532z M-530.1,533.1
				c0.2,1.7,1.7,3,3.5,2.8c0.1,0,0.1,0,0.2,0c1.7-0.2,3-1.8,2.8-3.5c0-0.1,0-0.1,0-0.2c-0.2-1.8-1.7-3-3.4-2.9c-0.1,0-0.1,0-0.2,0
				c-1.7,0.2-3,1.8-2.8,3.5C-530.1,533-530.1,533-530.1,533.1L-530.1,533.1z"/>
			<path id="Path_13826" d="M-548.1,537.2l0.4-5.2c0-1.9,1.6-3.5,3.5-3.5c0.2,0,0.4,0,0.6,0c1.9,0,3.4,1.6,3.4,3.5
				c0,0.2,0,0.4,0,0.6l-0.4,5.2l-1.4-0.1l0.4-5.2c0.2-1.2-0.5-2.4-1.7-2.6c-0.1,0-0.3,0-0.4,0c-1.2-0.2-2.3,0.7-2.5,1.9
				c0,0.1,0,0.3,0,0.4l-0.4,5.2L-548.1,537.2z"/>
			<path id="Path_13827" d="M-559.9,528.9l2.1,0.6l1-3.1l1.3,0.4l-2.6,8.4l-4-1.2c-1.5-0.4-2.4-1.9-2-3.4c0,0,0-0.1,0-0.1
				c0.4-1.2,1.5-2,2.7-1.9l-1.2-3.9l1.5,0.5L-559.9,528.9z M-558.1,530.7l-2.6-0.8c-0.8-0.3-1.7,0.1-2,0.9c0,0,0,0.1,0,0.1
				c-0.3,0.8,0.2,1.7,1,1.9c0,0,0,0,0.1,0l2.7,0.8L-558.1,530.7z"/>
			<path id="Path_13828" d="M-592.6,516.8l7.6-5.3l1.1,0.9l-2.5,6.4l5.6-4l1.1,0.9l-3.3,8.6l-1.1-0.9l2.6-6.7l-5.9,4.2l-1-0.8
				l2.6-6.7l-5.8,4.2L-592.6,516.8z"/>
			<path id="Path_13829" d="M-595.4,507.6c-1.9,1.6-4.7,1.3-6.3-0.6c0-0.1-0.1-0.1-0.1-0.2c-1.6-1.9-1.3-4.7,0.6-6.3
				c0.1,0,0.1-0.1,0.2-0.1c1.9-1.6,4.7-1.3,6.3,0.6c0,0.1,0.1,0.1,0.1,0.2c1.6,1.9,1.3,4.7-0.6,6.3
				C-595.2,507.5-595.3,507.6-595.4,507.6z M-600.2,501.5c-1.4,1-1.7,3-0.7,4.4c0,0,0.1,0.1,0.1,0.1c1.1,1.4,3,1.7,4.4,0.6
				c0,0,0.1-0.1,0.1-0.1c1.4-1,1.8-3,0.7-4.4c0-0.1-0.1-0.1-0.1-0.2c-1.1-1.4-3.1-1.6-4.5-0.6C-600.1,501.4-600.2,501.4-600.2,501.5
				L-600.2,501.5z"/>
			<path id="Path_13830" d="M-606.2,489l1,2l2.9-1.4l0.6,1.2l-7.9,3.8l-1.8-3.8c-0.7-1.4-0.2-3.1,1.2-3.8c0,0,0.1,0,0.1,0
				c1.1-0.6,2.5-0.3,3.3,0.7l2.1-3.5l0.7,1.4L-606.2,489z M-606.3,491.6l-1.2-2.5c-0.3-0.8-1.2-1.2-2-0.9c0,0-0.1,0-0.1,0
				c-0.8,0.4-1.1,1.3-0.7,2.1c0,0,0,0,0,0.1l1.2,2.5L-606.3,491.6z"/>
			<path id="Path_13831" d="M-612,474.9l1.9,1.1l2.2-0.5l0.3,1.3l-8.6,2.1l-0.3-1.3l4.6-1.1l-5.6-3l-0.4-1.7l4.6,2.5l3.9-4.9
				l0.4,1.6L-612,474.9z"/>
		</g>
		<g id="Ellipse_21">
			<circle id="Ellipse_155" cx="-615" cy="455.9" r="2.5"/>
		</g>
		<g id="Ellipse_22">
			<circle id="Ellipse_156" cx="-460" cy="455.9" r="2.5"/>
		</g>
	</g>
</g>
</svg>
