<?xml version="1.0" encoding="utf-8"?>
<!-- Generator: Adobe Illustrator 16.0.0, SVG Export Plug-In . SVG Version: 6.00 Build 0)  -->
<!DOCTYPE svg PUBLIC "-//W3C//DTD SVG 1.1//EN" "http://www.w3.org/Graphics/SVG/1.1/DTD/svg11.dtd">
<svg version="1.1" id="Layer_1" xmlns="http://www.w3.org/2000/svg" xmlns:xlink="http://www.w3.org/1999/xlink" x="0px" y="0px"
	 width="40px" height="40px" viewBox="0 0 40 40" enable-background="new 0 0 40 40" xml:space="preserve">
<g>
	<image overflow="visible" width="116" height="175" xlink:href="E02B09F6.png"  transform="matrix(0.24 0 0 0.24 6.1592 -0.9727)">
	</image>
	<g>
		<path fill="#FFFFFF" d="M27.841,20c0-0.181-0.069-0.363-0.208-0.501L13.371,5.235c-0.277-0.277-0.727-0.277-1.004,0
			c-0.277,0.277-0.277,0.727,0,1.004l13.761,13.76L12.367,33.761c-0.277,0.276-0.277,0.727,0,1.004c0.277,0.276,0.727,0.276,1.003,0
			l14.262-14.264c0.087-0.086,0.137-0.191,0.169-0.301C27.821,20.134,27.841,20.068,27.841,20z"/>
	</g>
</g>
</svg>
