<?xml version="1.0" encoding="utf-8"?>
<!-- Generator: Adobe Illustrator 16.0.0, SVG Export Plug-In . SVG Version: 6.00 Build 0)  -->
<!DOCTYPE svg PUBLIC "-//W3C//DTD SVG 1.1//EN" "http://www.w3.org/Graphics/SVG/1.1/DTD/svg11.dtd">
<svg version="1.1" id="Layer_1" xmlns="http://www.w3.org/2000/svg" xmlns:xlink="http://www.w3.org/1999/xlink" x="0px" y="0px"
	 width="90px" height="130px" viewBox="0 0 90 130" enable-background="new 0 0 90 130" xml:space="preserve">
<path fill="#FFFFFF" d="M45,129.07c-23.976,0-43.482-19.506-43.482-43.481V44.412C1.518,20.436,21.024,0.93,45,0.93
	c23.977,0,43.482,19.506,43.482,43.481v41.177C88.482,109.564,68.977,129.07,45,129.07z M45,6.93
	c-20.667,0-37.482,16.814-37.482,37.481v41.177c0,20.667,16.814,37.48,37.482,37.48s37.482-16.813,37.482-37.48V44.412
	C82.482,23.744,65.668,6.93,45,6.93z"/>
<path fill="#FFFFFF" d="M48.686,59.651c0,2.035-1.649,3.685-3.685,3.685l0,0c-2.035,0-3.685-1.65-3.685-3.685V29.845
	c0-2.035,1.65-3.685,3.685-3.685l0,0c2.035,0,3.685,1.65,3.685,3.685V59.651z"/>
</svg>
