<svg xmlns="http://www.w3.org/2000/svg" xmlns:xlink="http://www.w3.org/1999/xlink" width="458.473" height="458.472" viewBox="0 0 458.473 458.472">
  <defs>
    <clipPath id="clip-path">
      <rect id="Rectangle_134" data-name="Rectangle 134" width="441.157" height="441.699" transform="translate(994.913 442.978)" fill="none"/>
    </clipPath>
  </defs>
  <g id="Group_3302" data-name="Group 3302" transform="translate(-986.894 -436.571)">
    <path id="Path_13952" data-name="Path 13952" d="M1445.367,665.807c0,126.6-102.633,229.236-229.236,229.236S986.894,792.411,986.894,665.807s102.633-229.236,229.237-229.236S1445.367,539.2,1445.367,665.807" fill="#e81f76"/>
    <g id="Group_3301" data-name="Group 3301" style="mix-blend-mode: screen;isolation: isolate">
      <g id="Group_3300" data-name="Group 3300">
        <g id="Group_3299" data-name="Group 3299" clip-path="url(#clip-path)">
          <path id="Path_13953" data-name="Path 13953" d="M1054.681,663.016a83.036,83.036,0,0,1-20.476,53.748c-5.9,6.792,3.989,16.759,9.924,9.924a98.26,98.26,0,0,0,24.587-63.672c.162-9.035-13.872-9.036-14.035,0" fill="#e81f76"/>
          <path id="Path_13954" data-name="Path 13954" d="M1034.058,604.772a201.293,201.293,0,0,0-10.243,61.944c-.089,9.034,13.946,9.041,14.035,0a188.442,188.442,0,0,1,9.742-58.213c2.861-8.588-10.688-12.272-13.534-3.731" fill="#e81f76"/>
          <path id="Path_13955" data-name="Path 13955" d="M1403.99,631.9a193.6,193.6,0,0,0-85.956-127.143c-49.221-31.321-112.241-38.368-167.153-18.531-35.56,12.845-65.735,35.76-88.765,65.591-5.515,7.145,6.671,14.14,12.119,7.084a179.736,179.736,0,0,1,162.243-68.641c48.065,5.539,92.967,31.685,121.712,70.574a181.554,181.554,0,0,1,32.267,74.8c1.663,8.866,15.192,5.111,13.533-3.731" fill="#e81f76"/>
          <path id="Path_13956" data-name="Path 13956" d="M1390.008,757.578c13.238-26.564,16.148-56.136,17.086-85.41.289-9.034-13.746-9.024-14.035,0-.854,26.666-3.089,54.085-15.17,78.327-4.016,8.06,8.086,15.176,12.119,7.083" fill="#e81f76"/>
          <path id="Path_13957" data-name="Path 13957" d="M1362.476,664.348a386.57,386.57,0,0,1-23.641,131.524c-3.11,8.495,10.448,12.157,13.533,3.731a398.272,398.272,0,0,0,24.143-135.255c.043-9.032-13.992-9.043-14.035,0" fill="#e81f76"/>
          <path id="Path_13958" data-name="Path 13958" d="M1326.432,711.236a352.38,352.38,0,0,1-39.995,119.772c-4.356,7.918,7.76,15.008,12.118,7.083a362.97,362.97,0,0,0,41.41-123.124c1.278-8.835-12.243-12.65-13.533-3.731" fill="#e81f76"/>
          <path id="Path_13959" data-name="Path 13959" d="M1279.544,766.2a322.558,322.558,0,0,1-41.183,79.369c-5.224,7.389,6.94,14.408,12.119,7.084a335.733,335.733,0,0,0,42.6-82.722c3-8.538-10.553-12.209-13.533-3.731" fill="#e81f76"/>
          <path id="Path_13960" data-name="Path 13960" d="M1296.637,664.348a322.394,322.394,0,0,1-9.56,76.7c-2.2,8.763,11.336,12.5,13.533,3.731a338.8,338.8,0,0,0,10.062-80.435c.053-9.033-13.982-9.043-14.035,0" fill="#e81f76"/>
          <path id="Path_13961" data-name="Path 13961" d="M1263.718,664.348a281.232,281.232,0,0,1-67.4,181.469c-5.839,6.83,4.043,16.8,9.924,9.924a296.379,296.379,0,0,0,71.511-191.393c.051-9.033-13.984-9.043-14.035,0" fill="#e81f76"/>
          <path id="Path_13962" data-name="Path 13962" d="M1230.8,664.348a248.449,248.449,0,0,1-72.9,174.414c-6.389,6.4,3.532,16.328,9.924,9.923a262.917,262.917,0,0,0,77.008-184.337c.057-9.033-13.978-9.043-14.035,0" fill="#e81f76"/>
          <path id="Path_13963" data-name="Path 13963" d="M1186.358,664.348A215.535,215.535,0,0,1,1117.237,821.1c-6.623,6.169,3.317,16.076,9.924,9.924a229.577,229.577,0,0,0,73.231-166.672c.066-9.033-13.97-9.042-14.034,0" fill="#e81f76"/>
          <path id="Path_13964" data-name="Path 13964" d="M1153.439,664.348c-.441,53.084-23.562,102.357-63.621,137.083-6.836,5.928,3.127,15.818,9.925,9.925a196.322,196.322,0,0,0,67.731-147.008c.075-9.033-13.96-9.042-14.035,0" fill="#e81f76"/>
          <path id="Path_13965" data-name="Path 13965" d="M1120.519,663.016c-.444,44.531-20.193,85.379-54.278,113.914-6.934,5.8,3.039,15.687,9.924,9.923a163.094,163.094,0,0,0,58.389-123.837c.09-9.034-13.945-9.041-14.035,0" fill="#e81f76"/>
          <path id="Path_13966" data-name="Path 13966" d="M1101.635,663.016q-.012-1.184-.023-2.367c-.087-9.026-14.122-9.049-14.035,0,.33,34.377-14.07,65.847-39.66,88.656-6.757,6.023,3.2,15.919,9.924,9.924a129.916,129.916,0,0,0,43.771-98.58c-.087-9.026-14.122-9.049-14.035,0q.012,1.184.023,2.367c.087,9.026,14.122,9.048,14.035,0" fill="#e81f76"/>
          <path id="Path_13967" data-name="Path 13967" d="M1215.494,635.213c-16.455.886-28.249,12.675-29.136,29.136-.486,9.025,13.551,9,14.035,0,1.047-19.432,29.153-19.47,30.2,0,.484,8.983,14.522,9.04,14.035,0-.886-16.455-12.676-28.25-29.136-29.136-9.025-.486-9,13.55,0,14.035a15.467,15.467,0,0,1,15.1,15.1c.484,8.983,14.522,9.04,14.035,0-.851-15.789-12.684-29.136-29.136-29.136s-28.286,13.348-29.136,29.136c-.486,9.025,13.551,9,14.035,0a15.467,15.467,0,0,1,15.1-15.1c8.983-.484,9.041-14.522,0-14.035" fill="#e81f76"/>
          <path id="Path_13968" data-name="Path 13968" d="M1215.494,602.294a63.051,63.051,0,0,0-62.055,62.054c-.216,9.035,13.819,9.031,14.034,0,.625-26.139,21.4-48.019,48.021-48.019s47.4,21.874,48.021,48.019c.215,9.016,14.25,9.05,14.034,0a63.05,63.05,0,0,0-62.055-62.054c-9.035-.216-9.031,13.819,0,14.035a48.718,48.718,0,0,1,48.021,48.019c.215,9.016,14.25,9.05,14.034,0-.8-33.718-27.711-62.054-62.055-62.054s-61.25,28.336-62.055,62.054c-.216,9.035,13.819,9.031,14.034,0a48.718,48.718,0,0,1,48.021-48.019c9.016-.216,9.05-14.251,0-14.035" fill="#e81f76"/>
          <path id="Path_13969" data-name="Path 13969" d="M1212.654,569.42a96.319,96.319,0,0,0-92.135,94.928c-.138,9.035,13.9,9.038,14.035,0a82,82,0,0,1,80.94-80.938c9.022-.139,9.049-14.174,0-14.035a96.277,96.277,0,0,0-94.975,94.973h14.035a81.99,81.99,0,0,1,78.1-80.893c8.992-.425,9.043-14.462,0-14.035" fill="#e81f76"/>
          <path id="Path_13970" data-name="Path 13970" d="M1310.468,664.349a96.826,96.826,0,0,0-49.834-83.542c-7.891-4.415-14.975,7.7-7.083,12.118,26.319,14.725,42.384,41.214,42.882,71.424.149,9.022,14.184,9.05,14.035,0" fill="#e81f76"/>
          <path id="Path_13971" data-name="Path 13971" d="M1113.059,614.622c25.314-49.553,82.173-75.614,136.005-59.076,48.394,14.868,80.749,60.931,80.266,111.17-.086,9.033,13.948,9.041,14.035,0a129.626,129.626,0,0,0-56.722-108.581c-41.894-28.426-97.536-28.153-140.092-1.46-7.634,4.788-.6,16.937,7.083,12.119,38.631-24.231,87.938-24.265,125.926,1.459,31.856,21.572,50.138,58.236,49.77,96.463-.086,9.033,13.948,9.041,14.035,0a129.568,129.568,0,0,0-57.588-109.163c-38.2-25.389-88.555-27.726-129.2-6.694-24.075,12.459-43.352,32.628-55.639,56.68-4.1,8.027,8.005,15.138,12.119,7.083" fill="#e81f76"/>
          <path id="Path_13972" data-name="Path 13972" d="M1337.913,560.209a163.188,163.188,0,0,0-122.419-56.672c-9.034-.091-9.041,13.944,0,14.034,43.736.439,83.983,19.484,112.495,52.562,5.907,6.853,15.8-3.112,9.924-9.924" fill="#e81f76"/>
          <path id="Path_13973" data-name="Path 13973" d="M1348.079,601.351a150.926,150.926,0,0,1,14.193,63c.1,9.024,14.14,9.048,14.035,0a167.678,167.678,0,0,0-16.109-70.081c-3.845-8.167-15.948-1.05-12.119,7.083" fill="#e81f76"/>
          <path id="Path_13974" data-name="Path 13974" d="M1324.05,565.654q2.011,2.207,3.942,4.484a7.069,7.069,0,0,0,4.963,2.056,7.141,7.141,0,0,0,4.962-2.056,7.061,7.061,0,0,0,2.055-4.962,7.874,7.874,0,0,0-2.055-4.962q-1.93-2.277-3.943-4.484a7.069,7.069,0,0,0-9.924,0,7.174,7.174,0,0,0,0,9.924" fill="#e81f76"/>
          <path id="Path_13975" data-name="Path 13975" d="M1215.494,517.571a149.34,149.34,0,0,1,108.557,48.083c6.17,6.622,16.078-3.319,9.924-9.924a163.47,163.47,0,0,0-118.481-52.194c-9.034-.092-9.041,13.943,0,14.035" fill="#e81f76"/>
          <path id="Path_13976" data-name="Path 13976" d="M1065.22,607.159a167.943,167.943,0,0,0-10.54,57.189h14.035c.571-62.071,39.855-117.739,98.44-138.615,8.447-3.01,4.807-16.575-3.731-13.533A163.2,163.2,0,0,0,1054.68,664.348c-.083,9.035,13.93,9.04,14.035,0a156.076,156.076,0,0,1,10.038-53.458c3.167-8.471-10.393-12.128-13.533-3.731" fill="#e81f76"/>
          <path id="Path_13977" data-name="Path 13977" d="M1024.208,586.112c23.958-56.651,70.93-100.249,129.645-118.958,8.573-2.731,4.909-16.286-3.731-13.533-61.91,19.726-112.689,65.48-138.033,125.408-3.477,8.221,8.609,15.383,12.119,7.083" fill="#e81f76"/>
          <path id="Path_13978" data-name="Path 13978" d="M1027.785,750.723a211.636,211.636,0,0,1-18.836-86.374c-.075-9.027-14.109-9.048-14.035,0a228.519,228.519,0,0,0,20.752,93.457c3.738,8.209,15.837,1.084,12.119-7.083" fill="#e81f76"/>
          <path id="Path_13979" data-name="Path 13979" d="M1104.967,838.87a212.985,212.985,0,0,1-58.083-55.151c-5.215-7.278-17.393-.278-12.119,7.084a231.141,231.141,0,0,0,63.119,60.186c7.617,4.9,14.661-7.241,7.083-12.119" fill="#e81f76"/>
          <path id="Path_13980" data-name="Path 13980" d="M1299.911,852.955c-47.367,20.982-100.684,23.261-149.89,7.357-8.614-2.784-12.3,10.763-3.731,13.534a224.891,224.891,0,0,0,160.7-8.772c8.242-3.651,1.109-15.747-7.083-12.119" fill="#e81f76"/>
          <path id="Path_13981" data-name="Path 13981" d="M1400.983,755.352a216.852,216.852,0,0,1-51.442,66.169c-6.823,5.945,3.137,15.837,9.923,9.924a227.126,227.126,0,0,0,53.637-69.009c4.065-8.042-8.039-15.156-12.118-7.084" fill="#e81f76"/>
          <path id="Path_13982" data-name="Path 13982" d="M1394.021,560.412a210.841,210.841,0,0,1,28.018,103.937c.071,9.027,14.107,9.048,14.035,0a225.748,225.748,0,0,0-29.934-111.021c-4.493-7.833-16.624-.772-12.119,7.084" fill="#e81f76"/>
          <path id="Path_13983" data-name="Path 13983" d="M1229.56,458.259A208.977,208.977,0,0,1,1352,509.32c6.78,5.914,16.747-3.973,9.924-9.924a224.845,224.845,0,0,0-132.363-55.172c-9.012-.654-8.97,13.384,0,14.035" fill="#e81f76"/>
          <path id="Path_13984" data-name="Path 13984" d="M1198.913,443.013a82.418,82.418,0,0,0-24.433,2.875c-8.677,2.451-4.989,16,3.732,13.533a69.05,69.05,0,0,1,20.7-2.373c9.035.254,9.028-13.781,0-14.035" fill="#e81f76"/>
          <path id="Path_13985" data-name="Path 13985" d="M1002.958,606.972c-3.359,8.458-5.987,17.632-6.4,26.789-.4,9.03,13.634,9.01,14.035,0,.334-7.508,3-15.768,5.893-23.058,3.335-8.4-10.233-12.04-13.533-3.731" fill="#e81f76"/>
          <path id="Path_13986" data-name="Path 13986" d="M1368.828,526.988a110.894,110.894,0,0,1,7.9,8.482c.161.2.316.4.482.6.626.736-.439-.533-.5-.653a6.754,6.754,0,0,0,.64.865c.173.239.343.484.5.736a7.019,7.019,0,0,0,12.119-7.084c-2.91-4.782-7.266-8.968-11.211-12.866a7.017,7.017,0,0,0-9.924,9.924" fill="#e81f76"/>
          <path id="Path_13987" data-name="Path 13987" d="M1420.013,695.261a154.822,154.822,0,0,1-5.391,22.264c-2.716,8.635,10.828,12.331,13.534,3.731a154.968,154.968,0,0,0,5.391-22.264c.589-3.739-.958-7.549-4.9-8.632-3.335-.917-8.038,1.135-8.632,4.9" fill="#e81f76"/>
          <path id="Path_13988" data-name="Path 13988" d="M1329.657,838.78a50.174,50.174,0,0,1-4.9,3.389c-.864.509-3.24,1.423,0,.17a7.614,7.614,0,0,0-4.194,3.225,7.161,7.161,0,0,0-.708,5.407c1.075,3.321,4.967,6.319,8.633,4.9a33.826,33.826,0,0,0,8.251-4.974,7.713,7.713,0,0,0,3.226-4.193,7.172,7.172,0,0,0-.708-5.408,7.085,7.085,0,0,0-4.194-3.225c-1.709-.389-3.944-.409-5.407.708" fill="#e81f76"/>
          <path id="Path_13989" data-name="Path 13989" d="M1130.371,852.955a54.028,54.028,0,0,1-7-3.526,7.018,7.018,0,1,0-7.084,12.118,53.984,53.984,0,0,0,7,3.527,7.687,7.687,0,0,0,5.407.707,7.159,7.159,0,0,0,4.194-3.225c1.594-3.018,1.083-8.054-2.518-9.6" fill="#e81f76"/>
        </g>
      </g>
    </g>
  </g>
</svg>
