<svg xmlns="http://www.w3.org/2000/svg" width="477.088" height="474.266" viewBox="0 0 477.088 474.266">
  <g id="Group_3199" data-name="Group 3199" transform="translate(-746.42 -428.657)">
    <path id="Path_13742" data-name="Path 13742" d="M985.509,892.793c-125.942,0-228.4-102.466-228.4-228.409s102.463-228.406,228.4-228.406,228.41,102.465,228.41,228.4-102.466,228.409-228.41,228.409m0-455.745c-125.354,0-227.336,101.983-227.336,227.336S860.155,891.723,985.509,891.723,1212.85,789.736,1212.85,664.382,1110.864,437.046,985.509,437.046" fill="#20c2af"/>
    <path id="Path_13743" data-name="Path 13743" d="M1120.363,488.485a10.616,10.616,0,1,0,10.616-10.616h0a10.616,10.616,0,0,0-10.616,10.616" fill="#20c2af"/>
    <path id="Path_13744" data-name="Path 13744" d="M1037.518,637.189a10.617,10.617,0,1,0,10.616-10.617h0a10.617,10.617,0,0,0-10.616,10.617" fill="#20c2af"/>
    <path id="Path_13745" data-name="Path 13745" d="M1019.421,573.374a10.617,10.617,0,1,0,10.617-10.616h0a10.617,10.617,0,0,0-10.617,10.616" fill="#20c2af"/>
    <path id="Path_13746" data-name="Path 13746" d="M980.295,585.955a7.583,7.583,0,1,0,7.583-7.583,7.583,7.583,0,0,0-7.583,7.583" fill="#20c2af"/>
    <path id="Path_13747" data-name="Path 13747" d="M906.524,692.275a7.583,7.583,0,1,0,7.583-7.583,7.583,7.583,0,0,0-7.583,7.583" fill="#20c2af"/>
    <path id="Path_13748" data-name="Path 13748" d="M974.784,746.053A10.617,10.617,0,1,0,985.4,735.437h0a10.616,10.616,0,0,0-10.616,10.616" fill="#20c2af"/>
    <path id="Path_13749" data-name="Path 13749" d="M866.35,636.417a7.583,7.583,0,1,0,7.583-7.583,7.583,7.583,0,0,0-7.583,7.583" fill="#20c2af"/>
    <path id="Path_13750" data-name="Path 13750" d="M1155.059,804.961a10.616,10.616,0,1,0,10.616-10.617h0a10.617,10.617,0,0,0-10.616,10.617" fill="#20c2af"/>
    <path id="Path_13751" data-name="Path 13751" d="M938.078,888.74a7.583,7.583,0,1,0,7.583-7.583,7.583,7.583,0,0,0-7.583,7.583" fill="#20c2af"/>
    <path id="Path_13752" data-name="Path 13752" d="M858.282,857.152a7.583,7.583,0,1,0,7.583-7.583,7.583,7.583,0,0,0-7.583,7.583" fill="#20c2af"/>
    <path id="Path_13753" data-name="Path 13753" d="M798.638,522.556a10.616,10.616,0,1,0,10.616-10.616h0a10.616,10.616,0,0,0-10.616,10.616" fill="#20c2af"/>
    <path id="Path_13754" data-name="Path 13754" d="M782.366,547.778a7.583,7.583,0,1,0,7.583-7.583,7.583,7.583,0,0,0-7.583,7.583" fill="#20c2af"/>
    <path id="Path_13755" data-name="Path 13755" d="M1202.275,664.311a10.617,10.617,0,1,0,10.616-10.616h0a10.616,10.616,0,0,0-10.616,10.616" fill="#20c2af"/>
    <path id="Path_13756" data-name="Path 13756" d="M981.257,892.306a10.616,10.616,0,1,0,10.616-10.616h0a10.616,10.616,0,0,0-10.616,10.616" fill="#20c2af"/>
    <path id="Path_13757" data-name="Path 13757" d="M1019.909,440.2a3.033,3.033,0,1,0,3.033-3.033h0a3.033,3.033,0,0,0-3.033,3.033" fill="#20c2af"/>
    <path id="Path_13758" data-name="Path 13758" d="M1125.4,835.06a10.616,10.616,0,1,0,10.616-10.616h0A10.616,10.616,0,0,0,1125.4,835.06" fill="#20c2af"/>
    <path id="Path_13759" data-name="Path 13759" d="M826.631,831.378a3.034,3.034,0,1,0,3.033-3.033h0a3.033,3.033,0,0,0-3.033,3.033" fill="#20c2af"/>
    <path id="Path_13760" data-name="Path 13760" d="M757.161,628.1a3.033,3.033,0,1,0,3.033-3.033h0a3.032,3.032,0,0,0-3.033,3.033" fill="#20c2af"/>
    <path id="Path_13761" data-name="Path 13761" d="M818.3,506.3a3.033,3.033,0,1,0,3.033-3.033h0A3.033,3.033,0,0,0,818.3,506.3" fill="#20c2af"/>
    <path id="Path_13762" data-name="Path 13762" d="M893.436,454.4a3.033,3.033,0,1,0,3.033-3.033h0a3.033,3.033,0,0,0-3.033,3.033" fill="#20c2af"/>
    <path id="Path_13763" data-name="Path 13763" d="M1057.92,449.98a6.066,6.066,0,1,0,6.067-6.066,6.067,6.067,0,0,0-6.067,6.066h0" fill="#20c2af"/>
    <path id="Path_13764" data-name="Path 13764" d="M1189.589,570.2a3.033,3.033,0,1,0,3.033-3.033h0a3.033,3.033,0,0,0-3.033,3.033" fill="#20c2af"/>
    <path id="Path_13765" data-name="Path 13765" d="M1147.137,822.541a3.034,3.034,0,1,0,3.033-3.033h0a3.033,3.033,0,0,0-3.033,3.033" fill="#20c2af"/>
    <path id="Path_13766" data-name="Path 13766" d="M1077.662,871.02a3.033,3.033,0,1,0,3.033-3.033h0a3.033,3.033,0,0,0-3.033,3.033" fill="#20c2af"/>
    <path id="Path_13767" data-name="Path 13767" d="M907.164,880.179a3.033,3.033,0,1,0,3.033-3.033h0a3.033,3.033,0,0,0-3.033,3.033" fill="#20c2af"/>
    <path id="Path_13768" data-name="Path 13768" d="M781.493,777.869a6.066,6.066,0,1,0,6.067-6.066,6.067,6.067,0,0,0-6.067,6.066h0" fill="#20c2af"/>
    <path id="Path_13769" data-name="Path 13769" d="M755.617,707.877a6.066,6.066,0,1,0,6.067-6.066,6.067,6.067,0,0,0-6.067,6.066h0" fill="#20c2af"/>
    <path id="Path_13770" data-name="Path 13770" d="M758.349,608.691a6.066,6.066,0,1,0,6.067-6.067,6.066,6.066,0,0,0-6.067,6.067h0" fill="#20c2af"/>
    <path id="Path_13771" data-name="Path 13771" d="M856.409,471.745a6.066,6.066,0,1,0,6.066-6.067,6.066,6.066,0,0,0-6.066,6.067h0" fill="#20c2af"/>
    <path id="Path_13772" data-name="Path 13772" d="M990.712,436.24a7.583,7.583,0,1,0,7.583-7.583,7.583,7.583,0,0,0-7.583,7.583" fill="#20c2af"/>
    <path id="Path_13773" data-name="Path 13773" d="M1156.938,522.762a6.067,6.067,0,1,0,6.067-6.066,6.067,6.067,0,0,0-6.067,6.066h0" fill="#20c2af"/>
    <path id="Path_13774" data-name="Path 13774" d="M1197.366,600.8a6.067,6.067,0,1,0,6.066-6.067,6.066,6.066,0,0,0-6.066,6.067h0" fill="#20c2af"/>
    <path id="Path_13775" data-name="Path 13775" d="M1203,708.442a6.067,6.067,0,1,0,6.067-6.066,6.067,6.067,0,0,0-6.067,6.066h0" fill="#20c2af"/>
    <path id="Path_13776" data-name="Path 13776" d="M1182.59,768.438a6.066,6.066,0,1,0,6.066-6.066,6.066,6.066,0,0,0-6.066,6.066h0" fill="#20c2af"/>
    <path id="Path_13777" data-name="Path 13777" d="M1094.623,861.8a4.55,4.55,0,1,0,4.55-4.55,4.55,4.55,0,0,0-4.55,4.55h0" fill="#20c2af"/>
    <path id="Path_13778" data-name="Path 13778" d="M1016.461,888.781a6.066,6.066,0,1,0,6.067-6.066,6.067,6.067,0,0,0-6.067,6.066h0" fill="#20c2af"/>
    <path id="Path_13779" data-name="Path 13779" d="M1192.594,570.74,789.919,548.313l.057-1.068,402.676,22.425Z" fill="#20c2af"/>
    <path id="Path_13780" data-name="Path 13780" d="M789.982,548.313l-.07-1.068,373.059-25.017.07,1.069Z" fill="#20c2af"/>
    <rect id="Rectangle_119" data-name="Rectangle 119" width="1.072" height="379.083" transform="translate(787.523 778.404) rotate(-85.902)" fill="#20c2af"/>
    <path id="Path_13781" data-name="Path 13781" d="M1163.435,808.164,756.026,664.379l1.435-.5,405.16-141.717.357,1.011L759.252,664.386l404.54,142.773Z" fill="#20c2af"/>
    <path id="Path_13782" data-name="Path 13782" d="M761.921,708.354l-.535-.923c3.1-2.067,406.017-39.337,451.947-43.58l.095,1.063c-4.455.412-445.542,41.175-451.511,43.44" fill="#20c2af"/>
    <rect id="Rectangle_120" data-name="Rectangle 120" width="424.054" height="1.073" transform="matrix(0.796, -0.606, 0.606, 0.796, 865.667, 856.894)" fill="#20c2af"/>
    <path id="Path_13783" data-name="Path 13783" d="M1098.713,862.078,862.017,472.02l.917-.551,236.7,390.05Z" fill="#20c2af"/>
    <path id="Path_13784" data-name="Path 13784" d="M1203.331,601.328,805.812,523.193l.2-1.05,397.52,78.134Z" fill="#20c2af"/>
    <path id="Path_13785" data-name="Path 13785" d="M928.685,538.09a7.583,7.583,0,1,0,7.583-7.583,7.583,7.583,0,0,0-7.583,7.583" fill="#20c2af"/>
    <path id="Path_13786" data-name="Path 13786" d="M879.634,711.026a7.583,7.583,0,1,0,7.583-7.583,7.583,7.583,0,0,0-7.583,7.583" fill="#20c2af"/>
    <path id="Path_13787" data-name="Path 13787" d="M894.29,596.53a4.549,4.549,0,1,0,4.549-4.549,4.55,4.55,0,0,0-4.549,4.549h0" fill="#20c2af"/>
    <path id="Path_13788" data-name="Path 13788" d="M1075.02,577.732a7.583,7.583,0,1,0,7.583-7.583,7.583,7.583,0,0,0-7.583,7.583" fill="#20c2af"/>
    <path id="Path_13789" data-name="Path 13789" d="M1149.758,685.336a6.066,6.066,0,1,0,6.066-6.066,6.066,6.066,0,0,0-6.066,6.066h0" fill="#20c2af"/>
    <path id="Path_13790" data-name="Path 13790" d="M945.558,640.441a6.066,6.066,0,1,0,6.067-6.067,6.066,6.066,0,0,0-6.067,6.067h0" fill="#20c2af"/>
    <path id="Path_13791" data-name="Path 13791" d="M955.989,835.416a4.549,4.549,0,1,0,4.55-4.55,4.55,4.55,0,0,0-4.55,4.55h0" fill="#20c2af"/>
    <path id="Path_13792" data-name="Path 13792" d="M746.42,664.383a10.617,10.617,0,1,0,10.616-10.616h0a10.616,10.616,0,0,0-10.616,10.616" fill="#20c2af"/>
    <path id="Path_13793" data-name="Path 13793" d="M1213.207,664.888,804.852,525.727l2.127-6.118,406.58,144.267Z" fill="#20c2af"/>
    <path id="Path_13794" data-name="Path 13794" d="M829.622,833.877l336.766-29.441.513,6.455-337.2,24.052Z" fill="#20c2af"/>
    <path id="Path_13795" data-name="Path 13795" d="M1098.652,861.919,995.145,436.987l6.3-1.495,98.244,426.185Z" fill="#20c2af"/>
    <path id="Path_13796" data-name="Path 13796" d="M761.409,707.417,1129.324,485.7l3.308,5.569L761.957,708.338Z" fill="#20c2af"/>
    <path id="Path_13797" data-name="Path 13797" d="M829.261,834.059l299.276-347.7,4.884,4.255L830.068,834.761Z" fill="#20c2af"/>
    <path id="Path_13798" data-name="Path 13798" d="M1213.559,664.887,806.979,808.982l-2.125-6.12,408.354-138.985Z" fill="#20c2af"/>
    <path id="Path_13799" data-name="Path 13799" d="M1099.072,862.321,805.309,809.1l1.212-6.362,292.751,58.53Z" fill="#20c2af"/>
    <path id="Path_13800" data-name="Path 13800" d="M1064.129,450.468,806.751,525.623l-1.664-5.909,258.77-70.224Z" fill="#20c2af"/>
    <path id="Path_13801" data-name="Path 13801" d="M1162.509,806.339,788.2,550.3l3.495-5.047,371.392,260.251Z" fill="#20c2af"/>
    <path id="Path_13802" data-name="Path 13802" d="M1135.8,835.522,755.776,667.179l2.521-5.592L1136.22,834.6Z" fill="#20c2af"/>
    <path id="Path_13803" data-name="Path 13803" d="M760.285,630.612l449.332,74.638-1.1,6.383L760.1,631.667Z" fill="#20c2af"/>
    <path id="Path_13804" data-name="Path 13804" d="M998.684,435.872l217.055,226.29-4.713,4.442-213.121-230Z" fill="#20c2af"/>
    <path id="Path_13805" data-name="Path 13805" d="M795.894,805.642a10.617,10.617,0,1,0,10.617-10.616h0a10.616,10.616,0,0,0-10.617,10.616" fill="#20c2af"/>
  </g>
</svg>
