<?xml version="1.0" encoding="utf-8"?>
<!-- Generator: Adobe Illustrator 19.0.0, SVG Export Plug-In . SVG Version: 6.00 Build 0)  -->
<svg version="1.1" id="Layer_1" xmlns="http://www.w3.org/2000/svg" xmlns:xlink="http://www.w3.org/1999/xlink" x="0px" y="0px"
	 viewBox="-215 397.9 164 46" style="enable-background:new -215 397.9 164 46;" xml:space="preserve">
<style type="text/css">
	.st0{fill:none;}
	.st1{fill:#3D1A52;}
</style>
<rect id="SVGID_3_" x="-226.6" y="492.6" class="st0" width="164" height="46"/>
<g>
	<path class="st1" d="M-178.7,397.9c0.2,0.1,0.5,0.2,0.7,0.2c4.7,0.4,9,4.1,9,10.5c0,4.7,0,9.4,0,14.1c0,3.5,0,7.1,0,10.6
		c0,2.1-0.4,4.1-1.6,5.9c-1.9,2.9-4.7,4.5-8.1,4.5c-8.8,0.1-17.6,0.1-26.4,0c-4.9,0-8.7-3.5-9.5-8.3c-0.1-0.5-0.2-0.9-0.3-1.4
		c0-8.7,0-17.4,0-26.1c0.1-0.5,0.2-1.1,0.3-1.6c0.7-4.2,3.9-7.5,8.1-8.1c0.5-0.1,0.9-0.2,1.4-0.3
		C-196.3,397.9-187.5,397.9-178.7,397.9z M-208.5,429.8c0.9,1,2,1.2,3,1.3c1.2,0.1,1.9,0.6,1.9,1.8c0,0.5,0.3,0.7,0.9,0.6
		c2.4-0.6,4.6,0,6.6,1.5c2.9,2.1,5.5,2.1,8.3,0c1.9-1.4,4-2,6.3-1.5c0.7,0.2,1.1,0,1.2-0.8c0.1-0.9,0.5-1.3,1.4-1.4
		c0.8-0.1,1.7-0.4,2.5-0.7c0.3-0.1,0.5-0.4,0.9-0.6c-0.3-0.1-0.4-0.2-0.5-0.2c-3.3-0.8-5.4-3-6.9-5.9c-0.8-1.6-0.4-2.6,1.3-3.3
		c0.6-0.2,1.2-0.4,1.8-0.7c0.3-0.2,0.4-0.6,0.7-0.9c-0.4-0.2-0.8-0.5-1.2-0.6c-0.2-0.1-0.5,0.2-0.8,0.3c-0.6,0.1-1.2,0.2-1.7,0.2
		c-0.5,0-0.7-0.3-0.7-0.9c0.1-1,0.1-2,0.2-2.9c0-1.6,0.1-3.3-0.7-4.8c-1.7-3.3-4.9-5-8.9-4.7c-4.3,0.3-8,3.6-7.8,8.3
		c0.1,1.3,0.1,2.6,0.2,3.9c0,0.6-0.2,1-0.8,1c-0.7,0-1.5-0.2-2.2-0.4c-0.6-0.2-1.1-0.1-1.3,0.5c-0.1,0.2,0.3,0.7,0.6,0.9
		c0.7,0.4,1.5,0.6,2.2,0.9c1.1,0.5,1.5,1.4,1,2.6c-1.3,2.9-3.2,5.1-6.3,6.1C-207.6,429.5-207.9,429.6-208.5,429.8z"/>
	<path class="st1" d="M-148.9,417.4c-0.7,0-1.3,0-2,0c-0.1-0.3-0.1-0.5-0.1-0.8c-0.2-1-0.7-1.8-1.6-2.3c-1.6-0.8-3.2-0.9-4.8-0.2
		c-1.1,0.5-1.6,1.4-1.5,2.6c0.1,1,0.6,1.6,1.8,1.9c1.4,0.4,2.9,0.7,4.3,1.1c0.7,0.2,1.4,0.4,2.1,0.7c3.5,1.5,3.1,5.7,1,7.5
		c-2.5,2.2-8.3,1.9-10.6-0.5c-1-1.1-1.3-2.4-1.3-3.8c0-0.2,0.3-0.5,0.5-0.5c0.3-0.1,0.7-0.1,1,0c0.3,0.1,0.6,0.3,0.7,0.6
		c0.6,2.9,2.1,4.1,5.2,3.7c1-0.1,2-0.4,2.8-1c1.6-1.1,1.4-3.1-0.3-4c-1.2-0.6-2.6-0.8-3.9-1.2c-0.8-0.2-1.6-0.4-2.4-0.7
		c-1.6-0.5-2.8-1.5-3-3.3c-0.2-1.9,0.4-3.4,2-4.5c2.5-1.8,7-1.3,9,0.9C-149.1,414.7-148.7,416.1-148.9,417.4z"/>
	<path class="st1" d="M-102.7,420.6c0-1.9,0.4-3.6,1.3-5.2c2.3-3.9,7.8-4.9,11.4-2.1c1.1,0.9,1.8,2.1,2.1,3.4
		c0.2,0.6-0.1,0.9-0.8,0.9c-0.8,0-1.3-0.1-1.6-1c-1.2-3.4-6-4-8.5-1.2c-2.4,2.6-2.3,7.9,0.1,10.4c1.5,1.6,3.4,2,5.4,1.4
		c2.1-0.6,3.1-2.2,3.5-4.2c0.2-0.8,0.4-1,1.7-0.8c0.8,0.1,0.6,0.7,0.5,1.2c-0.5,3.3-2.8,5.7-5.8,6c-3.7,0.5-7-1.2-8.3-4.4
		C-102.3,423.6-102.6,422.1-102.7,420.6C-102.6,420.6-102.7,420.6-102.7,420.6z"/>
	<path class="st1" d="M-114.9,427.9c0,1.6,0,3.1,0,4.6c0,1-0.1,1.1-1.1,1.1c-0.9,0-1-0.4-1-1.1c0-4.9,0-9.8,0-14.7
		c0-1,0.7-1.5,1.6-1c0.3,0.2,0.4,0.7,0.5,0.9c1-0.4,2.1-1,3.2-1.2c2.8-0.4,5,1.1,5.9,3.7c0.5,1.7,0.6,3.4,0.2,5.1
		C-106.8,429.4-111.3,430.8-114.9,427.9z M-115,422.9c0.1,0.7,0.2,1.5,0.5,2.2c0.5,1.6,1.7,2.4,3.4,2.4c1.5,0,2.6-0.8,3.2-2.3
		c0.6-1.6,0.6-3.2,0-4.8c-0.6-1.6-1.8-2.4-3.4-2.4c-1.8,0.1-2.9,1-3.4,2.7C-114.9,421.5-114.9,422.1-115,422.9z"/>
	<path class="st1" d="M-123.1,427.7c-1.6,1.8-3.6,2.1-5.7,1.5c-1.7-0.4-2.6-1.6-2.7-3.4c-0.1-1.8,0.7-3.1,2.5-3.5
		c1.4-0.4,2.8-0.5,4.2-0.7c0.6-0.1,1.3-0.1,1.5-0.9c0.2-1.1-0.2-1.9-1.1-2.2c-1-0.4-2.1-0.4-3.1,0c-0.8,0.3-1.2,1-1.3,1.9
		c-0.1,1.1-0.9,0.5-1.4,0.6c-0.6,0.1-0.7-0.4-0.6-0.8c0.1-1.6,1.2-2.9,2.9-3.5c1.4-0.4,2.8-0.4,4.2,0c1.6,0.5,2.6,1.7,2.6,3.5
		c0,2.1,0,4.2,0,6.3c0,0.5,0,0.9,0.7,0.9c0.7,0,0.5,0.6,0.6,1.1c0,0.5-0.1,0.7-0.6,0.8C-121.9,429.2-122.5,428.9-123.1,427.7z
		 M-123.3,423c-1.1,0.2-2.3,0.3-3.4,0.5c-0.6,0.1-1.2,0.3-1.7,0.5c-1.2,0.6-1.4,2.1-0.3,2.9c0.4,0.3,1,0.5,1.5,0.5
		C-124.5,427.7-122.8,425.7-123.3,423z"/>
	<path class="st1" d="M-62.5,427.7c-1.4,1.6-3.1,1.9-5,1.7c-1.9-0.2-3.1-1.5-3.3-3.2c-0.2-2.1,0.6-3.5,2.6-4
		c1.3-0.4,2.8-0.5,4.1-0.7c0.6-0.1,1.2-0.1,1.4-0.8c0.2-0.9-0.1-1.8-0.8-2.1c-1.3-0.6-2.6-0.7-3.8,0.1c-0.5,0.3-0.8,1.1-1,1.7
		c-0.2,1.1-1,0.7-1.5,0.6c-0.6-0.1-0.7-0.4-0.6-0.8c0.1-1.6,1.2-2.9,2.9-3.5c1.4-0.4,2.8-0.4,4.2,0c1.7,0.5,2.6,1.8,2.6,3.6
		c0,2,0,4.1,0,6.1c0,0.6,0,1,0.8,1c0.7,0,0.5,0.6,0.5,1c0,0.4,0,0.7-0.5,0.8C-61.1,429.3-61.9,429-62.5,427.7z M-62.7,423
		c-1.5,0.3-3,0.5-4.5,0.9c-1.2,0.3-1.7,1-1.5,2c0.1,0.9,1,1.7,2.1,1.8C-64,427.8-62.2,425.7-62.7,423z"/>
	<path class="st1" d="M-82.2,417.8c1.2-1.1,2.4-1.6,3.8-1.5c2.8,0.1,4.3,1.4,4.4,4.2c0.1,2.6,0,5.3,0.1,7.9c0,0.9-0.7,0.7-1.2,0.8
		c-0.6,0-0.9-0.2-0.9-0.9c0-2.4,0-4.8,0-7.2c0-1.6-0.6-2.5-1.8-2.8c-1.5-0.4-3.1,0.2-3.7,1.5c-0.4,0.8-0.5,1.8-0.6,2.7
		c-0.1,1.9-0.1,3.8,0,5.7c0,0.8-0.3,1-1,1c-0.7,0-1.1-0.1-1.1-0.9c0-5,0-10.1,0-15.1c0-0.8,0.4-1,1.1-1c0.8,0,1.1,0.2,1,1
		C-82.3,414.6-82.2,416.1-82.2,417.8z"/>
	<path class="st1" d="M-142.7,417.7c1.1-1,2.3-1.4,3.7-1.4c2.8,0.1,4.3,1.5,4.4,4.3c0.1,2.6,0,5.2,0,7.7c0,0.8-0.5,0.8-1.1,0.8
		c-0.6,0-1.1,0-1.1-0.8c0-2.4,0-4.7,0-7.1c0-1.9-0.7-2.8-2.1-3.1c-1.7-0.3-3.2,0.6-3.7,2.2c-0.2,0.5-0.3,1.2-0.3,1.7c0,2,0,4,0,6.1
		c0,0.8-0.3,1-1.1,1c-0.8,0-1-0.2-1-1c0-3.5,0-7,0-10.4c0-0.5-0.2-1,0.6-1.1C-143.1,416.5-142.9,416.6-142.7,417.7z"/>
	<path class="st1" d="M-55.6,418.6c-0.6-0.6-2,0.5-2-1.1c0-1.7,1.4-0.6,2.1-1.2c0-0.7,0-1.6,0-2.5c0-0.8,0.4-0.9,1.1-0.9
		c0.6,0,1.1,0,1.1,0.9c-0.1,0.9,0,1.7,0,2.7c0.4,0,0.7,0,1,0c1.4,0,1.4,0,1.4,0.9c0,0.9,0,0.9-1.4,0.9c-0.3,0-0.6,0-0.9,0
		c0,0.2-0.1,0.4-0.1,0.5c0,2.4,0,4.8,0,7.2c0,1,0.2,1.2,1.3,1.2c1.2-0.1,1.2,0.1,1.1,1.3c0,0.2-0.3,0.4-0.5,0.6c0,0-0.2,0-0.2,0
		c-3,0.2-3.7-0.5-3.7-3.5c0-2.3,0-4.7,0-7C-55.6,418.7-55.6,418.6-55.6,418.6z"/>
</g>
</svg>
