<?xml version="1.0" encoding="utf-8"?>
<!-- Generator: Adobe Illustrator 16.0.0, SVG Export Plug-In . SVG Version: 6.00 Build 0)  -->
<!DOCTYPE svg PUBLIC "-//W3C//DTD SVG 1.1//EN" "http://www.w3.org/Graphics/SVG/1.1/DTD/svg11.dtd">
<svg version="1.1" id="Layer_1" xmlns="http://www.w3.org/2000/svg" xmlns:xlink="http://www.w3.org/1999/xlink" x="0px" y="0px"
	 width="25px" height="25px" viewBox="0 0 25 25" enable-background="new 0 0 25 25" xml:space="preserve">
<g id="Group_3157" transform="translate(0 0)">
	<g>
		<path id="Path_13715_8_" fill="#4FBCEC" d="M24.6,4.998c-0.91,0.396-1.873,0.66-2.857,0.782c1.037-0.615,1.814-1.592,2.182-2.741
			c-0.973,0.576-2.037,0.982-3.146,1.2c-1.871-2-5.01-2.104-7.01-0.231c-1.002,0.938-1.571,2.25-1.571,3.623
			c-0.004,0.38,0.035,0.759,0.115,1.131C8.32,8.566,4.599,6.679,2.085,3.571C0.759,5.836,1.427,8.741,3.609,10.2
			c-0.785-0.021-1.553-0.23-2.24-0.61v0.054c0.002,2.361,1.662,4.396,3.973,4.875c-0.424,0.111-0.861,0.166-1.299,0.162
			c-0.316,0.008-0.633-0.02-0.941-0.08c0.656,2.018,2.514,3.402,4.635,3.456c-1.756,1.372-3.92,2.116-6.148,2.114
			c-0.396,0.004-0.793-0.019-1.188-0.066c2.27,1.462,4.912,2.235,7.609,2.227c7.745,0.054,14.065-6.18,14.118-13.924
			c0.002-0.064,0.002-0.128,0-0.192c0-0.219-0.008-0.431-0.018-0.642C23.09,6.874,23.934,6.001,24.6,4.998z"/>
	</g>
</g>
</svg>
