<?xml version="1.0" encoding="utf-8"?>
<!-- Generator: Adobe Illustrator 16.0.0, SVG Export Plug-In . SVG Version: 6.00 Build 0)  -->
<!DOCTYPE svg PUBLIC "-//W3C//DTD SVG 1.1//EN" "http://www.w3.org/Graphics/SVG/1.1/DTD/svg11.dtd">
<svg version="1.1" id="Layer_1" xmlns="http://www.w3.org/2000/svg" xmlns:xlink="http://www.w3.org/1999/xlink" x="0px" y="0px"
	 width="61.57px" height="69.9px" viewBox="0 0 61.57 69.9" enable-background="new 0 0 61.57 69.9" xml:space="preserve">
<path id="Path_102" d="M32.282,9.434l-0.667-9.438h-0.566l-0.667,9.435c-7.749,0.225-15.111,3.438-20.546,8.966
	c-1.849-2.401-5.293-2.85-7.694-1.001s-2.85,5.293-1.001,7.694c0.647,0.842,1.525,1.477,2.526,1.829
	c0.034,0.084,0.073,0.166,0.116,0.246l-0.061,0.137c-6.829,15.245-0.006,33.139,15.238,39.967s33.138,0.006,39.966-15.238
	c6.829-15.245,0.006-33.139-15.238-39.967c-3.595-1.61-7.47-2.503-11.406-2.627V9.434z M30.912,9.985L30.932,9.7l0.399-5.652
	l0.4,5.682l-0.005-0.078l0.022,0.334l0.18,2.524h-1.2L30.912,9.985z M3.47,25.904c0.004,0.111,0.016,0.223,0.033,0.333
	c-2.48-1.103-3.598-4.007-2.496-6.487c1.103-2.48,4.007-3.599,6.487-2.496c0.767,0.341,1.434,0.872,1.938,1.543l-0.037,0.038
	l0.2,0.19c0.442,0.671,0.713,1.44,0.788,2.241c-0.06,0-0.118-0.015-0.179-0.015c-1.354,0.001-2.598,0.749-3.231,1.945
	c-1.498-0.387-3.024,0.514-3.411,2.011c-0.059,0.228-0.089,0.462-0.089,0.696H3.47z M13.207,24.197l0.076,0.323l0.307-0.125
	c0.229-0.093,0.473-0.141,0.72-0.141c1.07,0,1.938,0.868,1.938,1.938c0,1.071-0.868,1.938-1.938,1.938l0,0H6.266
	c-1.231-0.002-2.228-1.002-2.225-2.233c0.002-1.23,1.002-2.227,2.233-2.225c0.256,0.001,0.51,0.046,0.751,0.133l0.248,0.089
	l0.107-0.241c0.692-1.558,2.518-2.26,4.075-1.567C12.338,22.478,12.985,23.259,13.207,24.197z M20.175,67.138
	C4.991,60.976-2.323,43.673,3.84,28.489c0-0.001,0-0.001,0-0.001c0.104-0.257,0.212-0.512,0.323-0.765
	c0.525,0.616,1.295,0.973,2.105,0.976h8.039c1.384,0,2.506-1.122,2.506-2.506s-1.122-2.506-2.506-2.506l0,0
	c-0.214-0.001-0.427,0.027-0.634,0.082c-0.403-1.239-1.441-2.166-2.718-2.429c-0.062-0.876-0.333-1.724-0.792-2.473
	c5.326-5.453,12.559-8.631,20.178-8.864l-0.179,2.537c-0.599,0.071-1.103,0.483-1.29,1.057v11.089l-2.175,1.199v12.388l-2.175,0.8
	v12.781l-2.175,0.399v13.07h-2.176L20.175,67.138z M24.525,68.526c-1.285-0.303-2.549-0.692-3.782-1.164v-1.465h1.911l1.871,0.066
	V68.526z M26.7,66.468v2.491c-0.541-0.085-1.076-0.188-1.607-0.3v-3.335h-2.177v-12.6l3.782-0.7L26.7,66.468z M28.875,69.213
	c-0.54-0.044-1.075-0.102-1.606-0.175V51.326l-2.176,0.4V39.472l3.782-1.395V69.213z M31.05,69.313
	c-0.539-0.006-1.074-0.025-1.606-0.061v-32l-0.375,0.14l-0.007-0.02l-1.793,0.661v-11.81l3.781-2.092V69.313z M31.05,15.144v8.334
	l-1.606,0.889v-10.37c0-0.507,0.411-0.917,0.918-0.918h1.946c0.507,0,0.918,0.411,0.918,0.918v2.357L31.05,15.144z M33.225,29.215
	v40.043c-0.533,0.034-1.069,0.054-1.607,0.061V16.111l3.782,2.092v11.818l-1.793-0.661L33.225,29.215z M35.397,69.039
	c-0.533,0.074-1.069,0.133-1.607,0.175V30.035l2.175,0.8l1.607,0.592v13.686l-2.175-0.4V69.039z M37.572,60.197v8.466
	c-0.531,0.114-1.066,0.217-1.607,0.3V45.397l2.176,0.399l0,0l1.606,0.301v14.1H37.572z M41.921,67.368
	c-1.232,0.472-2.496,0.86-3.781,1.163V60.76h3.781V67.368z M42.489,67.143v-6.946h-2.174v-14.58l-2.175-0.4V31.033l-2.176-0.8
	V17.869l-2.175-1.2v-3.071c-0.188-0.573-0.69-0.985-1.289-1.057l-0.179-2.538c16.373,0.541,29.209,14.252,28.669,30.625
	c-0.387,11.717-7.638,22.106-18.501,26.512L42.489,67.143z"/>
</svg>
